<?xml version="1.0" encoding="UTF-8" standalone="no"?>
<!DOCTYPE svg PUBLIC "-//W3C//DTD SVG 1.1//EN" "http://www.w3.org/Graphics/SVG/1.1/DTD/svg11.dtd">
<svg viewBox="0 0 1365 768" height="768.0pt" width="1365.0pt" xmlns="http://www.w3.org/2000/svg" version="1.1">
<path d="M 1042.95 59.07 C 1046.85 63.06 1050.65 68.79 1050.75 74.54 C 1050.76 81.08 1047.97 87.29 1047.53 93.88 C 1047.02 98.67 1046.25 103.42 1045.47 108.17 C 1043.36 123.76 1038.19 138.87 1035.62 154.41 C 1034.52 162.79 1033.27 171.17 1032.56 179.59 C 1031.96 186.50 1032.32 193.31 1031.34 200.20 C 1030.41 206.95 1029.10 213.62 1028.41 220.41 C 1026.83 225.82 1024.93 231.11 1023.20 236.47 C 1020.12 246.09 1020.36 255.69 1019.47 265.67 C 1018.98 271.11 1018.82 276.54 1018.79 282.00 C 1018.78 291.33 1017.89 300.59 1017.45 309.92 C 1016.42 320.87 1014.43 331.73 1013.51 342.69 C 1012.98 353.37 1012.50 364.74 1009.91 375.15 C 1008.73 380.07 1006.86 384.71 1005.35 389.52 C 1003.37 395.80 1002.89 402.10 1001.32 408.54 C 1000.46 412.45 999.18 416.94 999.82 420.93 C 1000.40 424.52 1002.49 427.19 1004.54 430.05 C 1007.20 424.81 1009.30 419.45 1011.03 413.83 C 1014.39 403.04 1019.30 392.08 1021.27 381.04 C 1022.43 374.61 1024.75 368.66 1026.66 362.44 C 1028.90 355.32 1031.89 348.56 1033.42 341.20 C 1034.97 333.26 1037.55 326.53 1035.98 318.39 C 1034.33 308.95 1036.04 299.98 1038.43 290.86 C 1040.16 290.50 1041.83 290.14 1043.61 290.17 C 1045.96 293.42 1044.90 298.72 1045.00 302.56 C 1046.86 298.64 1048.26 294.98 1046.16 290.76 C 1043.41 285.67 1039.76 281.60 1038.68 275.66 C 1044.14 276.12 1049.03 278.10 1054.18 279.78 C 1054.85 281.37 1055.52 282.97 1056.22 284.54 C 1057.29 286.94 1058.68 289.45 1059.20 292.02 C 1059.53 294.77 1058.90 297.73 1058.47 300.45 C 1057.33 306.51 1056.93 312.28 1055.32 318.16 C 1053.79 323.76 1051.92 329.19 1050.89 334.93 C 1048.37 348.71 1047.37 363.95 1043.21 377.35 C 1040.88 384.98 1035.87 390.83 1033.35 398.35 C 1030.79 406.07 1028.94 414.05 1026.78 421.89 C 1024.65 429.50 1023.66 437.26 1021.93 444.98 C 1020.65 450.65 1020.33 456.90 1018.20 462.28 C 1015.94 467.56 1012.26 472.46 1007.08 475.15 C 1001.51 478.15 994.77 480.83 989.85 484.89 C 987.87 486.46 987.54 488.60 986.72 490.84 C 990.57 489.80 994.29 488.39 997.97 486.86 C 997.81 489.62 997.30 492.62 997.82 495.35 C 998.60 497.31 1000.21 499.02 1001.51 500.67 C 1003.59 499.08 1005.81 497.03 1008.33 496.19 C 1010.35 495.77 1012.53 495.95 1014.58 495.97 C 1013.23 499.00 1011.30 501.69 1009.73 504.60 C 1008.77 506.24 1009.71 508.13 1010.43 509.67 C 1012.57 513.80 1015.34 517.00 1016.46 521.69 C 1017.49 526.30 1017.60 531.16 1017.56 535.88 C 1017.67 543.69 1012.39 551.23 1005.54 554.70 C 1001.20 557.04 996.89 558.87 993.07 562.12 C 990.75 563.95 988.50 566.51 985.76 567.66 C 982.65 568.33 978.92 566.06 975.95 565.21 C 972.08 563.69 967.20 566.03 963.55 564.69 C 961.26 562.08 960.08 559.04 957.28 556.82 C 953.62 553.92 949.78 551.96 946.71 548.27 C 943.38 544.39 942.12 539.62 940.92 534.76 C 939.88 530.05 939.02 525.48 940.73 520.79 C 941.85 517.12 944.60 513.09 944.52 509.23 C 943.69 506.03 941.35 503.11 939.69 500.29 C 942.74 500.80 945.69 501.58 948.62 502.55 C 950.51 500.18 952.36 497.63 954.61 495.59 C 957.07 493.36 960.70 492.32 963.80 491.25 C 963.68 488.80 964.45 485.33 962.43 483.55 C 956.77 477.90 947.94 475.33 942.10 469.89 C 939.34 467.27 938.52 463.96 937.34 460.48 C 936.43 457.53 935.21 454.70 934.05 451.84 C 930.88 442.24 930.40 432.17 926.80 422.68 C 923.36 407.21 916.21 392.48 911.59 377.34 C 910.31 373.08 908.70 368.94 907.19 364.76 C 906.62 362.73 906.03 360.70 905.34 358.70 C 902.02 348.12 898.56 337.58 894.90 327.11 C 892.36 319.14 889.80 311.88 892.02 303.44 C 894.51 301.38 896.21 298.75 897.76 295.96 C 898.83 294.90 899.94 293.87 901.04 292.84 C 901.90 293.02 902.76 293.21 903.62 293.38 C 903.44 298.53 901.82 303.52 901.67 308.62 C 901.97 309.90 902.66 313.52 904.57 312.38 C 906.82 309.06 907.69 304.61 909.11 300.87 C 910.39 301.00 911.68 301.14 912.96 301.27 C 912.99 305.18 912.75 309.05 911.90 312.88 C 910.45 319.42 910.37 326.38 910.85 333.04 C 911.16 337.15 912.68 340.81 914.48 344.46 C 917.80 351.17 920.88 357.99 924.37 364.62 C 926.84 369.49 929.56 374.35 931.55 379.43 C 933.05 383.25 933.93 387.14 934.98 391.09 C 936.95 399.57 940.02 408.39 943.71 416.27 C 947.37 422.73 950.15 429.53 953.20 436.28 C 956.81 431.62 959.65 426.36 961.89 420.92 C 962.86 418.64 962.34 416.54 961.83 414.23 C 957.20 394.80 947.99 376.43 942.69 357.22 C 939.75 346.81 939.10 336.36 937.03 325.75 C 936.03 317.56 934.88 309.39 933.77 301.22 C 932.45 285.75 932.58 270.20 931.11 254.73 C 929.90 244.90 927.54 235.26 923.75 226.10 C 921.59 220.94 919.79 215.68 918.66 210.19 C 915.51 195.08 913.08 179.80 911.33 164.47 C 910.60 158.38 910.49 152.20 909.55 146.15 C 908.64 140.55 905.84 136.28 904.00 130.93 C 900.94 122.19 900.27 112.39 897.51 103.43 C 895.75 97.47 893.34 92.40 893.54 85.99 C 893.76 80.42 894.86 74.83 896.32 69.46 C 897.14 66.83 898.33 63.21 900.92 61.83 C 903.09 60.80 905.19 61.38 906.58 63.33 C 909.60 67.57 911.75 72.54 913.80 77.31 C 916.06 82.71 916.34 88.26 916.48 94.03 C 916.63 100.63 917.81 106.87 920.02 113.08 C 921.50 117.67 924.01 121.72 925.75 126.16 C 927.46 130.33 926.27 134.83 925.92 139.14 C 925.15 145.20 927.53 151.02 928.91 156.87 C 930.15 162.02 931.74 167.00 934.38 171.62 C 938.05 178.15 939.94 185.16 942.98 192.00 C 948.51 203.61 946.21 215.73 950.56 227.50 C 952.73 235.61 955.78 242.97 956.65 251.03 C 957.57 258.10 957.33 264.92 958.86 271.94 C 961.86 284.95 965.66 297.77 969.00 310.68 C 970.29 316.67 972.23 322.46 973.76 328.38 C 974.47 331.89 975.14 335.40 976.06 338.86 C 976.77 338.63 977.47 338.40 978.18 338.17 C 980.58 327.08 982.47 315.89 984.74 304.78 C 987.35 295.18 989.36 285.44 991.24 275.67 C 992.67 266.12 994.14 256.58 995.89 247.08 C 997.44 239.40 999.40 231.80 1001.11 224.15 C 1004.19 213.04 1004.54 201.51 1007.23 190.25 C 1011.02 175.75 1014.26 161.16 1018.66 146.82 C 1020.09 141.46 1022.55 134.94 1021.27 129.42 C 1020.54 125.63 1019.43 122.30 1020.08 118.36 C 1021.17 111.57 1023.88 105.14 1025.07 98.33 C 1026.36 93.01 1026.79 88.31 1026.41 82.86 C 1025.72 74.47 1029.17 65.79 1034.02 59.08 C 1036.37 55.64 1040.30 56.55 1042.95 59.07 Z" fill="#1e2936"/>
</svg>
