<?xml version="1.0" encoding="UTF-8" standalone="no"?>
<!DOCTYPE svg PUBLIC "-//W3C//DTD SVG 1.1//EN" "http://www.w3.org/Graphics/SVG/1.1/DTD/svg11.dtd">
<svg viewBox="0 0 1365 768" height="768.0pt" width="1365.0pt" xmlns="http://www.w3.org/2000/svg" version="1.1">
<defs>
<mask id="mask">
<rect width="100%" height="100%" fill="#fff"/>
<path d="M 982.22 396.96 C 983.20 404.51 982.90 411.90 980.85 419.25 C 978.69 416.54 975.33 412.93 975.70 409.21 C 976.40 404.53 978.61 400.08 982.22 396.96 Z" fill="#000"/>
</mask>
</defs>
<path d="M 949.67 39.18 C 952.24 40.95 954.07 43.89 956.26 46.10 C 959.64 49.16 963.30 51.29 965.54 55.45 C 968.99 62.01 968.97 69.90 972.19 76.77 C 975.91 85.45 983.53 89.67 985.77 99.29 C 987.31 104.44 982.63 108.25 980.02 112.06 C 974.49 118.88 974.21 128.01 974.46 136.39 C 975.10 145.70 975.92 155.09 977.77 164.25 C 979.09 171.19 980.49 177.87 980.72 184.96 C 980.86 189.20 981.24 193.38 982.11 197.54 C 986.72 184.59 991.32 171.63 995.54 158.56 C 998.91 150.23 1002.32 141.93 1005.33 133.45 C 1007.02 128.16 1007.79 122.56 1009.07 117.15 C 1011.08 108.60 1012.09 99.91 1012.87 91.17 C 1015.61 85.22 1019.53 80.13 1022.03 74.09 C 1023.14 71.66 1024.06 68.75 1025.83 66.72 C 1027.51 65.05 1030.67 66.71 1031.37 68.64 C 1032.13 71.16 1031.86 74.07 1031.93 76.69 C 1031.85 81.86 1033.05 86.82 1032.88 91.99 C 1032.77 97.78 1031.02 103.79 1031.48 109.57 C 1031.87 114.69 1034.01 119.29 1034.60 124.27 C 1034.92 127.22 1034.50 130.15 1032.49 132.46 C 1028.97 136.54 1023.08 139.35 1019.81 143.80 C 1017.24 147.27 1016.90 151.96 1015.95 156.06 C 1012.70 165.39 1012.06 175.09 1011.48 184.87 C 1010.92 191.64 1009.26 198.34 1007.75 204.95 C 1004.76 216.28 998.62 227.31 994.09 238.11 C 992.22 242.52 991.64 247.22 991.71 251.99 C 991.80 257.13 991.96 262.58 993.24 267.56 C 993.05 274.48 993.48 281.37 994.95 288.15 C 996.79 286.37 998.61 284.58 1000.43 282.79 C 1001.62 285.75 1003.08 288.74 1002.86 292.02 C 1002.62 296.07 1001.62 300.09 1001.02 304.11 C 1004.65 300.13 1006.47 295.77 1012.24 294.64 C 1011.63 299.07 1009.78 302.76 1007.47 306.52 C 1003.93 312.34 1002.72 318.45 1000.77 324.87 C 1000.18 327.07 999.38 329.49 999.47 331.80 C 999.77 334.24 1001.19 336.66 1002.21 338.88 C 1003.15 342.54 1003.95 346.30 1004.24 350.07 C 1004.66 355.40 1001.51 359.47 1001.66 364.78 C 1001.98 372.15 1002.09 379.56 1001.94 386.95 C 1001.37 394.79 999.32 402.78 999.52 410.88 C 999.65 414.85 1000.66 418.80 1001.41 422.71 C 1003.41 433.32 1004.58 444.06 1006.61 454.66 C 1007.25 458.58 1007.90 462.23 1006.08 465.97 C 1003.01 472.17 997.17 477.52 992.90 482.91 C 991.32 484.89 990.66 487.15 989.87 489.52 C 996.37 491.02 1002.78 492.72 1009.19 494.58 C 1006.25 491.53 1003.16 488.63 1000.23 485.58 C 1002.96 485.22 1005.64 484.67 1008.36 485.41 C 1010.61 485.99 1012.24 487.60 1013.96 489.07 C 1015.70 491.66 1017.40 494.29 1019.12 496.90 C 1022.77 502.27 1024.83 509.05 1026.77 515.23 C 1028.35 520.29 1027.94 525.11 1025.96 529.99 C 1024.13 534.43 1023.01 539.05 1021.59 543.62 C 1019.32 550.41 1013.61 554.89 1010.28 561.08 C 1009.07 563.17 1008.17 565.60 1006.63 567.46 C 1004.40 568.58 1001.39 568.86 999.46 570.44 C 997.15 572.42 995.27 574.92 993.06 577.02 C 990.19 579.81 987.00 581.81 983.92 584.34 C 983.37 583.85 982.81 583.37 982.26 582.88 C 983.50 580.94 984.75 578.98 986.10 577.11 C 986.75 576.25 987.39 575.38 988.03 574.52 C 980.14 574.07 973.44 578.47 966.58 575.36 C 970.49 573.21 974.58 571.43 978.50 569.31 C 972.94 566.15 966.80 563.99 961.42 560.56 C 959.18 559.21 958.05 557.14 956.80 554.94 C 962.51 556.87 967.25 560.12 973.37 560.87 C 972.32 556.91 969.34 556.59 966.41 554.46 C 964.41 552.15 964.31 548.10 962.11 545.92 C 957.73 542.76 951.81 541.76 947.39 538.58 C 945.87 537.46 944.55 536.06 943.23 534.71 C 944.08 533.71 944.91 532.70 945.75 531.68 C 944.62 528.59 943.53 525.50 942.50 522.38 C 943.82 522.77 945.15 523.17 946.46 523.61 C 948.67 525.67 950.96 527.54 953.51 529.17 C 954.46 518.33 952.09 509.56 955.65 499.54 C 959.39 501.37 962.24 501.03 966.17 500.04 C 966.23 497.97 966.29 495.90 966.33 493.83 C 966.97 486.59 963.12 481.88 960.16 475.67 C 956.89 469.48 951.28 467.05 945.95 463.09 C 942.02 460.28 939.97 455.70 939.64 450.96 C 939.52 446.67 941.65 442.07 942.61 437.87 C 944.26 431.38 943.23 424.69 943.69 417.98 C 944.16 409.22 947.85 402.10 949.41 393.30 C 950.87 384.94 953.83 377.13 956.48 369.11 C 957.82 366.48 959.17 363.83 960.18 361.05 C 964.86 349.88 959.80 337.85 960.27 326.00 C 960.66 318.74 959.39 311.66 957.13 304.78 C 955.26 299.37 950.62 295.31 949.37 289.67 C 948.64 286.53 949.82 283.11 950.66 280.08 C 952.78 279.22 954.96 278.53 957.06 277.65 C 956.50 271.03 954.69 264.64 954.32 258.01 C 953.71 246.97 952.19 236.72 953.58 225.54 C 954.17 221.19 955.90 217.41 957.15 213.27 C 958.49 208.85 958.15 204.54 958.02 200.00 C 957.68 192.00 958.11 184.02 958.06 176.00 C 958.08 162.80 959.51 149.77 958.42 136.83 C 958.14 123.34 958.22 109.63 956.61 96.22 C 954.59 85.38 950.84 74.87 948.92 64.00 C 948.19 59.85 948.15 55.66 947.60 51.49 C 947.01 47.44 945.16 43.82 943.67 40.04 C 945.49 39.68 947.85 38.61 949.67 39.18 Z" fill="#1e2936" mask="url(#mask)"/>
</svg>
