<?xml version="1.0" encoding="UTF-8" standalone="no"?>
<!DOCTYPE svg PUBLIC "-//W3C//DTD SVG 1.1//EN" "http://www.w3.org/Graphics/SVG/1.1/DTD/svg11.dtd">
<svg viewBox="0 0 1365 768" height="768.0pt" width="1365.0pt" xmlns="http://www.w3.org/2000/svg" version="1.1">
<defs>
<mask id="mask">
<rect width="100%" height="100%" fill="#fff"/>
<path d="M 991.32 389.61 C 990.96 400.10 990.37 410.82 988.35 421.14 C 985.43 418.11 982.28 414.96 981.35 410.71 C 980.72 407.84 981.50 405.18 982.64 402.56 C 984.92 397.73 987.19 393.16 991.32 389.61 Z M 992.87 105.06 C 992.19 112.51 990.69 119.91 989.18 127.23 C 988.11 132.38 986.67 137.40 984.39 142.15 C 983.63 137.79 983.07 133.43 983.25 128.99 C 983.51 120.17 986.75 111.50 992.87 105.06 Z" fill="#000"/>
</mask>
</defs>
<path d="M 959.74 35.15 C 962.81 36.27 965.47 38.91 967.84 41.11 C 970.60 43.89 973.29 46.38 975.07 49.96 C 979.17 57.98 978.69 66.33 982.40 74.55 C 985.81 82.11 990.98 88.69 994.62 96.17 C 996.32 89.85 998.00 83.72 1001.25 77.98 C 1003.26 73.97 1004.57 69.61 1006.77 65.72 C 1007.64 63.92 1010.09 63.46 1011.77 62.67 C 1012.97 65.69 1013.99 68.70 1014.14 71.97 C 1014.50 78.63 1015.14 85.72 1014.16 92.29 C 1013.48 97.42 1012.52 102.22 1013.56 107.39 C 1014.55 112.54 1017.39 117.22 1018.30 122.33 C 1018.70 124.62 1017.61 126.48 1016.13 128.13 C 1012.30 132.28 1006.62 134.56 1003.36 139.37 C 999.64 144.95 999.17 151.39 998.65 157.87 C 997.80 167.59 996.65 177.21 996.91 187.00 C 997.17 193.98 996.29 200.81 995.30 207.70 C 993.66 211.91 992.11 216.15 990.53 220.39 C 988.70 225.35 986.29 229.50 986.28 234.95 C 986.20 242.27 988.02 249.77 989.32 256.96 C 990.34 261.66 991.01 266.46 992.22 271.11 C 992.95 273.95 995.19 275.82 996.50 278.35 C 997.08 281.44 996.74 284.67 997.36 287.78 C 998.31 292.60 999.79 297.31 1000.77 302.13 C 1002.74 310.29 1003.88 318.34 1006.74 326.27 C 1009.49 333.93 1011.29 341.92 1012.22 350.00 C 1012.82 355.06 1011.54 359.61 1010.73 364.52 C 1010.09 368.27 1011.25 371.37 1012.02 374.96 C 1012.76 384.47 1011.72 394.41 1011.76 404.00 C 1011.81 410.87 1010.98 417.58 1011.46 424.44 C 1011.98 432.77 1012.16 441.12 1012.49 449.46 C 1012.51 455.24 1012.93 461.67 1011.18 467.22 C 1009.42 472.37 1003.07 475.58 999.35 479.37 C 996.82 481.60 995.66 484.49 994.58 487.60 C 1000.63 489.91 1006.73 492.06 1012.88 494.07 C 1011.85 492.76 1010.79 491.47 1009.77 490.16 C 1009.66 488.94 1009.55 487.73 1009.43 486.52 C 1016.15 488.70 1020.84 493.60 1024.75 499.28 C 1031.12 509.48 1032.37 522.78 1027.95 533.98 C 1025.64 539.93 1023.74 546.82 1019.91 551.91 C 1017.80 554.79 1015.60 557.60 1013.45 560.45 C 1009.72 565.61 1004.01 568.65 999.13 573.11 C 994.72 577.06 989.79 579.48 984.14 581.12 C 986.05 578.72 987.75 576.38 988.42 573.32 C 982.72 573.39 977.85 574.89 972.33 572.59 C 974.86 571.25 977.43 570.00 980.02 568.78 C 979.92 568.11 979.83 567.44 979.73 566.77 C 973.47 565.11 967.55 562.52 962.31 558.66 C 960.15 557.11 959.61 554.56 958.65 552.21 C 963.43 554.30 967.98 556.70 973.06 558.04 C 970.84 554.56 967.92 551.85 964.78 549.22 C 961.14 546.18 958.35 542.30 954.75 539.24 C 951.91 536.79 947.72 536.52 944.16 535.79 C 943.49 535.12 942.82 534.46 942.17 533.78 C 944.82 533.24 947.49 532.74 950.16 532.27 C 948.51 528.03 946.67 523.89 945.16 519.61 C 948.68 522.83 952.16 525.70 956.78 527.20 C 957.20 519.87 953.92 513.20 954.57 505.98 C 954.76 502.92 956.28 500.61 957.84 498.09 C 958.71 500.25 959.60 502.40 960.39 504.59 C 961.62 502.30 962.87 500.03 964.14 497.76 C 964.96 499.92 965.84 502.05 966.70 504.19 C 969.35 498.93 970.12 492.65 970.44 486.82 C 970.68 484.57 968.38 482.55 967.10 480.91 C 962.45 475.82 959.23 470.54 953.51 466.56 C 950.20 464.10 945.68 462.04 943.21 458.72 C 940.72 455.07 939.80 449.91 941.71 445.81 C 943.40 441.80 945.72 438.64 945.73 434.08 C 945.78 424.49 947.07 415.23 949.78 406.03 C 952.19 398.21 953.44 390.15 956.07 382.40 C 957.72 377.60 958.77 372.70 959.75 367.74 C 962.00 360.95 965.17 355.47 964.21 348.03 C 962.99 337.30 962.51 326.53 961.56 315.77 C 961.34 302.52 961.47 289.25 961.44 275.99 C 961.84 265.17 962.16 254.44 961.09 243.64 C 960.35 236.75 960.21 229.85 961.14 222.96 C 961.81 217.93 963.37 213.19 963.57 208.07 C 963.86 200.68 964.72 193.40 964.60 186.00 C 964.52 181.13 964.71 176.36 965.22 171.52 C 965.87 165.13 965.69 158.80 965.81 152.40 L 965.85 151.68 C 967.00 146.46 967.15 141.32 966.91 136.00 C 966.53 127.88 967.93 119.94 967.23 111.86 C 966.64 104.56 965.66 97.30 965.29 89.98 C 965.07 85.21 964.19 80.72 962.75 76.17 C 959.78 66.44 958.04 56.52 956.73 46.45 C 956.35 43.34 955.14 39.83 955.66 36.71 C 956.09 34.55 958.05 34.93 959.74 35.15 Z" fill="#1e2936" mask="url(#mask)"/>
</svg>
