<?xml version="1.0" encoding="UTF-8" standalone="no"?>
<!DOCTYPE svg PUBLIC "-//W3C//DTD SVG 1.1//EN" "http://www.w3.org/Graphics/SVG/1.1/DTD/svg11.dtd">
<svg viewBox="0 0 1365 768" height="768.0pt" width="1365.0pt" xmlns="http://www.w3.org/2000/svg" version="1.1">
<defs>
<mask id="mask">
<rect width="100%" height="100%" fill="#fff"/>
<path d="M 1011.52 377.56 C 1013.86 389.76 1011.98 401.67 1008.21 413.35 C 1006.22 420.16 1004.92 427.12 1002.70 433.87 C 999.58 428.55 995.80 423.69 992.48 418.51 C 990.59 415.28 988.33 411.61 989.45 407.72 C 990.62 403.32 992.85 399.15 995.18 395.26 C 998.75 389.35 1004.77 384.78 1009.51 379.57 C 1010.17 378.89 1010.84 378.22 1011.52 377.56 Z M 961.23 316.07 C 962.44 316.16 963.16 316.68 963.37 317.66 C 964.21 319.96 964.41 322.59 964.73 325.02 C 965.31 330.42 966.46 335.70 966.68 341.15 C 965.21 338.04 964.21 334.92 963.54 331.55 C 962.50 326.35 961.11 321.36 961.23 316.07 Z M 972.49 220.80 C 973.80 223.89 973.21 226.76 973.02 229.99 C 972.67 234.01 972.64 238.02 972.55 242.05 C 971.44 239.41 970.04 236.45 969.85 233.58 C 969.70 229.25 970.91 224.79 972.49 220.80 Z M 978.86 137.67 C 979.95 146.55 979.12 155.18 978.14 164.01 C 977.22 171.94 977.09 179.57 975.47 187.38 C 974.54 184.80 973.75 182.20 973.48 179.45 C 972.76 171.57 972.65 163.75 974.02 155.93 C 975.22 149.52 975.67 143.50 978.86 137.67 Z" fill="#000"/>
</mask>
</defs>
<path d="M 974.17 30.46 C 975.74 30.44 977.31 30.49 978.88 30.43 C 982.60 33.75 987.33 36.73 990.27 40.74 C 993.19 44.75 993.55 50.10 994.33 54.84 C 995.58 63.53 998.09 71.98 1002.38 79.67 C 1004.40 83.53 1007.47 87.71 1008.20 92.02 C 1008.88 96.43 1006.96 100.23 1005.06 104.03 C 1000.76 112.28 997.79 121.31 996.59 130.54 C 995.60 138.35 997.53 145.14 998.28 152.92 C 998.83 158.36 999.67 163.65 1000.88 168.98 C 1002.64 180.78 1003.56 193.00 1002.09 204.88 C 1001.04 215.49 998.30 225.20 998.37 236.01 C 998.37 245.64 1001.97 255.20 1003.56 264.79 C 1004.60 270.19 1004.95 275.73 1006.18 281.08 C 1006.83 283.98 1008.55 286.06 1010.33 288.34 C 1011.56 283.32 1011.76 278.19 1013.37 273.23 C 1015.93 277.67 1016.46 282.43 1017.23 287.39 C 1018.90 283.68 1020.42 279.91 1022.16 276.23 C 1024.63 284.49 1021.77 291.29 1022.24 300.05 C 1022.61 307.70 1023.88 315.29 1024.30 322.96 C 1025.01 330.17 1027.08 337.13 1027.60 344.39 C 1028.02 349.81 1028.62 355.15 1029.36 360.54 C 1030.16 366.44 1029.18 372.27 1029.90 378.16 C 1030.52 383.43 1031.60 388.26 1030.72 393.62 C 1029.29 402.13 1026.75 410.31 1025.94 419.00 C 1025.45 424.27 1024.84 429.51 1023.84 434.71 C 1022.02 444.52 1021.53 454.27 1019.13 464.07 C 1018.55 466.33 1017.79 468.43 1015.99 470.02 C 1011.94 473.74 1006.43 476.53 1002.60 480.61 C 1000.93 482.42 999.94 484.55 998.82 486.72 C 1005.09 489.42 1010.93 492.87 1016.97 496.01 C 1015.98 494.67 1015.00 493.34 1014.00 492.01 C 1013.60 490.63 1013.26 489.24 1012.92 487.84 C 1019.16 490.49 1023.51 495.19 1027.59 500.43 C 1031.50 506.12 1033.40 513.35 1034.09 520.15 C 1034.64 525.25 1032.35 528.87 1030.75 533.44 C 1028.75 539.02 1029.05 544.91 1025.78 549.77 C 1016.72 562.61 1002.97 572.73 987.24 575.28 C 984.70 575.82 983.19 574.12 981.06 573.06 C 977.06 570.61 972.77 570.92 969.61 567.02 C 973.91 567.01 977.29 566.39 981.31 564.79 C 975.17 560.01 968.14 557.30 961.36 553.66 C 958.80 552.37 957.20 550.31 955.67 547.97 C 960.18 548.84 964.55 550.09 969.14 550.51 C 964.97 547.47 960.80 544.51 957.10 540.89 C 953.80 537.71 949.85 536.15 945.74 534.34 C 947.36 533.44 948.98 532.54 950.60 531.64 C 949.66 527.51 948.86 523.35 948.09 519.19 C 951.29 521.49 954.60 523.54 958.15 525.26 C 958.43 517.86 955.25 511.27 955.07 503.99 C 954.98 501.77 956.35 499.74 957.32 497.81 C 959.02 499.84 960.70 501.89 962.39 503.93 C 963.42 501.68 964.45 499.42 965.49 497.16 C 966.40 499.14 967.33 501.11 968.26 503.07 C 970.02 501.26 972.28 499.40 972.94 496.87 C 973.81 493.53 974.28 489.61 972.49 486.47 C 970.79 483.36 968.67 480.30 966.25 477.70 C 963.60 474.91 959.79 473.58 957.07 471.01 C 955.03 468.52 954.12 464.86 951.59 462.46 C 949.56 460.37 946.59 458.38 945.33 455.73 C 944.16 453.04 943.95 449.81 943.79 446.90 C 945.23 442.09 949.06 437.80 950.08 432.94 C 951.05 427.50 949.66 421.21 950.96 415.78 C 951.96 411.72 953.81 407.84 955.12 403.87 C 957.13 398.20 957.84 392.55 958.63 386.61 C 959.04 383.58 958.95 380.81 958.36 377.81 C 957.01 369.90 953.34 362.86 952.98 355.01 C 952.56 347.05 952.10 339.10 951.48 331.15 C 950.98 324.65 949.06 318.54 948.70 312.04 C 948.37 306.67 948.96 301.53 949.30 296.20 C 949.73 291.17 950.71 286.49 953.11 282.02 C 955.06 278.74 953.23 274.88 952.56 271.46 C 950.27 263.41 950.26 255.14 948.34 247.04 C 947.03 240.53 944.46 234.46 944.46 227.99 C 944.38 222.73 945.73 218.09 946.86 213.04 C 948.15 207.98 949.72 202.95 950.73 197.83 C 951.73 192.82 951.46 188.05 951.76 183.00 C 952.02 178.41 952.50 173.82 953.18 169.28 C 954.13 162.53 956.65 156.23 957.37 149.43 C 958.10 142.24 960.13 135.32 961.12 128.17 C 962.63 117.54 964.65 107.00 966.21 96.38 C 967.67 86.28 972.56 78.18 976.26 69.07 C 976.98 66.00 976.83 62.92 976.49 59.82 C 975.80 53.56 975.34 47.38 973.77 41.26 C 973.07 37.28 971.21 33.98 974.17 30.46 Z" fill="#1e2936" mask="url(#mask)"/>
</svg>
