<?xml version="1.0" encoding="UTF-8" standalone="no"?>
<!DOCTYPE svg PUBLIC "-//W3C//DTD SVG 1.1//EN" "http://www.w3.org/Graphics/SVG/1.1/DTD/svg11.dtd">
<svg viewBox="0 0 1365 768" height="768.0pt" width="1365.0pt" xmlns="http://www.w3.org/2000/svg" version="1.1">
<defs>
<mask id="mask">
<rect width="100%" height="100%" fill="#fff"/>
<path d="M 1020.12 363.59 C 1020.51 367.80 1020.07 371.78 1019.19 375.89 C 1018.20 380.62 1018.53 385.27 1018.34 390.05 C 1018.13 395.89 1015.67 401.20 1014.51 407.19 C 1012.46 416.40 1011.05 426.89 1006.51 435.19 C 1002.26 430.73 1000.21 425.29 996.71 420.33 C 994.57 417.08 991.91 413.59 991.45 409.62 C 990.94 405.57 992.40 401.93 994.61 398.62 C 999.21 391.87 1005.53 385.93 1010.67 379.64 C 1014.89 374.68 1015.34 368.24 1020.12 363.59 Z M 952.15 309.64 C 954.81 314.67 955.79 320.28 957.34 325.81 C 959.43 333.26 961.05 340.82 962.93 348.32 C 963.79 351.84 964.89 355.46 965.25 359.07 C 965.58 361.81 964.31 364.08 963.32 366.54 C 960.51 361.28 959.05 355.62 956.87 350.12 C 953.59 342.04 950.73 333.69 948.85 325.18 C 947.60 319.59 949.08 314.35 952.15 309.64 Z" fill="#000"/>
</mask>
</defs>
<path d="M 999.46 31.64 C 1002.35 32.78 1005.05 34.51 1007.67 36.17 C 1011.35 39.24 1014.41 42.72 1015.44 47.55 C 1017.62 55.78 1015.51 63.93 1017.89 72.03 C 1020.25 82.00 1025.40 89.31 1024.13 100.03 C 1019.69 109.19 1015.18 117.75 1014.18 128.12 C 1013.40 138.14 1012.67 148.39 1013.65 158.42 C 1014.91 173.62 1014.92 188.85 1013.10 204.01 C 1011.13 216.32 1007.77 228.15 1008.07 241.04 C 1008.18 245.22 1009.16 249.15 1010.03 253.20 C 1011.52 261.74 1012.92 270.29 1014.26 278.86 C 1014.77 282.31 1015.83 285.59 1017.15 288.82 C 1018.17 288.68 1019.19 288.55 1020.21 288.41 C 1020.91 283.33 1020.93 277.69 1022.77 272.87 C 1024.03 269.02 1030.79 270.21 1030.95 274.18 C 1031.78 279.88 1031.75 285.57 1033.40 291.16 C 1036.51 286.12 1036.08 281.02 1036.54 275.40 C 1037.51 276.12 1038.48 276.84 1039.45 277.56 C 1040.98 279.11 1042.57 280.68 1043.81 282.49 C 1044.71 284.40 1044.33 286.98 1044.26 289.04 C 1043.67 297.43 1040.40 304.98 1039.50 313.28 C 1039.00 317.82 1038.62 322.42 1038.38 326.99 C 1037.98 334.10 1038.97 341.14 1038.40 348.26 C 1037.70 356.86 1038.96 365.38 1038.35 373.98 C 1037.73 382.86 1037.95 391.16 1035.47 399.38 C 1032.38 409.50 1030.54 419.83 1028.23 430.15 C 1026.96 437.72 1025.65 445.26 1024.23 452.79 L 1024.11 453.57 C 1023.18 458.24 1022.70 463.38 1020.78 467.77 C 1019.50 470.67 1016.92 471.88 1014.29 473.34 C 1009.64 475.74 1004.10 478.67 1000.95 482.98 C 1000.09 484.05 999.78 485.93 1000.99 486.85 C 1004.28 489.65 1009.01 491.15 1012.76 493.34 C 1016.38 495.37 1019.37 498.73 1022.27 501.68 C 1020.95 498.42 1019.64 495.25 1019.02 491.77 C 1022.34 492.48 1023.98 494.81 1026.17 497.13 C 1025.96 494.94 1025.83 492.75 1025.76 490.55 C 1026.89 492.70 1027.94 494.87 1028.93 497.08 C 1028.60 497.86 1028.27 498.65 1027.94 499.43 C 1030.22 502.25 1032.11 505.07 1032.54 508.78 C 1033.58 515.97 1034.19 524.38 1031.31 531.21 C 1028.63 537.82 1025.18 544.09 1020.68 549.64 C 1017.27 553.84 1014.29 558.68 1010.33 562.36 C 1006.30 566.14 999.99 567.18 994.85 568.95 C 989.61 570.49 984.95 572.82 979.51 570.53 C 973.96 568.03 967.52 565.29 963.48 560.62 C 964.24 560.01 964.99 559.40 965.75 558.79 C 968.45 559.59 971.13 560.43 973.86 561.14 C 970.08 557.61 966.20 554.13 962.07 551.02 C 957.47 547.54 952.26 546.87 948.60 542.08 C 951.14 542.06 953.68 542.10 956.21 542.16 C 954.66 539.07 953.30 535.74 950.57 533.47 C 947.97 531.31 945.08 529.49 942.37 527.45 C 944.38 526.96 946.39 526.51 948.41 526.09 C 947.94 521.09 947.79 516.10 947.85 511.07 C 949.68 513.14 951.55 515.18 953.46 517.17 C 953.95 510.67 954.54 504.20 955.67 497.78 C 956.57 497.03 957.47 496.27 958.37 495.52 C 960.09 498.76 961.78 502.01 963.64 505.17 C 965.26 500.94 964.36 496.14 964.38 491.61 C 966.28 493.78 968.08 496.03 969.87 498.29 C 972.55 494.21 972.48 489.18 969.91 485.07 C 967.18 480.92 963.45 477.41 959.11 474.98 C 957.15 473.76 954.70 472.64 953.21 470.84 C 951.19 466.90 950.91 462.56 948.11 458.90 C 945.39 455.30 944.04 452.48 943.40 447.95 C 945.23 444.63 947.42 441.39 948.96 437.93 C 950.31 434.93 950.33 431.67 950.65 428.45 C 950.95 424.98 951.67 421.61 952.35 418.20 C 953.54 412.26 953.53 406.02 954.06 399.94 C 954.67 393.34 952.08 388.12 949.96 382.08 C 947.60 375.48 944.56 369.86 943.12 362.99 C 941.21 353.90 939.67 344.75 938.61 335.51 C 938.05 330.51 936.49 325.84 934.90 321.10 C 932.73 314.59 933.84 308.70 933.40 302.02 C 933.21 298.04 932.37 293.91 932.62 289.95 C 932.59 288.05 934.43 287.09 935.59 285.85 C 938.32 283.48 939.54 280.47 941.48 277.46 C 942.53 275.67 943.95 273.87 944.54 271.87 C 944.71 268.92 943.74 265.81 943.11 262.94 C 941.50 256.68 940.51 250.30 938.76 244.07 C 937.75 240.37 936.74 236.90 936.89 233.00 C 937.08 228.15 938.12 223.31 938.52 218.45 C 938.89 213.98 939.03 209.49 939.14 205.00 C 939.37 196.94 938.08 189.02 938.67 180.95 C 939.20 173.38 939.26 165.81 939.41 158.22 C 941.49 149.05 941.56 139.69 943.50 130.51 C 944.70 124.48 944.57 118.41 945.44 112.32 C 946.87 101.82 944.75 91.85 947.31 81.28 C 948.40 76.36 951.00 72.51 953.22 68.11 C 955.40 64.31 956.49 58.50 960.12 55.91 C 961.84 56.25 962.84 56.80 963.41 58.55 C 964.93 63.40 965.32 68.62 966.38 73.60 C 968.03 81.43 966.25 88.46 966.26 96.29 C 965.95 103.91 970.42 110.09 969.32 118.02 C 968.80 123.71 965.27 126.80 962.18 131.15 C 959.69 134.50 958.94 138.33 958.51 142.40 C 957.32 154.82 959.07 167.14 961.96 179.21 C 964.69 191.92 964.80 204.88 962.67 217.70 C 961.57 224.28 959.78 230.89 961.62 237.52 C 963.72 245.12 968.48 252.31 971.30 259.74 C 974.95 269.79 977.91 280.13 981.77 290.10 C 982.89 284.61 982.65 279.20 983.10 273.65 C 983.76 265.46 983.69 257.20 983.71 248.99 C 983.73 241.84 982.22 235.52 983.38 228.38 C 984.35 222.34 985.70 216.39 986.22 210.27 C 987.16 204.29 987.96 198.33 988.37 192.28 C 989.30 181.41 990.68 170.55 992.80 159.85 C 993.98 153.41 994.18 146.86 995.52 140.44 C 997.58 130.24 998.30 119.59 999.25 109.22 C 1000.86 99.12 998.46 90.11 997.91 80.05 C 997.39 71.02 996.32 62.03 996.06 52.99 C 995.90 45.90 994.19 39.02 994.02 31.93 C 995.70 31.73 997.83 31.01 999.46 31.64 Z" fill="#1e2936" mask="url(#mask)"/>
</svg>
