<?xml version="1.0" encoding="UTF-8" standalone="no"?>
<!DOCTYPE svg PUBLIC "-//W3C//DTD SVG 1.1//EN" "http://www.w3.org/Graphics/SVG/1.1/DTD/svg11.dtd">
<svg viewBox="0 0 1365 768" height="768.0pt" width="1365.0pt" xmlns="http://www.w3.org/2000/svg" version="1.1">
<defs>
<mask id="mask">
<rect width="100%" height="100%" fill="#fff"/>
<path d="M 945.85 301.92 C 948.18 307.84 948.92 313.75 950.25 319.93 C 951.96 329.27 954.33 338.43 956.44 347.67 C 957.29 354.19 959.20 360.72 959.17 367.30 C 955.83 363.36 955.00 358.92 952.62 354.35 C 949.34 348.03 947.72 341.29 945.44 334.59 C 944.22 330.85 942.64 327.16 941.73 323.33 C 940.98 320.23 941.67 317.44 942.40 314.42 C 943.47 310.19 944.37 306.03 945.85 301.92 Z" fill="#000"/>
</mask>
</defs>
<path d="M 1012.10 36.83 C 1015.93 36.05 1018.12 38.99 1021.02 40.91 C 1024.37 43.52 1028.79 45.33 1030.48 49.50 C 1032.13 53.49 1032.01 58.38 1032.09 62.64 C 1031.98 68.28 1030.82 73.19 1032.19 78.78 C 1034.60 88.22 1036.11 99.74 1031.85 108.88 C 1029.43 114.42 1027.85 120.16 1025.88 125.88 C 1023.51 132.63 1023.86 139.82 1023.39 147.04 C 1022.61 161.44 1023.97 174.84 1022.06 188.97 C 1020.90 197.32 1019.99 205.82 1017.98 214.02 C 1015.96 221.66 1014.54 229.43 1013.40 237.25 C 1011.93 248.26 1013.90 259.07 1014.21 270.03 C 1014.34 276.10 1015.60 281.96 1016.13 287.98 C 1016.43 291.46 1017.16 294.85 1017.91 298.25 C 1019.51 311.14 1020.14 324.07 1021.35 336.98 C 1021.82 342.96 1019.79 349.27 1018.32 355.07 C 1016.60 361.77 1013.34 367.21 1010.54 373.51 C 1006.34 382.92 998.40 391.06 992.99 399.92 C 991.22 403.00 990.12 406.44 991.04 409.98 C 992.16 414.37 995.38 418.47 997.87 422.20 C 1000.99 426.66 1003.30 431.50 1006.15 436.12 C 1009.42 429.37 1010.65 422.28 1012.79 414.81 C 1014.78 406.96 1017.65 399.78 1018.74 391.93 C 1019.58 386.12 1020.49 380.32 1021.54 374.54 C 1023.23 365.41 1024.27 356.17 1025.89 347.01 C 1026.68 341.83 1028.18 336.70 1027.47 331.46 C 1026.90 326.95 1025.83 322.57 1025.56 318.01 C 1025.22 313.77 1025.73 309.53 1025.42 305.29 C 1025.11 300.87 1023.12 297.34 1023.97 292.84 C 1027.36 293.54 1028.32 296.07 1030.44 298.39 L 1031.27 298.10 C 1032.76 291.36 1032.49 284.51 1035.04 277.80 C 1035.90 277.75 1036.77 277.69 1037.64 277.64 C 1038.40 278.61 1039.13 279.59 1039.89 280.55 C 1040.91 279.78 1041.93 279.01 1042.96 278.25 C 1043.55 278.55 1044.15 278.84 1044.74 279.14 C 1045.11 280.99 1045.44 282.84 1045.82 284.69 C 1047.30 283.63 1048.91 282.88 1050.51 282.04 C 1051.99 284.98 1053.68 287.70 1053.88 291.07 C 1054.04 294.31 1053.49 297.61 1052.76 300.75 C 1051.37 306.78 1047.20 311.34 1045.25 317.32 C 1042.62 324.02 1042.26 330.91 1042.06 338.02 C 1040.48 356.42 1041.24 374.52 1036.61 392.64 C 1034.09 401.35 1032.43 410.26 1029.98 418.99 C 1028.18 425.49 1027.53 432.05 1026.65 438.72 C 1025.82 445.38 1024.49 451.96 1023.54 458.61 C 1022.88 462.51 1022.05 467.36 1019.43 470.46 C 1017.13 472.89 1013.05 473.74 1010.09 475.20 C 1006.63 476.62 1003.89 478.93 1001.08 481.33 C 1001.76 483.58 1002.67 485.33 1004.01 487.27 C 1006.93 485.18 1009.61 483.01 1013.13 482.00 C 1012.11 486.03 1010.10 488.96 1010.19 493.08 C 1016.40 493.96 1019.07 498.30 1023.31 502.28 C 1023.13 500.09 1023.06 497.90 1022.89 495.71 C 1024.91 495.99 1028.42 495.20 1029.31 497.60 C 1032.10 502.67 1032.67 509.26 1032.89 514.98 C 1033.50 523.39 1029.61 531.98 1024.49 538.46 C 1020.37 543.71 1016.68 549.25 1012.37 554.35 C 1009.67 557.52 1007.38 561.52 1004.11 564.10 C 1001.16 566.56 996.65 565.92 993.01 566.40 C 987.78 566.79 983.62 569.71 978.48 568.49 C 970.71 566.73 963.38 562.86 957.57 557.41 C 956.18 556.14 955.60 554.54 954.83 552.87 C 959.52 553.92 963.33 556.56 967.82 558.13 C 965.71 554.74 962.99 552.12 959.80 549.74 C 955.98 546.97 952.66 542.95 947.93 542.17 C 945.74 541.66 943.66 541.02 941.58 540.18 C 944.69 539.15 947.87 538.42 951.07 537.74 C 947.69 532.41 942.25 528.24 940.39 522.46 C 939.90 521.04 940.37 519.86 940.57 518.44 C 942.74 520.13 944.83 521.92 946.89 523.74 C 947.02 517.98 946.99 512.21 947.04 506.45 C 949.27 508.34 951.10 510.53 952.78 512.91 C 954.60 506.05 955.14 499.74 960.15 494.24 C 961.51 496.69 962.34 499.30 963.08 502.00 C 966.47 498.04 959.38 492.63 961.76 488.22 C 964.51 490.42 966.50 493.17 968.39 496.10 C 968.58 492.85 969.23 488.85 968.00 485.78 C 966.37 482.74 963.63 480.20 961.08 477.91 C 957.61 474.84 952.59 473.78 949.47 470.52 C 947.12 468.14 947.15 464.28 946.34 461.17 C 945.70 458.14 943.80 455.77 942.96 452.91 C 943.22 449.61 944.95 446.36 945.82 443.17 C 948.27 434.68 947.04 427.00 948.09 418.35 C 948.87 411.87 948.52 405.49 948.67 398.99 C 948.67 395.96 948.80 393.00 947.69 390.13 C 946.33 386.59 944.41 383.30 943.12 379.72 C 938.59 366.94 936.00 353.85 933.16 340.63 C 932.53 337.46 932.10 334.27 931.61 331.07 C 930.46 322.70 927.22 314.87 926.10 306.47 C 925.37 300.84 923.80 294.78 924.34 289.13 C 926.30 284.98 928.33 281.09 929.43 276.58 C 930.33 276.20 931.23 275.81 932.13 275.43 C 931.86 280.69 930.57 285.23 932.54 290.25 C 934.48 285.33 935.82 280.47 939.36 276.36 C 942.78 272.92 939.93 268.71 939.25 264.71 C 938.34 259.89 937.97 255.03 937.47 250.16 C 937.03 245.71 935.72 241.49 935.44 237.05 C 934.76 227.25 937.21 217.82 936.27 207.98 C 935.50 200.67 935.12 192.98 933.21 185.93 C 932.23 179.16 932.52 172.12 932.10 165.24 C 931.73 155.42 933.77 145.81 933.41 136.00 C 933.27 130.07 933.96 124.17 933.85 118.25 C 933.85 106.16 931.99 94.07 931.99 81.97 C 932.08 76.41 934.45 71.87 937.16 67.20 C 939.54 63.19 940.54 58.65 942.61 54.54 C 943.50 52.67 945.80 52.25 947.67 52.36 C 950.02 53.57 950.04 57.29 950.59 59.57 C 951.39 65.74 953.92 70.96 953.73 76.97 C 953.70 82.32 952.40 87.61 952.46 92.93 C 952.59 99.77 956.61 106.39 956.82 113.04 C 956.86 119.79 952.33 126.79 951.46 133.12 C 950.29 145.89 952.74 157.80 955.96 170.06 C 958.23 178.24 958.77 186.57 958.80 195.02 C 958.84 202.39 957.39 209.58 957.29 216.96 C 957.24 223.32 956.52 229.09 958.67 235.23 C 960.22 240.53 961.83 245.78 964.15 250.80 C 967.24 257.54 968.95 264.60 971.56 271.50 C 973.29 276.12 975.24 280.62 976.73 285.33 C 978.87 291.74 980.17 298.03 983.02 304.18 C 984.21 297.73 983.92 291.39 984.62 284.88 C 985.28 278.68 985.55 272.45 986.05 266.23 C 988.64 256.39 987.24 246.68 988.54 236.71 C 989.36 228.92 991.57 221.49 992.74 213.74 C 993.91 207.22 994.31 200.64 994.99 194.07 C 995.77 186.63 997.90 179.88 999.77 172.69 C 1001.80 165.13 1002.87 157.39 1004.75 149.79 C 1006.79 141.38 1008.35 132.90 1009.04 124.27 C 1010.76 116.76 1012.44 108.77 1011.87 101.03 C 1011.33 93.71 1009.97 86.46 1009.39 79.15 C 1009.93 75.11 1010.35 71.09 1010.21 67.00 C 1009.98 60.48 1010.63 53.81 1009.45 47.55 C 1009.09 45.42 1008.59 43.23 1008.51 41.07 C 1008.42 38.99 1009.89 36.90 1012.10 36.83 Z" fill="#1e2936" mask="url(#mask)"/>
</svg>
