<?xml version="1.0" encoding="UTF-8" standalone="no"?>
<!DOCTYPE svg PUBLIC "-//W3C//DTD SVG 1.1//EN" "http://www.w3.org/Graphics/SVG/1.1/DTD/svg11.dtd">
<svg viewBox="0 0 1365 768" height="768.0pt" width="1365.0pt" xmlns="http://www.w3.org/2000/svg" version="1.1">
<defs>
<mask id="mask">
<rect width="100%" height="100%" fill="#fff"/>
<path d="M 939.73 296.60 C 941.06 300.46 941.84 304.42 942.61 308.42 C 943.81 314.66 945.86 320.65 947.15 326.88 C 950.40 341.74 954.53 357.68 953.89 372.93 C 950.52 366.50 948.86 359.62 946.09 352.95 C 942.76 344.95 940.29 336.51 937.84 328.20 C 936.39 323.27 935.72 318.28 936.23 313.14 C 936.83 307.33 936.91 301.82 939.73 296.60 Z" fill="#000"/>
</mask>
</defs>
<path d="M 1034.53 48.46 C 1038.68 52.47 1044.50 56.87 1044.91 63.07 C 1045.64 71.74 1043.95 80.95 1043.44 89.61 C 1043.12 95.51 1044.10 100.76 1042.48 106.59 C 1041.11 111.33 1039.64 116.00 1038.69 120.86 C 1037.47 127.09 1033.70 131.77 1033.03 138.14 C 1032.18 146.40 1031.83 154.74 1031.83 163.04 C 1031.84 170.24 1029.62 176.89 1029.21 184.05 C 1028.81 190.36 1028.47 196.54 1026.54 202.62 C 1025.10 207.02 1024.35 211.40 1023.87 215.99 C 1020.93 226.69 1018.99 237.97 1017.74 248.99 C 1017.37 262.05 1017.47 275.19 1018.01 288.24 C 1017.55 293.82 1017.51 299.41 1017.60 305.00 C 1017.71 312.33 1017.20 319.46 1018.08 326.77 C 1018.53 330.66 1018.60 334.47 1018.22 338.37 C 1017.52 345.06 1017.96 351.14 1015.26 357.46 C 1012.23 364.58 1010.85 371.28 1006.65 377.71 C 1002.50 384.05 999.36 390.93 995.10 397.21 C 993.14 400.37 990.67 403.91 991.05 407.81 C 991.51 413.19 994.16 418.51 996.91 423.08 C 999.76 427.80 1002.29 432.69 1005.28 437.33 C 1007.73 430.76 1009.20 423.82 1011.17 417.07 C 1013.19 408.61 1015.83 400.95 1016.66 392.34 C 1017.32 385.86 1018.19 379.46 1020.27 373.26 C 1020.51 372.51 1020.73 371.76 1020.96 371.00 C 1023.52 363.98 1024.62 356.66 1026.73 349.51 C 1028.08 344.53 1029.82 339.58 1030.78 334.51 C 1031.85 328.80 1030.14 323.00 1030.26 316.97 C 1030.23 311.79 1031.78 307.12 1032.22 302.02 C 1032.50 298.95 1032.47 295.78 1032.50 292.70 C 1034.34 293.06 1036.40 292.71 1037.45 294.60 C 1038.78 297.16 1039.24 300.26 1039.97 303.04 C 1041.28 300.62 1042.46 298.15 1043.37 295.55 C 1045.37 289.79 1047.88 284.23 1049.72 278.40 C 1050.46 278.31 1051.20 278.23 1051.94 278.15 C 1052.51 280.69 1052.96 283.26 1053.36 285.83 C 1054.87 283.79 1056.45 281.80 1058.09 279.86 C 1059.44 281.02 1061.34 282.15 1062.17 283.76 C 1062.76 285.86 1061.92 288.44 1061.51 290.52 C 1060.50 294.43 1059.97 298.44 1059.10 302.38 C 1058.22 306.26 1055.81 309.41 1053.78 312.75 C 1051.36 316.58 1049.39 320.63 1047.80 324.88 C 1046.96 327.11 1046.46 329.51 1046.06 331.86 C 1043.80 346.71 1043.03 361.66 1040.59 376.49 C 1038.64 387.37 1033.01 396.46 1031.47 407.42 C 1029.77 419.03 1026.50 430.37 1025.86 442.00 C 1025.58 446.33 1024.86 450.58 1024.02 454.83 C 1022.99 459.62 1022.64 465.52 1019.39 469.38 C 1016.91 472.51 1013.26 473.86 1009.63 475.20 C 1005.56 476.18 1001.16 478.11 999.21 482.07 C 999.58 485.17 1001.16 488.25 1002.36 491.11 C 1006.28 488.02 1009.14 484.59 1014.37 483.78 C 1012.94 487.59 1010.94 491.08 1009.01 494.65 C 1012.35 497.73 1015.61 500.71 1018.16 504.50 C 1019.68 507.49 1021.19 510.46 1023.03 513.26 C 1023.66 511.59 1024.54 509.82 1024.70 508.03 C 1024.47 504.93 1023.19 501.85 1022.32 498.88 C 1024.35 501.70 1026.31 504.25 1027.19 507.68 C 1028.20 511.85 1028.52 516.21 1028.65 520.48 C 1029.05 526.25 1024.85 532.18 1021.60 536.64 C 1015.66 543.71 1009.52 550.58 1004.03 558.02 C 1001.56 561.22 998.65 565.40 994.56 566.53 C 991.75 567.13 988.47 565.84 985.65 565.48 C 981.86 564.78 978.06 566.33 974.47 566.09 C 972.94 565.67 971.51 564.69 970.18 563.86 C 965.52 560.71 960.85 558.28 957.49 553.59 C 957.94 552.31 959.56 550.44 958.84 549.07 C 956.83 544.46 952.76 541.52 948.07 539.98 C 945.01 538.97 941.77 538.46 938.64 537.69 C 941.19 536.34 943.77 535.44 946.58 534.80 C 942.84 529.94 939.10 524.36 937.30 518.47 C 936.69 516.63 937.26 515.05 937.52 513.21 C 941.23 517.51 943.88 522.40 948.21 526.18 C 947.76 519.81 947.99 513.42 948.81 507.08 C 949.14 504.68 950.16 502.60 951.18 500.43 C 951.84 502.55 952.35 504.70 952.92 506.85 C 953.32 506.57 953.72 506.29 954.12 506.01 C 954.27 500.58 954.42 495.76 957.91 491.24 C 959.17 494.56 960.36 497.88 961.97 501.04 C 962.86 495.69 960.44 491.81 958.94 486.88 C 961.96 488.85 964.92 490.92 967.96 492.86 C 967.23 489.74 966.81 486.88 964.50 484.47 C 959.26 478.95 952.66 475.31 946.86 471.15 C 943.74 468.92 942.22 465.72 941.88 461.95 C 940.91 450.43 942.67 438.63 942.85 426.97 C 944.03 417.32 943.27 407.75 943.47 398.07 C 943.53 394.08 942.14 390.45 940.00 387.13 C 937.53 383.33 935.17 379.62 934.04 375.16 C 932.23 368.08 930.97 360.85 929.48 353.70 C 927.12 342.23 926.72 331.54 922.26 320.59 C 919.57 314.04 917.63 307.45 916.08 300.55 C 914.21 293.75 912.95 287.12 912.30 280.09 C 912.92 279.51 913.53 278.92 914.14 278.33 C 915.95 281.82 917.69 285.27 920.31 288.24 C 921.05 284.80 921.49 281.35 921.76 277.85 C 922.89 276.77 924.03 275.71 925.17 274.64 C 926.52 278.69 927.22 282.84 927.70 287.07 C 929.01 283.31 929.87 277.84 933.01 275.23 C 935.37 277.40 935.39 279.92 934.90 282.88 C 934.46 286.00 933.82 289.09 933.37 292.21 C 936.50 289.02 939.02 285.81 938.60 281.05 C 937.02 263.29 936.99 245.47 933.91 227.90 L 933.79 227.06 C 932.99 216.36 930.05 206.15 928.19 195.49 C 925.55 181.84 923.88 167.91 923.86 154.00 C 923.95 146.09 923.64 138.22 924.28 130.32 C 924.68 124.64 923.34 119.39 921.79 113.97 C 919.69 106.76 918.30 99.25 916.86 91.88 C 915.88 86.22 914.85 80.49 916.76 74.89 C 918.37 70.34 920.70 66.07 922.44 61.57 C 924.48 58.94 926.62 56.11 929.29 54.10 C 931.72 53.32 932.77 55.51 933.76 57.25 C 936.49 63.03 937.73 69.67 938.20 76.00 C 938.75 82.68 938.07 89.07 939.18 95.72 C 939.92 101.03 941.70 106.02 942.83 111.22 C 943.75 115.36 943.24 119.30 942.72 123.45 C 941.59 132.38 941.68 141.39 944.05 150.12 C 946.12 161.19 948.61 172.16 950.97 183.17 C 953.46 194.53 953.12 205.92 954.60 217.61 C 955.69 226.08 958.31 234.00 959.70 242.43 C 961.06 251.22 963.85 259.31 966.22 267.88 C 969.66 278.83 972.74 289.88 976.14 300.83 C 977.82 306.43 979.09 312.11 981.13 317.60 C 983.21 310.08 983.44 302.58 984.77 294.91 C 986.73 283.66 987.66 272.31 989.93 261.13 C 990.94 256.05 991.74 250.93 992.43 245.79 C 993.30 239.19 995.00 232.79 996.09 226.23 C 997.19 221.81 998.18 217.40 998.81 212.89 C 1000.25 203.04 1002.27 193.29 1004.68 183.63 C 1006.83 175.72 1009.83 168.06 1012.05 160.16 C 1017.04 147.23 1017.76 134.09 1020.67 120.71 C 1022.69 110.05 1021.37 98.08 1021.12 87.27 C 1021.96 80.54 1022.68 73.82 1022.77 67.03 C 1023.01 61.11 1022.45 55.07 1023.13 49.19 C 1023.51 47.46 1023.61 45.11 1025.65 44.55 C 1028.95 43.11 1032.22 46.53 1034.53 48.46 Z" fill="#1e2936" mask="url(#mask)"/>
</svg>
