<?xml version="1.0" encoding="UTF-8" standalone="no"?>
<!DOCTYPE svg PUBLIC "-//W3C//DTD SVG 1.1//EN" "http://www.w3.org/Graphics/SVG/1.1/DTD/svg11.dtd">
<svg viewBox="0 0 1365 768" height="768.0pt" width="1365.0pt" xmlns="http://www.w3.org/2000/svg" version="1.1">
<path d="M 1039.42 54.31 C 1042.17 53.54 1044.43 54.85 1046.54 56.46 C 1051.99 60.84 1056.00 66.94 1057.23 73.88 C 1057.83 77.36 1056.87 80.76 1056.23 84.16 C 1054.82 90.84 1055.15 97.44 1053.01 104.01 C 1051.35 109.04 1050.26 113.87 1049.98 119.18 C 1049.65 122.03 1049.40 124.81 1048.69 127.60 C 1047.47 132.42 1045.11 136.82 1043.67 141.64 C 1040.95 150.76 1040.56 159.71 1040.17 169.11 C 1037.61 178.54 1037.84 188.23 1035.69 197.75 C 1033.77 208.35 1030.74 218.60 1027.80 228.94 C 1024.54 241.26 1021.15 253.15 1020.44 265.97 C 1019.41 274.98 1019.97 284.04 1018.76 293.02 C 1018.28 297.01 1017.95 301.01 1017.68 305.01 C 1017.09 314.37 1015.89 323.65 1015.65 333.04 C 1015.51 338.13 1014.87 343.12 1013.85 348.11 C 1012.17 356.18 1011.65 363.67 1008.13 371.25 C 1004.25 379.51 999.85 387.56 995.39 395.53 C 993.12 399.73 990.92 404.71 991.48 409.59 C 992.12 415.03 995.09 420.45 997.58 425.26 C 999.69 429.37 1001.94 433.37 1004.66 437.11 C 1006.40 432.53 1007.80 427.84 1009.07 423.11 C 1011.27 414.95 1013.87 407.36 1014.82 398.98 C 1016.04 388.86 1016.59 379.13 1020.58 369.59 C 1023.59 362.47 1025.89 355.10 1028.88 347.97 C 1030.50 343.90 1032.34 339.85 1033.61 335.65 C 1035.79 328.47 1033.83 321.27 1036.16 314.10 C 1037.51 310.12 1039.11 306.28 1039.87 302.12 C 1040.73 299.82 1041.66 297.64 1043.07 295.63 L 1044.74 295.90 C 1046.34 299.43 1046.77 303.59 1047.59 307.36 C 1049.46 305.92 1051.22 304.48 1052.33 302.35 C 1055.37 296.76 1057.40 290.47 1059.69 284.55 C 1061.42 283.96 1063.19 283.31 1064.96 282.90 C 1066.37 285.45 1065.41 289.15 1065.23 291.94 C 1065.74 291.24 1066.25 290.54 1066.76 289.84 C 1067.87 288.98 1069.05 288.09 1070.32 287.48 C 1071.58 287.71 1072.82 288.22 1074.03 288.65 C 1071.73 293.58 1069.61 298.58 1067.48 303.58 C 1065.14 309.03 1061.31 312.70 1057.80 317.32 C 1053.87 322.76 1050.41 328.23 1048.91 334.87 C 1046.98 343.52 1045.13 352.21 1043.94 361.00 C 1042.99 368.01 1041.61 374.98 1039.72 381.81 C 1038.50 385.19 1037.23 388.54 1035.84 391.86 C 1033.56 395.55 1031.29 398.99 1030.58 403.38 C 1029.10 411.97 1027.30 420.30 1026.81 429.01 C 1026.21 438.39 1024.45 447.62 1023.87 456.99 C 1023.39 461.83 1022.95 467.65 1019.19 471.18 C 1015.08 475.13 1008.28 475.39 1003.10 477.18 C 1000.43 478.03 998.74 479.84 996.73 481.66 C 998.39 485.33 999.96 489.03 1001.51 492.75 C 1005.09 490.19 1008.75 488.03 1013.00 486.75 C 1011.28 490.29 1009.23 493.64 1007.08 496.94 C 1009.58 499.88 1012.04 502.63 1013.96 506.00 C 1015.15 507.98 1016.13 510.23 1017.63 512.01 C 1018.86 513.21 1020.78 513.82 1022.32 514.52 C 1022.40 510.60 1022.39 506.68 1022.52 502.77 C 1024.51 505.16 1026.62 507.32 1027.24 510.49 C 1027.99 514.63 1028.07 518.96 1027.84 523.15 C 1027.71 526.53 1025.56 529.23 1023.88 532.02 C 1020.88 537.05 1016.55 540.47 1012.96 545.03 C 1009.42 549.47 1005.47 553.54 1001.99 558.03 C 999.64 560.95 997.32 564.05 993.89 565.79 C 989.66 567.92 985.00 567.98 980.44 567.00 C 975.88 565.37 970.99 564.97 966.46 563.39 C 963.33 561.15 961.80 556.53 959.54 553.45 C 955.86 548.30 951.49 542.56 945.72 539.69 C 943.16 538.28 940.71 536.69 938.32 535.00 C 940.40 534.22 942.49 533.46 944.59 532.72 C 941.45 528.62 938.54 524.75 936.96 519.74 C 935.81 516.39 935.80 513.01 935.91 509.51 C 939.94 515.05 942.48 521.16 947.64 525.89 C 947.68 519.62 947.02 512.79 948.40 506.65 C 949.47 501.94 952.10 498.46 954.04 494.19 C 955.31 491.36 955.45 488.44 955.82 485.41 C 959.03 487.01 962.15 488.74 965.25 490.55 C 963.06 486.88 960.70 483.42 957.32 480.72 C 953.09 477.03 947.96 474.83 943.55 471.45 C 940.77 469.34 939.44 466.28 938.87 462.91 C 936.75 450.77 937.84 437.48 937.55 425.00 C 937.21 417.40 939.65 410.97 937.68 403.51 C 937.06 397.94 935.82 393.70 933.22 388.76 C 926.35 375.08 926.03 361.53 923.22 346.62 C 922.05 337.32 919.04 328.46 914.86 320.10 C 912.05 314.66 908.64 309.51 905.82 304.08 C 903.73 299.25 901.13 294.71 898.76 290.03 C 897.63 287.96 897.54 285.80 897.53 283.50 C 900.60 285.32 903.42 287.44 906.16 289.71 C 906.61 289.34 907.05 288.97 907.50 288.59 C 907.16 285.13 906.82 281.67 906.76 278.19 C 908.22 278.93 909.70 279.03 910.51 280.60 C 912.92 285.23 914.22 290.37 916.68 295.02 C 918.77 290.11 919.42 285.06 919.78 279.78 C 921.20 279.51 922.62 279.24 924.04 278.98 C 924.45 283.80 924.58 288.63 924.81 293.46 C 926.88 290.17 928.40 286.98 932.09 285.18 C 932.59 288.44 932.58 291.23 931.38 294.34 C 928.92 300.99 928.20 307.96 928.14 315.00 C 928.13 317.92 928.59 320.79 929.39 323.59 C 932.62 334.71 936.96 345.19 940.99 356.01 C 943.45 365.68 948.86 373.21 949.97 383.13 C 951.09 392.28 951.85 401.45 953.47 410.56 C 953.97 413.30 954.86 415.91 955.84 418.50 C 957.52 415.49 959.48 412.67 959.17 409.05 C 958.70 403.83 956.77 398.64 955.38 393.60 C 951.97 382.45 949.82 371.10 947.11 359.77 C 944.76 347.83 942.34 335.92 940.42 323.90 C 939.10 314.86 936.98 306.16 936.61 296.99 C 936.35 290.26 935.74 283.57 935.17 276.86 C 934.17 265.58 935.66 255.09 934.14 243.91 C 932.83 234.52 930.64 225.25 927.72 216.23 C 925.37 208.88 922.10 202.01 919.68 194.69 C 917.09 184.97 915.68 175.04 914.82 165.03 C 914.48 158.69 914.55 152.35 913.96 146.01 C 913.28 138.05 914.42 131.03 912.29 123.57 C 909.66 113.74 904.42 105.35 900.99 95.93 C 899.11 90.24 897.11 83.86 897.50 77.81 C 897.87 70.66 902.47 64.93 905.77 58.76 C 907.53 57.42 909.69 55.59 911.94 55.31 C 914.65 55.54 915.97 57.69 917.04 59.92 C 919.14 64.64 920.53 69.72 921.41 74.81 C 922.68 82.17 921.85 89.53 923.34 96.75 C 924.84 104.52 928.44 110.88 928.41 119.00 C 928.43 126.42 929.49 133.47 931.36 140.63 C 934.34 151.95 937.42 163.35 941.78 174.22 C 942.66 176.97 943.67 179.68 944.49 182.44 C 945.90 191.53 946.95 200.86 948.98 209.83 C 950.28 215.50 952.76 220.52 954.91 225.87 C 957.81 233.04 958.67 240.39 959.91 247.97 C 960.38 252.03 960.47 256.04 961.11 260.09 C 962.06 266.38 964.14 272.42 965.53 278.73 C 968.31 291.50 971.48 304.17 973.91 317.02 C 975.20 323.13 976.46 329.21 978.29 335.19 C 981.13 328.09 981.83 320.86 983.23 313.42 C 984.15 308.26 984.86 303.06 985.88 297.92 C 987.32 290.59 989.70 283.58 991.37 276.29 C 994.72 261.75 998.39 247.29 1001.74 232.75 C 1005.16 217.58 1005.12 203.41 1012.04 189.11 C 1016.20 180.26 1019.56 170.91 1022.51 161.60 C 1025.32 150.36 1027.39 138.98 1030.79 127.88 C 1032.72 121.61 1031.72 115.96 1032.21 109.48 C 1032.65 103.03 1031.93 96.71 1033.12 90.31 C 1035.11 79.89 1033.59 68.88 1035.56 58.39 C 1036.02 56.19 1037.29 54.93 1039.42 54.31 Z" fill="#1e2936"/>
</svg>
