<?xml version="1.0" encoding="UTF-8" standalone="no"?>
<!DOCTYPE svg PUBLIC "-//W3C//DTD SVG 1.1//EN" "http://www.w3.org/Graphics/SVG/1.1/DTD/svg11.dtd">
<svg viewBox="0 0 1365 768" height="768.0pt" width="1365.0pt" xmlns="http://www.w3.org/2000/svg" version="1.1">
<path d="M 917.44 60.58 C 922.80 73.49 922.54 85.73 923.90 99.24 C 924.52 106.41 927.54 112.91 928.18 120.04 C 928.62 124.64 928.89 129.24 929.54 133.82 C 930.57 140.80 931.14 147.62 933.89 154.20 C 936.16 162.26 938.73 170.21 941.90 177.96 C 944.26 183.63 945.07 189.72 947.67 195.32 C 949.28 202.82 950.47 210.39 951.87 217.93 C 953.11 224.32 955.31 230.31 957.34 236.46 C 959.56 243.16 960.54 250.00 962.26 256.81 C 962.84 261.86 963.08 266.95 964.30 271.95 C 965.38 276.36 967.20 280.47 968.23 284.90 C 970.87 297.87 972.53 311.02 975.29 323.96 C 976.15 328.40 976.88 332.81 978.36 337.10 C 979.38 335.02 980.09 333.01 980.53 330.72 C 981.67 324.93 983.21 319.30 983.77 313.40 C 986.83 302.00 988.72 290.31 991.92 278.93 C 994.67 266.17 999.30 254.19 1001.24 241.25 C 1002.15 236.88 1002.79 232.59 1003.20 228.14 C 1003.90 220.73 1005.93 214.01 1007.73 206.80 C 1009.17 200.89 1011.94 195.59 1013.76 189.82 C 1017.21 179.29 1019.78 168.46 1022.52 157.72 C 1024.67 145.64 1026.92 133.51 1028.06 121.29 C 1028.49 118.62 1028.97 115.96 1029.30 113.27 C 1030.54 101.95 1033.25 91.51 1032.84 80.00 C 1032.62 74.90 1033.04 69.99 1035.09 65.26 C 1036.58 61.98 1038.47 58.96 1040.28 55.86 C 1043.34 56.03 1045.84 56.77 1047.95 59.09 C 1051.35 62.83 1054.42 67.29 1055.93 72.15 C 1057.58 77.55 1056.17 82.70 1054.93 88.01 C 1053.57 93.33 1052.33 98.69 1050.87 103.99 C 1045.69 120.95 1042.14 138.36 1040.06 155.98 C 1039.40 161.51 1037.33 166.33 1037.34 171.95 C 1037.54 180.44 1035.58 188.65 1036.16 197.16 C 1034.17 205.87 1033.10 214.69 1030.50 223.26 C 1028.43 231.79 1024.84 239.67 1023.34 248.29 C 1021.88 256.47 1020.73 264.69 1020.54 273.02 C 1019.94 282.54 1018.40 291.91 1018.46 301.49 C 1017.56 311.01 1016.08 320.47 1015.66 330.05 C 1015.54 335.40 1014.47 340.60 1013.90 345.91 C 1013.31 351.93 1011.83 357.69 1010.39 363.55 C 1008.83 369.91 1005.18 375.60 1002.90 381.88 C 1000.63 387.57 1000.42 393.56 998.21 399.26 C 996.90 402.85 994.86 406.42 994.04 410.13 C 993.31 413.67 994.40 416.94 995.98 420.06 C 998.17 424.24 1000.33 428.38 1003.01 432.27 C 1005.20 426.79 1006.50 421.07 1008.42 415.49 C 1012.00 404.73 1013.64 393.63 1015.30 382.41 C 1016.49 372.55 1019.53 362.60 1024.05 353.75 C 1026.73 348.48 1028.94 342.97 1031.52 337.64 C 1034.43 331.40 1035.33 324.81 1035.79 318.02 C 1036.05 313.78 1038.09 310.55 1039.64 306.74 C 1041.31 302.73 1041.20 297.99 1043.25 294.26 C 1045.31 293.78 1046.34 296.94 1047.57 298.17 C 1049.32 294.25 1049.95 290.14 1050.92 286.00 C 1051.20 283.89 1054.21 282.86 1055.78 281.74 C 1057.77 281.06 1062.75 280.05 1063.90 282.32 C 1064.53 286.08 1063.56 290.20 1063.25 293.98 C 1062.60 300.92 1060.16 307.70 1056.71 313.72 C 1053.45 319.06 1049.86 323.61 1047.80 329.64 C 1044.27 339.88 1043.18 350.85 1040.79 361.61 C 1038.93 373.48 1035.76 384.95 1030.77 395.90 C 1027.60 402.46 1027.15 409.68 1025.99 417.00 C 1024.12 430.63 1022.51 444.26 1021.11 457.94 C 1020.55 462.42 1019.90 468.08 1016.16 471.14 C 1010.99 475.27 1002.76 475.77 997.20 479.19 C 995.25 480.40 993.94 482.10 992.48 483.81 C 994.39 486.21 995.75 488.84 996.86 491.69 C 1000.26 489.59 1002.94 487.18 1007.13 486.89 C 1006.07 490.10 1004.36 493.03 1003.31 496.22 C 1003.10 496.99 1003.20 497.72 1003.60 498.42 C 1005.50 501.86 1008.23 504.60 1009.75 508.33 C 1012.28 514.23 1012.29 521.57 1013.38 527.93 C 1016.33 523.98 1019.20 520.48 1019.71 515.37 C 1020.23 514.13 1020.77 512.90 1021.32 511.67 C 1022.17 513.74 1023.13 515.52 1022.75 517.85 C 1022.05 522.68 1020.33 527.41 1018.82 532.05 C 1014.29 537.86 1010.61 544.10 1005.40 549.38 C 1000.51 554.90 994.43 558.13 988.90 562.91 C 986.59 564.72 983.80 567.32 980.81 567.74 C 975.67 568.18 971.79 563.07 966.59 563.72 C 963.84 563.55 960.66 564.80 958.90 562.05 C 955.27 557.25 953.01 551.64 948.89 547.12 C 946.40 543.70 942.52 541.26 940.32 537.72 C 937.86 530.19 936.15 522.34 933.97 514.72 C 933.92 512.87 934.59 511.30 935.22 509.60 C 936.56 511.68 936.64 513.94 937.14 516.29 C 937.47 518.12 938.97 519.71 940.04 521.20 C 941.23 510.66 945.98 500.96 952.75 492.89 C 954.61 490.56 957.47 489.67 957.84 486.66 C 956.28 485.80 954.74 484.92 953.20 484.05 C 954.23 482.98 956.33 481.49 955.14 479.83 C 953.17 476.30 949.14 475.76 945.75 474.24 C 942.07 472.89 939.61 469.36 937.96 465.97 C 935.44 460.71 935.58 454.70 935.53 449.00 C 935.42 441.60 937.38 434.74 936.36 427.31 C 934.84 416.72 936.36 406.38 933.93 395.87 C 932.33 389.32 928.82 383.38 927.29 376.77 C 925.39 368.49 923.44 360.16 922.34 351.73 C 921.91 348.36 921.11 345.08 920.29 341.79 C 919.13 333.57 917.50 325.74 913.61 318.32 C 911.80 314.63 909.48 311.28 907.08 307.96 C 904.10 301.94 901.72 295.71 899.41 289.42 C 898.82 287.57 897.93 285.34 898.26 283.38 C 900.44 281.00 903.08 279.80 905.89 278.38 C 908.22 282.28 910.09 286.12 913.85 288.88 C 914.92 285.32 916.04 281.82 917.72 278.50 C 918.54 278.97 919.35 279.45 920.16 279.92 C 919.37 283.98 919.15 288.05 919.34 292.17 C 922.49 289.92 923.52 286.81 927.21 285.79 C 927.17 292.47 922.02 297.74 922.34 304.94 C 922.73 307.42 923.89 309.85 924.71 312.22 C 927.44 319.72 928.05 327.39 931.26 334.79 C 933.92 340.92 936.56 347.03 938.52 353.44 C 941.40 363.74 946.55 372.58 948.39 383.28 C 949.82 392.99 949.44 402.98 951.13 412.62 C 951.91 417.11 952.26 421.39 954.66 425.38 C 956.96 421.22 959.32 416.63 960.18 411.92 C 960.63 408.34 959.23 404.38 958.33 400.92 C 956.06 392.56 952.61 384.72 950.86 376.20 C 944.34 345.76 937.69 314.15 936.86 283.00 C 937.02 274.62 935.51 266.38 935.76 258.00 C 935.66 252.14 937.22 247.20 935.06 241.53 C 933.45 231.76 930.98 222.24 926.58 213.33 C 923.44 206.97 920.12 201.04 919.01 193.91 C 917.79 185.66 915.76 177.63 916.15 169.53 C 916.44 157.27 915.47 145.09 914.04 132.94 C 913.56 128.85 912.06 125.17 910.62 121.37 C 908.58 115.98 908.10 110.43 905.77 105.14 C 904.02 101.15 902.06 97.31 900.73 93.14 C 898.14 85.54 897.77 77.22 900.04 69.49 C 903.84 65.71 906.28 60.76 910.22 57.21 C 912.62 54.79 916.44 58.30 917.44 60.58 Z" fill="#1e2936"/>
</svg>
