<?xml version="1.0" encoding="UTF-8" standalone="no"?>
<!DOCTYPE svg PUBLIC "-//W3C//DTD SVG 1.1//EN" "http://www.w3.org/Graphics/SVG/1.1/DTD/svg11.dtd">
<svg viewBox="0 0 1365 768" height="768.0pt" width="1365.0pt" xmlns="http://www.w3.org/2000/svg" version="1.1">
<path d="M 1036.44 59.31 C 1038.93 58.32 1042.64 58.25 1044.03 61.00 C 1046.49 64.81 1048.80 69.58 1050.17 73.90 C 1052.18 80.79 1049.32 87.06 1047.93 93.72 C 1046.06 103.43 1044.39 113.14 1044.03 123.04 C 1042.21 130.99 1037.66 137.72 1035.77 145.61 C 1034.11 152.35 1032.45 158.98 1031.84 165.92 C 1031.16 173.35 1030.06 180.73 1029.46 188.17 C 1028.17 203.90 1024.62 218.77 1021.11 234.06 C 1019.47 238.22 1017.73 242.16 1016.76 246.56 C 1015.14 253.82 1015.43 260.68 1015.08 268.03 C 1014.13 282.33 1013.53 296.65 1012.95 310.96 C 1012.65 316.06 1011.81 321.06 1011.44 326.14 C 1010.80 334.82 1011.12 343.47 1011.07 352.03 C 1011.06 358.79 1009.52 365.11 1007.55 371.53 C 1005.95 376.73 1003.40 381.45 1001.89 386.68 C 1000.59 391.15 999.74 395.64 998.06 400.02 C 995.94 405.77 992.42 411.49 991.62 417.59 C 991.31 419.61 991.79 421.42 992.80 423.18 C 994.93 426.96 997.80 430.39 1000.41 433.85 C 1002.22 430.18 1004.08 426.53 1005.80 422.81 C 1008.52 417.08 1009.43 410.80 1011.45 404.55 C 1013.21 399.06 1014.77 393.54 1015.74 387.85 C 1017.19 379.26 1020.44 371.75 1023.59 363.69 C 1026.31 356.78 1029.68 350.91 1031.64 343.80 C 1033.36 337.40 1034.95 330.66 1035.06 324.02 C 1035.29 316.56 1034.28 309.90 1036.65 302.63 C 1038.29 297.90 1039.28 292.86 1041.39 288.32 C 1042.55 288.68 1043.70 289.04 1044.86 289.41 C 1045.44 285.41 1045.65 280.85 1047.37 277.16 C 1050.08 276.46 1052.98 276.82 1054.89 279.03 C 1057.14 281.56 1059.24 284.47 1060.45 287.64 C 1061.22 290.38 1060.23 293.74 1059.67 296.47 C 1057.75 304.07 1056.68 311.31 1053.66 318.59 C 1050.89 325.66 1046.91 332.03 1045.71 339.43 C 1044.12 350.25 1042.06 361.07 1039.77 371.76 C 1036.19 383.13 1030.88 393.95 1027.45 405.40 C 1022.57 421.65 1019.65 438.54 1017.43 455.34 C 1016.54 461.95 1013.08 467.75 1008.35 472.33 C 1003.22 477.10 996.31 480.23 990.88 483.94 C 989.45 485.00 987.02 486.84 987.28 488.85 C 987.87 490.53 989.63 491.85 990.80 493.17 C 992.27 490.54 993.73 487.90 995.22 485.29 C 997.10 488.75 998.75 492.29 1000.23 495.94 C 1003.93 494.30 1007.58 492.57 1011.05 490.48 C 1011.68 491.25 1012.30 492.03 1012.93 492.81 C 1011.32 495.07 1009.30 497.45 1008.43 500.10 C 1008.79 503.44 1011.87 506.59 1013.74 509.27 C 1015.92 512.04 1017.10 514.78 1017.73 518.25 C 1018.53 522.53 1019.41 526.83 1019.80 531.17 C 1020.41 537.62 1017.29 544.27 1012.62 548.62 C 1008.23 552.59 1003.23 555.87 998.70 559.69 C 995.46 562.15 991.79 565.60 987.76 566.51 C 984.71 565.89 981.96 563.77 978.89 563.16 C 975.67 563.11 972.37 564.14 969.24 564.83 C 965.38 560.50 962.00 556.06 956.97 552.96 C 951.58 549.59 947.74 544.82 944.10 539.71 C 943.52 537.55 944.00 534.98 944.18 532.78 C 944.65 528.84 944.47 524.88 944.85 520.95 C 945.24 517.35 946.96 514.34 947.68 510.91 C 948.05 509.51 946.88 508.06 945.91 507.16 C 943.53 505.04 940.68 503.38 938.03 501.59 C 939.40 501.01 940.77 500.44 942.13 499.86 C 944.60 500.50 947.28 501.24 949.84 501.18 C 953.09 498.68 954.38 494.90 958.14 493.57 C 959.49 492.78 961.72 492.59 961.93 490.75 C 962.57 488.53 961.25 486.71 959.81 485.17 C 954.07 479.48 945.27 477.02 939.66 471.34 C 935.31 466.46 934.48 458.10 933.04 451.91 C 930.76 442.24 929.54 432.75 926.09 423.52 C 925.49 417.48 924.30 411.55 922.26 405.83 C 918.78 395.77 916.32 385.57 912.06 375.82 C 907.18 363.02 903.56 349.75 898.94 336.85 C 894.69 325.44 889.93 315.08 889.48 302.68 C 891.84 299.38 893.52 295.82 895.29 292.19 C 896.59 289.42 899.21 288.46 901.79 287.16 C 903.26 288.49 905.32 289.74 906.28 291.50 C 906.44 294.98 905.61 298.54 905.28 302.01 C 906.67 300.99 908.06 299.97 909.46 298.95 C 909.77 306.10 907.52 312.44 908.76 319.42 C 909.81 325.41 910.43 331.89 912.54 337.56 C 916.34 347.60 921.46 356.41 925.99 366.02 C 928.86 372.06 931.96 377.72 933.78 384.21 C 936.49 393.91 939.51 403.50 943.05 412.94 C 945.57 420.44 947.87 427.82 951.15 435.06 C 953.04 430.59 955.11 425.70 955.75 420.87 C 956.48 415.37 954.65 409.77 953.37 404.47 C 950.86 395.22 950.76 385.81 947.09 376.83 C 945.42 369.17 942.61 361.86 940.83 354.23 C 936.60 335.89 933.81 317.58 931.15 298.92 C 930.35 293.63 930.22 288.33 930.17 283.00 C 930.03 271.81 928.40 261.15 926.98 250.07 C 925.84 240.93 922.35 233.30 919.58 224.54 C 919.46 218.85 917.59 213.14 916.56 207.41 C 913.66 192.29 910.84 176.81 910.56 161.39 C 910.24 152.82 909.06 144.36 906.85 136.07 C 904.57 127.67 903.55 119.04 901.33 110.63 C 899.82 104.72 898.37 98.75 897.39 92.73 C 896.36 86.26 896.94 79.93 897.43 73.42 C 897.74 70.37 898.01 67.01 899.22 64.17 C 900.31 61.60 903.73 59.62 906.47 60.53 C 908.52 61.53 910.04 63.85 911.27 65.72 C 914.64 71.29 917.86 76.75 918.38 83.40 C 918.98 91.54 918.89 100.43 920.63 108.46 C 922.06 114.65 926.63 118.41 927.37 124.85 C 928.41 132.43 924.21 138.45 924.99 146.03 C 925.74 153.51 929.06 161.24 931.64 168.27 C 933.24 173.11 935.52 177.60 937.56 182.25 C 939.58 186.86 940.95 191.63 942.38 196.43 C 944.02 201.98 945.91 207.19 946.71 212.96 C 947.35 217.44 947.86 221.93 948.53 226.40 C 949.89 235.58 950.48 244.82 951.64 254.02 C 953.05 261.69 953.44 269.55 955.96 276.75 C 959.27 286.69 961.81 296.80 965.37 306.66 C 968.00 313.93 970.31 321.31 972.16 328.81 C 972.79 331.53 973.76 333.97 975.33 336.28 C 978.37 321.07 980.40 305.64 983.69 290.47 C 985.85 280.40 986.65 270.22 989.47 260.27 C 991.82 252.06 993.44 243.87 994.64 235.42 C 996.22 227.82 996.81 220.06 998.41 212.47 C 1000.70 205.09 1001.86 197.47 1004.11 190.08 C 1006.21 182.42 1009.08 175.00 1011.25 167.37 C 1013.93 156.78 1017.67 146.76 1019.87 135.99 C 1021.01 130.07 1020.31 124.33 1021.33 118.38 C 1022.43 111.93 1024.95 105.65 1026.26 99.27 C 1027.30 94.96 1027.01 90.71 1026.63 86.34 C 1025.99 80.00 1028.26 73.47 1030.68 67.69 C 1032.02 64.77 1033.73 61.17 1036.44 59.31 Z" fill="#1e2936"/>
</svg>
