<?xml version="1.0" encoding="UTF-8" standalone="no"?>
<!DOCTYPE svg PUBLIC "-//W3C//DTD SVG 1.1//EN" "http://www.w3.org/Graphics/SVG/1.1/DTD/svg11.dtd">
<svg viewBox="0 0 1365 768" height="768.0pt" width="1365.0pt" xmlns="http://www.w3.org/2000/svg" version="1.1">
<path d="M 918.91 64.01 C 921.49 71.61 924.16 79.91 924.27 87.96 C 924.46 94.69 924.23 101.28 925.15 107.98 C 925.65 112.17 926.81 116.16 927.70 120.26 C 929.91 130.33 928.97 140.12 932.06 150.07 C 933.36 154.81 934.65 159.55 935.67 164.36 C 937.21 171.48 939.58 178.24 941.87 185.14 C 944.36 192.71 947.80 199.60 949.62 207.39 C 952.00 216.52 952.04 225.08 955.23 233.79 C 957.59 240.21 960.06 246.56 961.76 253.20 C 964.44 263.65 967.42 273.45 968.77 284.16 C 969.87 293.08 971.87 301.82 973.35 310.68 C 974.72 320.21 976.49 329.69 978.27 339.15 C 982.27 330.26 983.53 320.93 985.97 311.13 C 987.99 304.41 989.99 297.67 991.82 290.90 C 994.42 279.98 995.95 268.85 998.88 257.99 C 1001.82 246.76 1001.68 235.42 1004.05 224.07 C 1006.11 213.08 1010.15 202.90 1013.10 192.18 C 1014.45 188.37 1015.82 184.59 1016.70 180.63 C 1018.83 171.24 1021.31 162.36 1022.51 152.76 C 1023.48 144.19 1023.88 135.58 1023.95 126.96 C 1023.96 122.65 1025.07 118.61 1026.62 114.62 C 1028.59 109.66 1029.24 104.51 1029.98 99.26 C 1030.61 96.70 1031.37 94.26 1031.74 91.63 C 1032.51 86.34 1031.79 80.77 1032.67 75.54 C 1033.38 71.30 1035.83 67.73 1038.33 64.34 C 1039.75 62.52 1041.37 60.37 1043.43 59.26 C 1045.23 58.61 1047.40 58.65 1048.50 60.47 C 1051.38 64.43 1053.66 68.91 1055.80 73.31 C 1057.87 81.04 1055.81 87.94 1053.31 95.25 C 1051.63 100.14 1049.02 104.52 1047.47 109.43 C 1045.67 115.09 1044.63 120.99 1043.34 126.66 C 1042.37 130.97 1041.04 134.91 1040.35 139.23 C 1039.42 145.06 1039.27 151.13 1038.76 157.01 C 1038.18 164.13 1036.91 171.13 1036.31 178.26 C 1035.80 184.24 1035.88 190.20 1035.23 196.17 C 1034.44 204.56 1032.21 212.62 1032.07 221.09 C 1030.16 228.30 1028.06 235.07 1025.22 241.99 C 1020.57 257.82 1020.42 275.93 1018.72 292.33 C 1018.10 306.99 1016.07 321.45 1014.22 335.99 C 1013.42 344.73 1010.90 353.06 1009.67 361.73 C 1008.64 369.08 1005.13 375.51 1003.79 382.75 C 1002.75 388.38 1001.78 394.01 1000.42 399.58 C 999.00 405.90 997.02 412.47 998.00 419.00 C 998.43 422.13 999.97 424.56 1001.57 427.20 C 1004.76 418.26 1007.15 408.99 1009.81 399.87 C 1012.05 392.15 1012.51 384.22 1014.49 376.46 C 1015.96 370.31 1018.15 364.41 1020.51 358.56 C 1023.07 352.22 1024.84 345.83 1027.72 339.71 C 1028.97 337.01 1030.43 334.32 1031.46 331.54 C 1033.11 327.00 1032.98 322.31 1034.80 317.75 C 1037.11 312.13 1039.50 306.42 1041.05 300.54 C 1041.75 296.37 1040.61 291.82 1040.32 287.61 C 1042.43 286.49 1044.48 285.29 1046.55 284.10 C 1048.89 283.84 1050.89 283.26 1053.05 282.32 C 1053.69 282.89 1054.34 283.46 1054.99 284.02 C 1055.29 286.97 1055.60 289.92 1055.95 292.86 C 1055.93 300.09 1055.42 307.89 1052.61 314.63 C 1049.70 321.79 1045.71 328.12 1043.48 335.60 C 1039.03 350.39 1036.08 365.73 1032.59 380.64 C 1031.09 387.39 1027.78 393.39 1026.02 400.05 L 1025.79 400.88 C 1023.20 408.99 1022.89 417.21 1021.55 425.54 C 1019.99 436.13 1019.41 446.94 1018.45 457.60 C 1017.92 462.93 1016.74 467.90 1012.74 471.74 C 1006.96 477.54 997.76 476.19 992.18 482.21 C 989.97 484.14 992.30 487.84 992.88 490.12 C 995.76 488.70 998.65 487.31 1001.61 486.05 C 1001.15 489.62 999.51 492.71 998.54 496.11 C 998.97 499.28 1001.43 502.31 1002.73 505.23 C 1007.06 513.63 1007.54 522.13 1008.65 531.30 C 1011.90 528.49 1014.14 524.99 1016.75 521.64 C 1016.49 531.24 1012.03 539.72 1005.71 546.72 C 1002.03 550.37 997.84 553.53 993.86 556.86 C 989.19 560.74 983.82 561.62 978.67 564.66 C 976.40 565.84 973.70 567.75 971.08 567.78 C 967.59 567.51 964.31 564.84 960.92 564.23 C 958.47 564.36 956.04 565.16 953.59 565.28 C 951.54 563.81 950.43 560.86 949.33 558.66 C 947.95 555.50 946.12 552.63 944.26 549.73 C 942.35 546.27 940.73 542.99 937.67 540.36 C 934.84 537.94 931.79 535.79 928.89 533.45 C 929.98 532.50 931.07 531.56 932.16 530.62 C 931.27 524.50 929.76 518.93 931.36 512.75 C 932.55 514.16 933.74 515.58 934.91 517.02 C 936.68 511.98 938.54 506.78 941.01 502.03 C 943.84 498.34 947.44 495.83 950.76 492.69 C 953.91 489.67 953.89 484.95 951.69 481.37 C 948.88 475.55 942.47 475.56 938.52 470.47 C 935.64 466.83 935.12 461.50 934.76 457.02 C 933.80 443.28 934.42 429.52 933.47 415.77 C 933.73 406.50 932.75 397.55 930.59 388.54 C 928.19 377.75 923.97 367.67 922.06 356.87 C 920.01 345.76 918.59 334.30 915.52 323.41 C 913.57 316.58 910.20 310.67 905.69 305.22 C 903.13 299.43 903.27 293.43 901.49 287.46 C 900.65 284.59 900.19 281.68 899.90 278.70 C 901.39 279.18 903.52 279.25 904.72 280.30 C 906.68 282.48 907.95 285.40 909.35 287.96 C 911.22 283.91 911.62 279.72 915.92 277.51 C 915.87 281.12 915.60 284.71 915.34 288.31 C 917.91 287.29 920.43 286.19 922.92 285.00 C 923.27 285.69 923.62 286.37 923.97 287.05 C 922.32 290.22 920.01 293.50 919.25 297.01 C 919.76 299.82 921.75 302.46 923.00 305.01 C 925.66 309.82 925.60 315.27 926.61 320.59 C 928.07 329.25 931.83 336.19 934.61 344.50 C 938.59 356.41 944.32 368.59 947.30 380.73 C 949.38 389.64 947.75 397.75 948.69 406.69 C 949.88 416.43 950.99 426.15 952.50 435.85 C 954.68 430.06 957.52 424.57 959.89 418.87 C 961.62 414.74 962.27 410.40 960.95 406.05 C 959.44 400.96 958.13 395.76 956.19 390.81 C 952.85 383.12 950.11 375.04 948.48 366.81 C 945.28 343.12 940.48 320.01 939.66 296.01 C 939.61 288.97 938.51 282.03 938.58 274.99 C 938.68 267.61 937.39 260.38 937.16 253.01 C 937.05 248.05 935.64 243.48 934.24 238.77 C 933.79 235.22 933.09 231.85 931.27 228.73 C 927.84 222.79 925.87 216.29 922.84 210.17 C 920.07 200.12 916.83 189.36 916.74 178.96 C 916.65 170.23 915.11 161.67 914.74 152.96 C 914.41 146.82 914.20 140.63 913.37 134.53 C 912.62 129.07 909.60 124.98 908.32 119.74 C 907.10 114.75 906.72 109.74 905.04 104.83 C 903.05 98.94 900.14 93.94 899.41 87.60 C 898.68 80.75 898.74 73.62 902.71 67.69 C 905.11 64.17 908.43 60.18 912.51 58.64 C 915.68 57.75 918.07 61.45 918.91 64.01 Z" fill="#1e2936"/>
</svg>
