<?xml version="1.0" encoding="UTF-8" standalone="no"?>
<!DOCTYPE svg PUBLIC "-//W3C//DTD SVG 1.1//EN" "http://www.w3.org/Graphics/SVG/1.1/DTD/svg11.dtd">
<svg viewBox="0 0 1365 768" height="768.0pt" width="1365.0pt" xmlns="http://www.w3.org/2000/svg" version="1.1">
<path d="M 1049.61 60.78 C 1051.91 65.98 1054.67 71.22 1055.14 76.98 C 1055.55 82.21 1054.13 87.82 1052.92 92.89 C 1051.14 100.58 1046.93 107.12 1044.78 114.65 C 1042.07 123.84 1040.93 133.72 1039.30 143.18 C 1037.07 156.68 1035.88 170.29 1035.29 183.95 C 1034.83 194.73 1033.51 205.39 1032.14 216.08 C 1031.36 222.37 1029.38 228.25 1029.31 234.65 C 1026.70 242.12 1024.55 249.68 1023.65 257.57 C 1022.87 264.69 1021.64 271.80 1021.30 278.96 C 1021.04 288.32 1020.43 297.68 1019.83 307.02 C 1019.23 314.48 1017.32 321.74 1016.43 329.18 C 1015.04 338.74 1012.63 348.15 1010.70 357.62 C 1009.28 365.16 1005.65 371.87 1004.39 379.42 C 1003.05 386.40 1004.03 393.30 1002.20 400.23 C 1000.70 405.85 999.84 411.29 1000.26 417.13 C 1005.35 404.44 1007.59 390.50 1011.31 377.36 C 1015.48 361.30 1024.47 346.59 1029.46 330.55 C 1031.01 325.10 1031.18 319.60 1033.17 314.22 C 1034.25 310.91 1036.12 307.51 1036.47 304.04 C 1034.96 299.12 1030.76 296.99 1032.44 291.15 C 1033.31 291.47 1034.18 291.79 1035.05 292.11 C 1035.57 292.30 1036.09 292.49 1036.61 292.69 C 1036.80 290.89 1036.98 289.09 1037.16 287.29 C 1039.43 285.87 1041.80 284.13 1044.35 283.28 C 1046.23 282.84 1048.27 282.96 1050.18 282.91 C 1049.92 288.01 1049.49 293.05 1049.88 298.16 C 1050.14 304.52 1050.65 311.91 1047.92 317.80 C 1044.90 324.79 1041.04 331.26 1038.83 338.63 C 1037.61 342.75 1036.41 346.86 1035.12 350.96 C 1033.26 356.88 1032.83 362.99 1031.17 368.98 C 1029.84 373.73 1028.70 378.52 1027.57 383.33 C 1026.03 390.11 1022.37 395.97 1020.87 402.77 C 1019.16 410.40 1018.26 418.24 1017.27 425.99 C 1015.78 438.74 1014.13 451.50 1012.58 464.26 C 1011.93 469.76 1008.97 474.68 1003.60 476.63 C 997.60 478.90 991.93 479.15 987.68 484.63 C 985.43 487.20 985.96 489.92 985.89 493.07 C 988.29 492.18 990.67 491.25 993.04 490.29 C 992.49 493.06 991.59 495.99 991.67 498.83 C 992.24 501.01 993.95 502.96 995.12 504.86 C 998.75 510.04 1000.39 516.84 1001.24 523.02 C 1002.08 529.09 1001.11 534.59 1000.88 540.66 C 1004.26 537.24 1005.51 533.36 1009.93 531.64 C 1009.15 538.94 1004.88 545.65 999.61 550.58 C 992.60 556.65 982.76 560.43 974.63 564.56 C 971.57 566.07 968.27 568.22 964.87 568.75 C 960.83 568.79 956.92 565.60 952.88 565.27 C 950.10 565.10 947.26 565.57 944.51 565.34 C 943.83 565.34 943.28 564.98 942.84 564.26 C 941.41 561.91 940.65 559.08 939.60 556.54 C 937.80 551.89 934.75 548.42 932.11 543.94 C 929.91 540.16 927.42 536.66 924.76 533.21 C 923.51 531.24 921.81 529.90 923.31 527.50 C 926.48 521.85 925.63 515.61 929.46 510.47 C 932.99 505.54 936.68 500.21 941.48 496.48 C 943.92 494.44 946.73 492.68 948.21 489.77 C 949.40 487.49 950.45 484.94 950.66 482.36 C 947.42 478.77 942.32 476.70 939.06 472.95 C 936.73 470.25 935.15 466.74 933.86 463.45 C 932.30 450.97 932.47 438.54 932.60 425.99 C 932.80 419.63 934.04 413.58 933.53 407.16 C 933.00 399.06 930.23 392.27 928.51 384.45 C 927.51 379.86 926.27 375.36 924.93 370.87 C 922.84 363.30 922.06 355.50 920.03 347.93 C 918.72 340.01 918.76 332.21 915.02 324.91 C 911.27 317.72 907.24 310.66 903.58 303.40 C 900.02 296.20 897.88 286.71 901.59 279.17 C 903.04 280.80 904.64 282.29 906.06 283.94 C 907.66 283.89 909.26 283.83 910.86 283.82 C 911.49 290.04 910.49 295.47 914.37 300.81 C 915.52 295.91 913.64 291.24 914.39 286.41 C 915.17 286.17 915.98 285.99 916.81 285.87 C 919.14 290.52 920.44 295.54 923.17 300.03 C 925.41 307.76 925.55 315.55 926.53 323.46 C 928.29 336.53 934.47 348.82 939.06 360.97 C 941.86 368.21 945.22 375.45 946.90 383.09 C 948.11 388.69 947.17 394.13 947.61 400.08 C 948.43 410.52 949.77 420.89 951.39 431.24 C 951.85 434.05 952.75 436.72 953.77 439.37 C 958.09 435.07 960.91 429.80 963.30 424.26 C 965.45 419.37 964.36 414.07 963.14 409.10 C 961.17 401.08 957.40 394.06 954.77 386.31 C 950.34 373.54 948.41 360.74 946.29 347.55 C 943.32 334.21 942.17 320.72 941.39 307.03 C 940.80 296.23 942.19 285.22 940.36 274.68 C 939.41 267.52 938.44 260.31 936.86 253.25 C 933.69 240.26 926.80 227.84 922.19 215.07 C 921.64 211.06 921.07 207.07 920.05 203.15 C 918.54 197.16 917.90 191.08 917.39 184.94 C 916.89 178.61 915.79 172.38 915.46 166.03 C 914.88 156.03 914.32 146.26 911.61 136.55 C 909.78 129.00 906.23 122.75 905.48 114.93 C 904.89 109.21 903.84 103.66 901.99 98.21 C 900.62 92.08 898.33 85.60 899.29 79.35 C 899.92 73.54 904.24 68.27 908.17 64.19 C 910.89 61.00 917.23 60.71 919.03 64.98 C 921.17 69.49 922.31 74.51 923.70 79.29 C 925.76 86.65 923.67 93.13 924.05 101.04 C 924.17 110.60 927.95 118.68 928.86 128.13 C 929.86 137.67 929.60 146.94 932.88 156.14 C 935.24 165.88 938.27 175.42 940.98 185.08 C 942.88 191.89 946.01 198.19 948.21 204.88 C 951.93 216.69 954.32 228.81 957.51 240.72 C 959.71 249.34 963.25 257.55 965.41 266.17 C 966.95 273.36 969.00 280.49 969.95 287.75 C 971.49 299.50 974.41 311.04 976.23 322.74 C 976.61 326.88 977.38 330.60 979.37 334.29 C 981.13 331.09 982.93 327.90 984.51 324.61 C 986.87 319.76 987.04 314.12 988.52 308.73 C 990.57 301.06 992.65 293.44 994.31 285.67 C 996.56 274.52 999.28 263.49 1001.15 252.25 C 1002.51 246.54 1003.50 240.85 1003.61 234.96 C 1003.82 225.92 1006.03 217.33 1008.72 208.77 C 1010.71 202.61 1012.04 196.31 1014.25 190.23 C 1015.85 187.24 1016.89 184.42 1017.16 181.00 C 1017.95 172.83 1020.60 165.21 1020.84 156.96 C 1021.08 146.91 1021.13 136.87 1020.36 126.84 C 1019.91 120.10 1023.09 115.26 1025.15 109.13 C 1027.73 102.06 1028.84 94.73 1029.34 87.25 C 1029.72 81.86 1031.14 77.64 1034.00 73.08 C 1036.88 69.64 1039.82 66.14 1043.11 63.09 C 1044.99 61.30 1047.20 61.29 1049.61 60.78 Z" fill="#1e2936"/>
</svg>
