<?xml version="1.0" encoding="UTF-8" standalone="no"?>
<!DOCTYPE svg PUBLIC "-//W3C//DTD SVG 1.1//EN" "http://www.w3.org/Graphics/SVG/1.1/DTD/svg11.dtd">
<svg viewBox="0 0 1365 768" height="768.0pt" width="1365.0pt" xmlns="http://www.w3.org/2000/svg" version="1.1">
<path d="M 928.51 68.58 C 929.61 71.38 929.28 74.86 929.60 77.82 C 929.79 80.73 930.81 83.35 931.98 85.99 C 934.49 91.56 937.03 97.27 938.80 103.13 C 940.76 109.74 941.01 116.15 942.26 122.88 C 943.39 129.24 945.53 135.51 947.13 141.83 C 948.17 146.03 949.54 150.12 950.95 154.20 C 951.93 158.20 952.84 162.22 953.93 166.19 C 955.67 172.66 958.87 178.45 960.90 184.86 C 963.34 192.41 965.81 199.94 968.35 207.46 C 970.79 214.65 972.07 221.87 975.20 228.83 C 980.22 240.53 987.27 252.02 988.21 264.99 C 988.68 271.51 989.20 277.86 991.59 284.02 C 994.37 276.49 996.27 268.62 997.74 260.74 C 998.58 256.36 998.27 252.17 997.13 247.88 C 995.72 239.99 993.95 231.97 993.61 223.95 C 993.16 215.56 995.11 206.87 996.55 198.58 C 999.19 183.97 1003.45 170.37 1004.43 155.51 C 1004.81 148.44 1003.63 141.37 999.45 135.51 C 996.83 131.54 993.64 127.52 994.61 122.44 C 996.17 115.76 1001.77 109.87 1006.25 104.94 C 1011.08 99.30 1010.41 90.06 1011.94 83.09 C 1012.49 79.73 1014.43 77.23 1016.77 74.89 C 1019.33 72.48 1022.03 69.54 1025.28 68.09 C 1028.93 66.71 1030.61 70.82 1032.84 72.85 C 1032.44 75.97 1032.06 79.09 1031.67 82.21 C 1031.00 87.33 1031.47 92.46 1030.76 97.58 C 1030.33 104.02 1029.02 110.32 1028.96 116.79 C 1028.86 121.12 1026.36 124.12 1025.11 128.18 C 1023.51 133.30 1023.99 138.74 1023.73 144.02 C 1021.83 151.16 1021.29 157.63 1021.65 165.00 C 1021.94 171.70 1021.34 178.31 1020.77 184.97 C 1020.29 197.36 1020.84 209.83 1019.98 222.21 C 1019.79 225.60 1020.16 228.94 1020.48 232.31 C 1020.59 237.16 1021.16 241.85 1022.09 246.62 C 1022.97 251.15 1022.75 255.68 1022.18 260.24 C 1021.13 268.51 1020.69 276.83 1019.91 285.13 C 1019.03 291.04 1022.74 294.85 1024.52 300.66 L 1025.57 299.69 C 1027.72 298.46 1029.96 297.44 1032.22 296.41 C 1032.44 298.48 1032.94 300.31 1032.29 302.35 C 1029.11 311.88 1025.42 321.06 1020.97 330.07 C 1015.91 336.45 1012.42 343.93 1011.65 352.09 C 1011.13 357.90 1010.20 363.83 1010.48 369.67 C 1011.18 377.22 1013.21 384.25 1015.66 391.39 C 1016.94 398.96 1018.24 406.43 1020.25 413.86 C 1021.76 420.21 1023.77 426.24 1023.53 432.87 C 1023.36 439.21 1021.30 444.42 1023.32 450.71 C 1024.93 456.63 1027.24 462.73 1023.36 468.31 C 1019.17 474.65 1009.74 476.01 1003.40 479.44 C 999.51 481.39 997.83 484.98 995.12 488.18 C 992.56 491.45 989.12 494.12 988.32 498.40 C 987.52 502.16 988.80 505.49 990.05 508.97 C 990.40 509.90 990.75 510.82 991.11 511.74 C 991.89 510.67 992.69 509.60 993.49 508.53 C 994.23 510.93 995.21 513.52 995.29 516.04 C 995.21 519.47 993.35 522.80 993.04 526.15 C 993.08 528.42 993.79 530.67 993.90 532.95 C 993.44 535.05 992.07 536.99 991.15 538.93 C 989.03 543.05 988.63 547.23 986.19 551.12 C 984.45 553.90 982.58 556.56 981.23 559.56 C 980.28 561.32 979.49 563.78 977.48 564.53 C 971.80 567.05 965.03 567.01 958.97 567.51 C 954.76 567.79 951.18 568.89 947.00 568.07 C 943.42 567.33 939.71 566.93 936.21 565.90 C 934.97 563.55 934.50 560.77 933.36 558.38 C 931.65 555.75 928.14 554.12 926.69 551.31 C 922.79 541.31 920.85 530.71 920.75 519.98 C 920.82 514.68 923.28 509.69 926.85 505.88 C 930.12 502.35 934.26 499.90 937.65 496.58 C 939.40 495.05 939.22 492.55 939.60 490.44 C 942.12 491.44 944.10 492.89 946.90 491.84 C 951.91 490.16 956.83 488.48 962.06 487.51 C 958.98 482.19 954.22 479.12 949.87 475.03 C 945.61 463.76 944.41 450.76 943.36 438.82 C 942.83 433.21 941.42 427.83 940.63 422.19 C 939.76 416.51 939.47 410.78 937.48 405.36 C 935.81 400.80 933.48 396.57 932.04 391.90 C 929.57 384.07 928.77 375.34 927.68 367.20 C 926.10 355.87 925.36 344.47 923.74 333.14 C 923.29 330.48 922.91 327.98 921.14 325.83 C 918.76 322.94 915.80 320.52 913.24 317.78 C 910.35 314.88 907.90 311.72 903.94 310.27 C 900.67 309.07 897.39 307.97 894.30 306.34 C 896.14 305.55 898.00 304.77 899.86 304.01 C 898.62 302.07 897.51 300.04 896.54 297.95 C 900.87 298.89 904.92 300.51 909.07 301.99 C 906.63 299.03 903.65 296.66 900.97 293.94 C 899.55 292.75 900.49 291.39 900.55 289.80 C 905.06 292.21 909.33 294.96 914.02 297.04 C 911.70 291.49 906.12 288.53 904.63 282.78 C 911.31 284.53 916.99 290.03 922.41 294.21 C 922.47 289.62 920.63 284.62 924.72 281.31 C 926.49 285.56 927.34 290.04 928.75 294.39 C 930.31 299.18 933.45 303.60 934.50 308.44 C 935.33 312.67 935.12 317.15 935.59 321.45 C 937.33 336.59 942.14 349.96 945.63 364.54 C 947.33 371.09 949.60 377.43 950.98 384.07 C 953.02 393.57 955.01 403.05 957.60 412.42 C 961.09 424.71 963.19 436.57 968.26 448.44 C 972.60 445.01 975.88 440.67 979.89 436.89 C 983.73 433.14 987.91 429.08 990.52 424.35 C 991.79 422.47 990.48 420.20 989.85 418.31 C 987.19 412.25 984.07 406.01 980.75 400.28 C 978.07 395.56 973.89 392.58 970.78 388.22 C 967.81 384.03 964.85 379.24 963.87 374.14 C 962.00 364.49 963.14 355.65 962.87 346.00 C 962.60 336.33 962.80 326.67 962.68 317.00 C 962.48 308.72 963.89 300.80 962.52 292.55 C 963.43 277.00 963.71 261.09 955.99 247.01 C 951.27 238.85 948.13 229.98 946.07 220.80 C 941.47 199.64 942.57 177.37 935.96 157.00 C 934.26 151.09 932.27 145.69 927.23 141.80 C 924.21 139.09 918.61 136.42 917.70 132.22 C 916.38 125.22 920.28 117.34 921.36 110.74 C 921.85 105.48 918.24 99.88 917.21 94.70 C 915.53 88.32 916.46 81.92 918.76 75.83 C 919.94 72.81 921.31 68.93 923.92 66.87 C 925.71 65.64 927.72 66.78 928.51 68.58 Z" fill="#1e2936"/>
</svg>
