<?xml version="1.0" encoding="UTF-8" standalone="no"?>
<!DOCTYPE svg PUBLIC "-//W3C//DTD SVG 1.1//EN" "http://www.w3.org/Graphics/SVG/1.1/DTD/svg11.dtd">
<svg viewBox="0 0 1365 768" height="768.0pt" width="1365.0pt" xmlns="http://www.w3.org/2000/svg" version="1.1">
<defs>
<mask id="mask">
<rect width="100%" height="100%" fill="#fff"/>
<path d="M 964.38 392.98 C 967.69 396.27 969.19 400.64 970.99 404.85 C 972.32 408.30 974.08 412.05 974.30 415.77 C 974.32 420.01 971.20 422.67 968.39 425.36 C 966.83 419.61 965.42 413.79 964.07 407.99 C 962.92 402.87 963.01 398.05 964.38 392.98 Z" fill="#000"/>
</mask>
</defs>
<path d="M 995.58 57.39 C 996.51 61.09 995.90 65.25 996.16 69.05 C 996.33 74.49 998.73 78.76 999.53 84.11 C 1000.16 88.11 1000.60 92.18 1000.91 96.21 C 1000.86 104.16 1001.84 112.04 1001.85 119.99 C 1001.79 126.78 1003.61 133.19 1003.96 139.97 C 1004.44 149.31 1006.14 158.50 1006.53 167.85 C 1007.61 180.55 1008.46 193.24 1008.34 206.00 C 1008.53 217.24 1008.53 228.97 1011.15 239.95 C 1012.60 246.33 1012.25 252.60 1012.91 259.25 C 1013.56 267.22 1012.79 275.06 1012.63 283.02 C 1012.50 289.65 1011.31 296.14 1010.94 302.75 C 1010.04 313.78 1009.00 324.95 1007.11 335.86 C 1005.99 342.26 1005.39 348.70 1005.89 355.19 C 1006.63 364.18 1004.34 372.82 1005.50 381.81 C 1006.71 396.00 1011.69 409.14 1011.16 423.04 C 1011.13 427.63 1010.31 432.09 1009.70 436.62 C 1008.41 444.78 1013.74 451.58 1012.37 460.04 C 1012.13 465.19 1007.03 467.68 1003.48 470.52 C 995.40 476.05 989.01 483.87 986.65 493.49 C 985.40 498.74 988.52 502.51 990.95 506.79 C 989.54 506.81 988.12 506.83 986.71 506.86 C 987.56 510.05 988.16 513.02 990.40 515.60 C 992.87 518.81 997.17 522.10 998.21 526.08 C 998.15 530.16 996.60 534.32 995.46 538.21 C 993.34 545.14 989.54 550.76 985.87 556.96 C 983.23 557.00 979.85 556.37 977.40 557.51 C 973.55 560.05 970.83 563.65 966.46 565.56 C 961.65 567.66 956.33 569.87 951.05 570.15 C 945.82 569.81 940.56 567.51 935.99 565.05 C 932.61 563.20 931.69 559.98 929.84 556.85 C 927.30 552.14 923.35 549.22 921.80 543.89 C 920.70 540.44 922.17 536.56 922.22 533.01 C 921.88 529.42 916.27 525.59 918.12 521.91 C 921.12 514.21 919.88 507.36 926.42 501.38 C 929.28 498.27 932.36 499.78 935.95 498.82 C 938.34 497.87 940.45 496.03 942.56 494.57 C 947.88 490.60 953.70 488.54 959.48 485.18 C 955.70 479.25 950.96 475.35 948.33 468.77 C 947.98 455.55 949.48 442.21 950.30 429.02 C 950.43 425.53 949.93 422.16 949.58 418.72 C 949.20 413.91 948.91 409.11 948.71 404.28 C 948.36 396.72 946.97 389.30 944.93 382.02 C 944.89 375.91 944.95 369.81 944.47 363.71 C 943.83 356.33 945.41 349.48 944.09 342.23 C 942.48 333.33 942.20 324.30 940.61 315.40 C 938.99 306.60 939.77 295.76 945.18 288.34 C 946.88 285.71 947.80 282.83 948.90 279.92 C 951.18 276.29 954.72 275.24 957.96 272.83 C 959.58 270.10 959.44 266.12 959.94 263.02 C 960.58 255.42 963.20 249.46 962.64 242.18 C 961.99 233.58 959.05 226.24 956.68 218.08 C 955.45 213.77 953.44 209.39 952.88 204.98 C 951.94 195.77 953.06 187.09 953.54 178.00 C 953.51 166.33 954.20 153.64 951.60 142.27 C 950.20 135.85 944.23 131.19 943.11 124.96 C 943.26 118.73 946.94 112.85 947.43 106.55 C 948.20 99.52 943.76 93.42 943.31 86.08 C 942.88 81.80 944.10 77.83 946.00 74.04 C 950.17 70.45 953.54 66.24 957.33 62.29 C 959.12 60.25 962.90 60.74 963.42 63.62 C 963.99 67.52 963.30 71.59 963.56 75.54 C 964.26 86.32 965.23 97.21 965.09 108.03 C 965.09 110.75 965.41 113.39 966.02 116.04 C 967.90 122.63 968.19 129.20 968.27 136.01 C 968.34 145.22 970.99 153.58 972.40 162.58 C 973.33 168.43 974.65 174.19 975.98 179.96 C 978.02 188.60 978.00 197.47 980.01 206.12 C 981.50 212.53 981.27 218.92 981.68 225.42 C 982.17 232.59 985.61 238.66 985.75 245.81 C 985.80 249.46 986.19 252.91 987.63 256.30 C 989.03 250.69 988.93 245.89 987.50 240.30 C 984.46 228.96 982.03 216.76 982.63 204.97 C 983.32 193.75 985.39 182.63 986.48 171.40 C 987.71 161.59 989.35 150.82 986.93 141.04 C 985.14 133.96 976.57 130.40 974.14 124.75 C 973.34 120.71 975.68 115.85 976.97 112.05 C 978.58 107.96 980.18 104.15 980.53 99.70 C 981.09 92.21 978.12 84.32 978.77 76.95 C 979.10 73.06 981.88 69.27 983.69 65.87 C 985.56 62.71 987.35 58.40 990.76 56.65 C 992.41 55.89 994.83 55.07 995.58 57.39 Z" fill="#1e2936" mask="url(#mask)"/>
</svg>
