<?xml version="1.0" encoding="UTF-8" standalone="no"?>
<!DOCTYPE svg PUBLIC "-//W3C//DTD SVG 1.1//EN" "http://www.w3.org/Graphics/SVG/1.1/DTD/svg11.dtd">
<svg viewBox="0 0 1365 768" height="768.0pt" width="1365.0pt" xmlns="http://www.w3.org/2000/svg" version="1.1">
<defs>
<mask id="mask">
<rect width="100%" height="100%" fill="#fff"/>
<path d="M 959.12 387.66 C 963.11 392.71 965.25 398.20 968.14 403.92 C 969.83 407.61 971.93 411.89 972.02 416.00 C 971.87 420.61 967.98 423.68 964.84 426.51 C 962.84 421.42 961.29 416.19 959.96 410.89 C 958.00 403.45 958.27 395.25 959.12 387.66 Z M 950.79 321.01 C 951.50 325.70 952.32 330.53 952.23 335.28 C 952.22 336.83 951.45 337.92 950.75 339.22 C 949.14 333.66 948.27 327.75 948.63 321.95 C 949.35 321.63 950.06 321.32 950.79 321.01 Z" fill="#000"/>
</mask>
</defs>
<path d="M 1007.58 57.43 C 1008.34 59.87 1008.16 62.68 1008.20 65.21 C 1007.93 70.61 1008.77 75.69 1010.12 80.89 C 1013.25 94.57 1010.45 108.98 1013.24 122.53 C 1012.14 133.53 1014.64 144.03 1014.62 154.98 C 1014.62 167.28 1016.84 178.67 1016.01 190.96 C 1015.53 198.98 1015.90 206.97 1015.84 215.00 C 1015.82 221.92 1015.28 229.19 1016.14 236.00 C 1016.66 240.41 1017.70 244.51 1017.88 248.97 C 1018.16 255.69 1016.81 262.63 1016.50 269.42 C 1016.18 276.39 1016.32 283.33 1015.51 290.29 C 1014.92 296.77 1013.36 302.79 1014.83 309.24 C 1015.24 311.16 1015.85 312.95 1016.36 314.84 C 1016.88 322.43 1015.87 329.82 1014.69 337.29 C 1013.62 349.04 1015.17 361.00 1013.94 372.77 C 1013.30 378.54 1012.61 384.48 1011.12 390.09 C 1009.79 395.13 1008.28 399.73 1008.42 405.04 C 1008.62 410.76 1009.80 416.26 1009.30 422.04 C 1008.99 429.17 1006.33 436.42 1007.98 443.28 C 1009.06 448.41 1010.95 453.02 1009.61 458.35 C 1008.44 463.21 1004.82 466.09 1001.38 469.38 C 996.66 473.67 992.98 479.09 989.37 484.36 C 986.05 488.89 985.14 495.71 987.05 500.90 C 989.61 502.74 992.44 504.18 994.97 506.09 C 992.33 506.76 989.67 507.37 987.00 507.93 C 987.69 510.08 988.33 512.58 989.66 514.41 C 992.02 517.62 995.66 519.97 997.91 523.22 C 999.12 524.91 998.26 527.75 997.94 529.63 C 996.51 535.26 995.58 541.64 992.75 546.68 C 990.84 550.18 988.79 553.60 986.81 557.05 C 983.75 556.37 980.51 555.37 977.36 555.38 C 975.14 556.56 973.50 559.00 971.79 560.80 C 968.22 564.97 963.39 567.94 958.10 569.35 C 954.64 570.34 950.84 568.77 947.45 567.96 C 944.29 567.04 940.81 566.58 937.83 565.16 C 935.93 563.78 934.61 561.51 933.15 559.69 C 930.13 555.49 926.28 553.14 925.04 547.80 C 923.28 543.10 923.70 538.42 923.13 533.60 C 920.91 530.26 918.22 527.61 917.01 523.63 C 918.22 523.45 919.43 523.27 920.64 523.10 C 920.12 516.84 920.52 510.80 923.18 505.02 C 925.82 501.05 929.01 497.50 932.55 494.31 C 932.44 496.83 932.11 499.39 931.59 501.85 C 937.21 498.69 942.35 495.31 947.49 491.42 C 950.51 489.09 953.63 488.15 957.38 487.71 C 956.52 490.19 955.53 492.63 954.46 495.03 C 957.28 494.04 960.07 493.00 962.82 491.83 C 961.71 488.08 960.85 483.81 958.08 480.92 C 954.43 476.95 948.82 473.40 946.54 468.39 C 945.07 464.65 945.53 459.96 945.59 456.00 C 946.04 448.82 945.70 441.74 946.67 434.63 C 947.56 428.70 946.25 423.17 945.92 416.88 C 945.15 404.43 941.21 392.72 940.23 380.33 C 939.63 374.29 939.75 368.24 939.38 362.19 C 938.30 347.93 936.91 333.42 934.25 319.36 C 932.67 312.83 932.13 306.49 932.67 299.77 C 934.86 291.97 937.10 283.62 941.47 276.73 C 942.81 277.90 944.15 279.08 945.49 280.26 C 947.52 278.19 950.24 276.16 951.54 273.54 C 952.41 270.59 952.44 267.34 952.81 264.30 C 953.64 256.91 954.97 249.62 955.06 241.99 C 955.16 235.45 952.68 228.80 950.38 222.75 C 947.87 216.11 944.55 210.30 944.30 203.05 C 943.85 190.35 945.04 177.69 944.29 164.98 C 943.92 157.89 943.01 150.73 941.38 143.81 C 939.95 137.73 935.02 132.78 934.34 126.78 C 933.80 120.24 937.76 113.90 936.99 106.99 C 936.22 100.19 932.67 93.16 932.42 85.98 C 932.27 81.80 933.92 78.20 936.15 74.77 C 938.93 71.40 941.69 67.83 945.01 64.98 C 946.55 63.40 949.35 64.26 951.34 64.30 C 952.81 77.16 952.92 90.09 954.16 102.96 C 954.75 109.73 956.71 116.21 957.14 123.01 C 957.43 127.48 958.04 131.87 958.79 136.28 C 960.20 149.85 963.71 163.20 966.42 176.57 C 968.88 186.52 970.22 196.76 971.35 206.93 C 971.76 213.80 972.29 220.55 973.86 227.27 C 974.63 235.84 980.07 242.12 979.70 250.60 C 979.57 257.76 979.52 264.91 979.93 272.07 C 980.38 278.41 979.99 284.35 982.03 290.48 C 984.46 285.80 985.06 280.81 986.77 275.89 C 988.76 270.10 989.83 264.15 990.89 258.15 C 992.28 253.02 993.99 248.41 994.09 243.00 C 994.26 234.73 990.85 227.45 990.28 218.97 C 989.55 207.78 990.99 196.20 993.09 185.22 C 994.46 178.17 994.98 171.05 995.98 163.95 C 996.90 156.88 997.57 149.44 996.58 142.35 C 995.97 137.96 993.45 134.64 990.28 131.71 C 987.69 129.04 983.90 126.35 984.36 122.14 C 985.19 113.72 990.36 105.97 991.37 97.42 C 992.34 90.27 989.72 83.94 989.97 77.04 C 990.12 72.87 992.50 69.53 994.79 66.23 C 997.36 63.11 999.57 59.24 1002.77 56.75 C 1004.29 56.08 1006.83 55.40 1007.58 57.43 Z" fill="#1e2936" mask="url(#mask)"/>
</svg>
