<?xml version="1.0" encoding="UTF-8" standalone="no"?>
<!DOCTYPE svg PUBLIC "-//W3C//DTD SVG 1.1//EN" "http://www.w3.org/Graphics/SVG/1.1/DTD/svg11.dtd">
<svg viewBox="0 0 1365 768" height="768.0pt" width="1365.0pt" xmlns="http://www.w3.org/2000/svg" version="1.1">
<defs>
<mask id="mask">
<rect width="100%" height="100%" fill="#fff"/>
<path d="M 1022.71 286.92 C 1023.95 297.08 1023.68 307.76 1026.12 317.92 C 1027.22 322.38 1029.10 326.28 1028.56 330.98 C 1027.77 337.94 1024.69 344.95 1022.57 351.63 C 1020.59 357.85 1018.16 363.91 1016.07 370.09 C 1012.12 381.56 1012.34 393.54 1008.10 405.14 C 1007.26 407.52 1005.86 409.53 1004.54 411.66 C 1004.24 398.46 1006.44 385.09 1007.84 371.99 C 1008.53 365.36 1008.33 359.04 1009.70 352.47 C 1012.63 340.00 1015.11 327.43 1017.94 314.94 C 1020.12 305.68 1020.33 296.11 1022.71 286.92 Z" fill="#000"/>
</mask>
</defs>
<path d="M 1029.20 57.75 C 1035.31 62.30 1035.92 68.89 1036.03 75.97 C 1036.16 84.59 1036.24 93.05 1035.10 101.62 C 1034.43 106.65 1033.69 111.66 1032.98 116.68 C 1032.23 121.80 1032.56 126.87 1032.20 132.01 C 1031.83 137.38 1030.56 142.57 1030.36 147.97 C 1029.89 161.82 1031.29 176.08 1029.97 189.87 C 1029.19 195.73 1028.47 201.59 1027.81 207.46 C 1026.99 214.57 1024.36 221.21 1023.63 228.30 C 1022.72 238.56 1022.92 248.76 1022.83 259.04 C 1022.84 265.37 1020.65 272.14 1021.70 278.35 C 1022.21 281.45 1025.12 281.93 1027.49 283.24 C 1027.51 280.44 1027.51 277.64 1027.58 274.84 C 1032.24 276.89 1035.45 280.61 1038.23 284.75 C 1040.11 287.55 1040.16 290.75 1040.42 294.00 C 1040.78 302.04 1041.69 309.93 1041.20 318.00 C 1040.86 328.76 1038.89 339.29 1038.16 350.01 C 1037.61 357.04 1037.52 363.98 1036.02 370.91 C 1034.71 376.83 1034.22 383.31 1031.98 388.87 C 1029.36 395.47 1025.72 401.75 1023.86 408.63 C 1021.31 417.96 1020.50 427.00 1018.74 436.48 C 1017.29 444.32 1016.97 451.79 1014.67 459.48 C 1013.51 463.29 1012.05 467.28 1009.24 470.21 C 1003.57 475.95 995.67 479.35 989.83 484.83 C 984.95 489.62 986.35 498.30 986.53 504.49 C 992.31 505.06 998.09 504.69 1003.86 505.24 C 999.45 507.87 994.29 508.14 989.86 510.82 C 990.37 511.37 990.87 511.92 991.38 512.47 C 993.51 512.26 995.64 512.05 997.78 511.85 C 997.33 513.42 996.88 514.99 996.43 516.55 C 997.93 516.43 999.44 516.31 1000.95 516.19 C 1001.25 516.66 1001.55 517.12 1001.85 517.59 C 998.58 523.58 998.91 529.58 997.36 536.07 C 996.22 540.98 995.61 546.10 994.03 550.89 C 992.53 555.72 987.43 558.60 983.80 561.82 C 980.69 564.25 977.66 567.93 973.91 569.27 C 969.61 569.34 965.41 567.55 961.06 567.44 C 957.31 567.13 953.04 567.79 949.44 566.63 C 945.74 564.81 943.02 560.86 939.78 558.27 C 936.68 555.48 932.16 553.12 930.93 548.92 C 929.53 544.46 929.67 539.31 929.35 534.66 C 927.49 532.94 925.22 531.13 924.00 528.89 C 924.51 526.41 925.61 524.04 926.34 521.60 C 927.46 518.02 927.47 514.59 927.88 510.93 C 930.81 505.52 932.36 499.75 933.70 493.79 C 935.13 496.61 936.58 499.43 938.03 502.24 C 946.34 497.16 954.29 491.75 963.24 487.76 C 961.50 485.09 959.99 482.56 957.38 480.62 C 953.00 477.25 946.58 475.19 943.44 470.55 C 939.88 465.31 938.89 458.14 938.20 451.98 C 937.40 444.53 936.52 437.13 934.91 429.81 C 934.10 424.78 933.30 419.73 932.14 414.76 C 930.92 409.50 928.52 404.76 927.40 399.49 C 926.44 395.16 926.22 390.83 925.29 386.49 C 924.02 380.48 920.71 375.30 919.63 369.19 C 917.69 358.58 916.44 348.18 913.06 337.83 C 911.18 332.26 909.56 326.62 908.05 320.93 C 906.40 309.71 908.36 298.71 912.18 288.13 C 912.79 286.10 914.34 285.27 915.87 284.00 C 916.76 286.21 917.82 288.59 918.04 290.99 C 918.39 295.16 917.48 299.54 917.81 303.73 C 918.20 307.97 920.15 311.87 922.00 315.65 C 924.07 311.67 925.34 307.30 927.53 303.41 C 928.48 301.64 932.08 301.91 932.40 304.10 C 932.29 306.10 931.61 308.10 931.08 310.02 C 928.63 317.78 927.82 326.13 927.18 334.21 C 926.73 339.78 928.95 344.19 931.09 349.11 C 935.14 361.87 940.76 373.94 941.98 387.03 C 942.71 394.11 943.66 401.06 946.17 407.77 C 949.37 416.47 953.30 424.94 957.42 433.24 C 962.01 429.80 965.42 425.39 968.98 420.96 C 967.45 414.83 965.45 409.00 962.92 403.21 C 960.49 397.44 957.29 392.08 954.92 386.28 C 951.17 376.87 946.51 368.88 944.45 358.81 C 943.31 353.50 943.53 348.34 943.36 342.97 C 943.23 338.70 942.63 334.51 942.06 330.29 C 942.00 319.13 940.16 308.14 940.26 297.00 C 940.33 286.58 939.81 276.27 940.98 265.88 C 941.42 257.42 941.51 248.62 940.98 240.17 C 940.65 235.42 939.06 231.22 936.83 227.07 C 933.22 220.36 931.12 213.23 929.07 205.93 C 927.64 200.71 927.11 195.39 926.84 190.00 C 926.43 180.65 925.31 171.35 924.87 162.00 C 924.14 154.52 923.13 145.57 918.57 139.37 C 916.74 136.58 914.91 134.10 914.17 130.76 C 912.60 123.51 913.45 115.55 911.70 108.27 C 910.51 103.25 908.08 98.94 907.17 93.80 C 906.20 88.01 906.17 82.26 908.83 76.89 C 910.49 73.54 912.47 69.77 915.41 67.39 C 917.10 66.06 920.20 65.29 921.76 67.18 C 924.28 70.40 925.10 75.21 925.82 79.15 C 927.23 88.41 928.65 97.66 930.12 106.91 C 931.33 114.60 933.83 121.89 935.46 129.48 C 936.69 135.20 936.93 140.87 938.37 146.54 C 940.38 154.26 942.71 161.82 945.68 169.23 C 950.41 183.78 955.02 197.79 956.80 213.07 C 957.48 219.53 958.27 225.92 960.03 232.19 C 961.08 236.94 962.95 241.39 963.97 246.14 C 965.48 252.94 965.32 260.01 966.24 267.06 C 967.28 275.17 967.47 283.31 968.87 291.38 C 970.23 299.18 971.29 307.09 973.23 314.76 C 974.73 320.75 975.40 326.67 978.07 332.33 C 980.50 326.12 981.45 319.72 983.15 313.31 C 984.80 306.94 986.44 300.56 988.29 294.24 C 990.07 289.04 991.59 283.86 992.00 278.35 C 993.82 271.11 996.04 263.92 997.49 256.59 C 998.37 251.45 999.20 246.30 1000.06 241.15 C 1001.29 233.62 1000.44 226.49 1000.89 218.96 C 1001.26 212.52 1002.56 206.00 1003.47 199.59 C 1004.55 192.01 1005.97 184.49 1008.04 177.12 C 1010.02 170.28 1011.61 163.40 1012.08 156.28 C 1012.88 150.08 1015.20 143.48 1014.72 137.24 C 1013.61 132.87 1008.23 129.15 1007.71 124.05 C 1006.91 118.19 1010.14 113.22 1011.62 107.76 C 1012.94 102.75 1013.74 97.58 1014.47 92.46 C 1015.17 87.51 1014.19 82.89 1014.10 77.98 C 1014.01 73.21 1015.74 68.73 1017.33 64.31 C 1018.23 62.12 1019.17 59.46 1020.88 57.77 C 1023.25 55.91 1026.82 55.85 1029.20 57.75 Z" fill="#1e2936" mask="url(#mask)"/>
</svg>
