<?xml version="1.0" encoding="UTF-8" standalone="no"?>
<!DOCTYPE svg PUBLIC "-//W3C//DTD SVG 1.1//EN" "http://www.w3.org/Graphics/SVG/1.1/DTD/svg11.dtd">
<svg viewBox="0 0 1365 768" height="768.0pt" width="1365.0pt" xmlns="http://www.w3.org/2000/svg" version="1.1">
<path d="M 1032.76 56.21 C 1035.72 57.82 1038.90 59.51 1040.66 62.51 C 1042.66 66.04 1043.71 70.16 1043.75 74.22 C 1043.84 82.48 1042.54 90.35 1041.77 98.47 C 1041.27 110.21 1037.14 121.24 1036.05 133.00 C 1035.20 142.98 1034.40 152.96 1034.20 162.98 C 1034.06 171.35 1032.89 179.63 1032.94 188.00 C 1033.05 198.04 1031.12 208.39 1029.11 218.22 C 1027.32 227.04 1024.03 234.98 1023.84 244.10 C 1022.58 253.50 1023.71 262.68 1023.32 272.08 C 1023.21 275.80 1023.25 279.52 1023.17 283.24 C 1022.89 293.15 1022.20 302.77 1020.64 312.56 C 1019.69 322.67 1017.05 332.41 1015.58 342.43 C 1014.43 349.84 1011.67 356.55 1011.37 364.13 C 1010.84 374.66 1009.75 385.11 1007.38 395.40 C 1005.71 402.60 1005.53 409.62 1005.21 416.98 C 1005.06 420.18 1005.48 423.26 1006.27 426.35 C 1008.03 424.47 1009.28 422.59 1010.07 420.11 C 1012.19 413.88 1014.26 407.52 1016.12 401.20 C 1019.26 392.55 1019.94 383.51 1022.50 374.70 C 1024.60 366.46 1028.36 358.98 1030.84 350.89 C 1032.37 345.98 1032.92 341.03 1034.19 336.04 C 1035.14 332.09 1036.38 328.16 1035.73 324.04 C 1035.00 319.59 1033.16 315.66 1033.09 311.05 C 1033.02 306.13 1032.87 301.26 1032.50 296.35 C 1032.18 293.25 1033.45 290.81 1034.65 288.08 C 1033.04 286.35 1031.42 284.63 1029.80 282.90 C 1031.23 280.71 1032.72 278.58 1034.28 276.47 C 1036.34 277.79 1038.24 279.19 1040.07 280.80 C 1042.54 283.58 1046.14 286.34 1047.12 289.98 C 1048.16 293.21 1049.28 296.41 1050.36 299.62 C 1051.94 304.05 1050.76 309.48 1050.34 314.09 C 1049.09 328.04 1046.30 341.94 1045.29 355.96 C 1044.84 365.48 1044.20 374.76 1040.95 383.82 C 1038.83 389.88 1035.41 395.01 1032.95 400.90 C 1029.78 408.18 1028.45 416.70 1026.67 424.47 C 1023.68 437.02 1022.44 449.77 1019.21 462.32 C 1017.52 467.43 1013.58 472.27 1008.92 474.96 C 1004.21 477.67 999.20 479.58 994.70 482.71 C 990.70 485.56 987.01 488.24 986.36 493.48 C 988.21 492.74 990.05 491.99 991.87 491.20 C 990.64 496.29 990.52 501.31 990.85 506.52 C 997.48 504.43 1003.49 502.25 1010.56 503.70 C 1005.94 506.73 1001.19 507.81 998.46 513.07 C 1002.09 512.11 1005.53 511.55 1009.30 512.00 C 1007.67 515.29 1005.07 517.75 1003.04 520.74 C 1002.70 522.49 1003.39 524.52 1003.58 526.28 C 1004.22 529.54 1003.89 532.73 1003.36 535.97 C 1004.31 532.84 1005.56 529.98 1007.18 527.14 C 1009.43 532.86 1007.91 538.53 1006.39 544.21 C 1004.90 549.53 1001.35 553.73 996.93 556.90 C 993.67 559.20 990.24 560.58 987.37 563.34 C 985.00 565.55 982.92 568.50 980.21 570.27 C 979.49 570.74 978.80 570.85 978.15 570.62 C 974.23 569.54 971.06 567.44 966.84 567.31 C 962.70 567.21 958.55 567.63 954.40 567.71 C 952.39 564.15 950.68 560.46 948.98 556.75 C 948.15 556.69 947.32 556.63 946.49 556.56 C 937.24 552.86 931.73 541.59 932.94 531.96 C 933.65 525.82 935.05 519.74 936.10 513.64 C 938.00 507.56 936.35 501.88 936.90 495.74 C 939.44 497.78 941.44 500.87 944.16 502.56 C 947.39 501.24 950.17 498.85 953.27 497.23 C 956.98 495.06 961.45 493.37 964.64 490.48 C 965.32 488.20 964.08 486.03 962.64 484.35 C 957.63 478.93 950.98 476.55 945.23 472.73 C 941.13 469.94 940.04 465.34 939.06 460.78 C 937.07 450.17 934.71 439.62 932.95 428.97 C 932.15 423.48 931.06 418.11 928.84 413.01 C 924.68 403.44 920.86 393.91 918.06 383.83 C 915.79 375.13 912.86 366.68 910.94 357.90 C 909.21 350.03 907.08 342.19 905.66 334.26 C 904.76 329.30 904.71 324.73 902.78 320.07 C 901.50 316.54 899.54 313.89 900.81 309.98 C 902.55 303.97 903.73 298.00 904.82 291.85 C 905.27 290.91 905.72 289.99 906.18 289.06 C 907.37 289.45 908.56 289.83 909.75 290.21 C 909.81 293.82 909.65 297.41 909.50 301.01 C 909.14 307.76 909.39 314.12 913.85 319.60 C 916.05 315.98 917.45 312.05 919.26 308.26 C 920.16 306.76 920.74 305.05 922.79 305.07 C 923.55 305.80 924.79 306.90 924.59 308.06 C 924.39 311.22 923.21 314.39 922.50 317.47 C 921.32 322.10 921.12 326.81 920.53 331.69 C 920.16 335.55 919.48 339.54 920.76 343.30 C 922.24 347.61 924.40 351.67 926.03 355.93 C 929.39 364.59 934.03 372.39 936.57 381.40 C 939.24 389.65 938.63 397.54 942.51 405.43 C 947.43 415.58 951.65 426.01 955.78 436.50 C 956.40 436.50 957.02 436.50 957.63 436.50 C 960.90 432.51 964.41 428.73 967.71 424.77 C 969.90 422.21 968.33 417.32 967.44 414.43 C 965.47 408.72 963.03 403.21 960.07 397.93 C 957.91 392.41 955.61 386.94 953.42 381.42 C 950.93 375.12 947.73 369.50 946.10 362.84 C 943.14 350.82 942.88 337.50 941.64 325.17 C 941.06 318.01 939.85 311.19 939.81 304.00 C 939.77 294.13 939.98 284.29 939.43 274.42 C 939.00 266.95 938.68 259.49 938.77 252.00 C 938.74 246.74 939.05 241.70 937.27 236.66 C 935.31 231.10 932.49 225.87 930.60 220.27 C 928.64 214.54 926.69 208.79 924.88 203.01 C 922.05 193.93 921.99 184.84 920.75 175.21 C 919.54 165.69 920.26 154.70 917.28 145.61 C 915.23 139.12 909.29 135.35 907.91 128.98 C 906.41 122.21 906.94 114.59 905.12 107.80 C 903.62 102.25 900.23 97.53 899.16 91.82 C 898.47 88.17 899.06 84.65 899.66 81.05 C 901.28 76.65 902.97 70.71 906.80 67.74 C 909.48 65.41 913.86 66.50 915.34 69.66 C 917.22 73.47 917.74 78.16 918.71 82.28 C 919.43 85.74 920.67 89.01 921.87 92.33 C 923.58 101.26 924.18 109.77 926.67 118.35 C 927.73 122.20 929.14 125.95 930.16 129.81 C 931.69 135.56 931.23 141.37 932.93 147.11 C 936.89 160.14 942.29 172.47 946.99 185.17 C 948.70 190.92 951.17 196.03 951.95 202.06 C 953.01 209.97 954.05 218.29 956.04 226.12 C 957.77 232.54 960.15 238.80 961.82 245.24 C 962.72 250.18 963.78 254.88 963.71 259.93 C 963.69 263.04 963.68 266.13 964.10 269.22 C 964.95 275.45 964.56 281.53 966.56 287.60 C 969.78 298.04 970.17 308.72 974.09 318.87 C 975.70 325.35 976.18 331.69 979.64 337.48 C 981.95 332.29 983.23 326.83 984.33 321.29 C 986.16 312.06 989.38 303.23 991.01 293.95 C 992.18 286.99 994.33 280.27 995.42 273.31 C 996.43 266.16 998.09 259.13 999.00 251.97 C 1000.33 241.06 1003.90 231.11 1004.49 219.94 C 1004.74 214.60 1004.96 209.28 1005.74 203.98 C 1006.64 196.89 1008.72 190.25 1010.14 183.26 C 1011.29 179.04 1012.63 174.88 1013.54 170.59 C 1015.72 160.13 1019.27 151.01 1019.48 140.09 C 1019.56 134.60 1015.64 130.62 1014.82 125.01 C 1014.12 120.11 1014.78 114.90 1015.84 110.09 C 1017.79 106.98 1019.75 104.12 1020.42 100.41 C 1021.60 93.61 1021.86 86.57 1021.49 79.68 C 1021.15 74.07 1023.17 68.13 1025.01 62.90 C 1026.22 59.26 1029.20 57.21 1032.76 56.21 Z" fill="#1e2936"/>
</svg>
