<?xml version="1.0" encoding="UTF-8" standalone="no"?>
<!DOCTYPE svg PUBLIC "-//W3C//DTD SVG 1.1//EN" "http://www.w3.org/Graphics/SVG/1.1/DTD/svg11.dtd">
<svg viewBox="0 0 1365 768" height="768.0pt" width="1365.0pt" xmlns="http://www.w3.org/2000/svg" version="1.1">
<path d="M 1043.77 60.23 C 1047.40 63.52 1051.47 68.50 1050.72 73.72 C 1049.98 82.15 1046.45 90.41 1045.96 99.00 C 1045.64 104.99 1044.09 110.76 1043.57 116.73 C 1042.98 122.74 1040.17 128.04 1039.99 134.12 C 1036.95 142.89 1037.79 151.40 1036.43 160.39 C 1035.67 165.99 1036.05 171.62 1035.39 177.24 C 1034.71 182.85 1035.13 188.41 1035.06 194.03 C 1035.01 198.22 1034.09 202.18 1033.33 206.27 C 1032.36 211.48 1032.12 216.47 1030.53 221.57 C 1029.54 224.71 1028.67 227.83 1028.04 231.07 C 1025.59 237.25 1023.49 243.26 1023.11 249.98 C 1022.80 254.95 1024.02 259.71 1023.40 264.69 C 1022.89 268.63 1022.74 272.33 1023.13 276.30 C 1022.60 283.28 1023.99 290.13 1022.97 297.03 C 1021.81 306.43 1021.57 315.87 1019.99 325.23 C 1018.60 333.00 1018.08 340.55 1015.95 348.13 C 1013.47 356.57 1012.98 365.95 1012.36 374.70 C 1011.38 385.57 1008.19 395.97 1007.46 406.84 C 1007.09 411.58 1005.60 416.07 1006.10 420.61 C 1006.59 424.27 1006.43 427.78 1009.03 430.66 C 1010.55 427.99 1011.53 425.15 1012.37 422.21 C 1015.36 411.99 1020.61 403.06 1023.71 392.78 C 1025.60 386.54 1024.70 380.10 1026.82 373.85 C 1028.43 367.77 1031.81 362.49 1033.53 356.46 C 1035.31 350.46 1037.26 344.55 1038.50 338.40 C 1039.35 334.05 1040.78 329.53 1040.78 325.10 C 1040.73 322.33 1039.28 320.35 1037.91 318.08 C 1037.46 313.35 1037.20 308.63 1037.60 303.88 C 1037.95 299.97 1037.06 296.14 1037.28 292.25 C 1039.40 291.08 1040.66 292.68 1041.86 294.25 C 1043.42 296.61 1043.58 300.02 1044.35 302.72 C 1044.58 304.22 1045.50 304.48 1046.73 305.05 C 1046.83 301.37 1047.23 297.25 1046.21 293.67 C 1044.63 289.68 1041.34 288.82 1038.09 286.62 C 1037.22 284.69 1039.56 283.65 1040.74 282.56 C 1044.58 281.73 1045.63 281.97 1048.81 284.17 C 1051.65 286.43 1058.00 286.72 1057.96 291.08 C 1058.67 296.00 1059.21 301.06 1059.00 306.03 C 1058.43 312.54 1056.55 318.96 1055.48 325.40 C 1054.12 334.00 1052.20 342.38 1052.01 351.12 C 1050.21 361.57 1049.44 371.88 1046.15 382.11 C 1042.61 392.09 1035.21 400.23 1033.53 410.41 C 1032.15 417.38 1030.02 424.11 1027.96 430.90 C 1025.94 437.37 1025.38 444.07 1023.63 450.62 C 1022.41 455.18 1021.68 459.86 1020.42 464.41 C 1018.66 470.91 1013.63 476.93 1007.17 479.13 C 1002.58 480.75 997.64 482.23 993.19 484.29 C 989.70 485.88 987.05 489.14 986.86 493.07 C 990.80 491.90 993.84 489.33 997.99 488.74 C 997.03 491.47 994.92 494.10 994.33 496.86 C 995.73 500.18 997.73 503.21 999.16 506.52 C 1002.38 505.30 1005.72 504.18 1008.84 502.71 C 1010.73 502.84 1012.60 503.08 1014.38 503.73 C 1011.46 506.38 1007.39 508.39 1007.71 512.95 C 1007.92 516.93 1010.84 517.35 1013.11 519.86 C 1016.03 526.13 1015.97 534.14 1015.61 540.91 C 1014.49 547.74 1009.99 554.53 1003.60 557.51 C 997.81 560.55 992.86 564.63 987.92 568.85 C 985.34 571.12 982.24 570.99 979.01 570.81 C 975.89 570.54 972.98 568.49 969.94 567.74 C 966.04 567.58 962.64 569.70 959.36 566.65 C 957.07 563.52 956.35 559.55 953.40 556.60 C 951.87 554.89 949.95 554.68 947.88 553.99 C 939.30 548.94 934.75 538.79 935.98 528.98 C 936.19 523.13 940.19 520.35 942.29 515.38 C 943.94 511.07 941.96 505.51 941.90 500.92 C 944.20 501.60 945.70 502.92 947.34 504.59 C 951.51 499.82 955.36 496.86 961.02 494.01 C 962.68 493.31 964.32 492.59 965.94 491.82 C 965.39 489.47 965.28 487.35 963.37 485.63 C 960.20 482.79 956.62 480.36 953.26 477.75 C 949.99 475.19 945.35 474.42 942.42 471.57 C 937.77 465.54 937.10 456.68 934.22 449.77 C 933.16 442.84 930.87 436.26 929.53 429.40 C 927.72 420.76 924.22 413.11 920.93 405.01 C 917.46 395.87 913.70 386.85 910.01 377.79 C 908.35 369.79 905.46 362.15 903.63 354.19 C 900.90 342.73 897.11 331.40 895.07 319.82 C 894.24 315.32 894.44 311.16 895.61 306.75 C 896.64 303.27 897.08 299.78 899.94 297.28 C 904.15 300.04 901.58 305.08 901.29 309.06 C 900.30 314.62 902.29 319.09 906.88 322.25 C 908.72 317.37 910.24 312.54 913.38 308.29 C 914.65 308.50 915.92 308.64 917.19 308.86 C 916.90 313.56 916.37 318.06 915.38 322.66 C 913.97 328.98 915.28 335.19 914.30 341.56 C 913.73 345.25 915.01 348.34 916.32 351.69 C 919.91 360.13 924.62 368.21 928.65 376.35 C 932.16 383.55 933.13 391.04 935.50 398.44 C 937.20 403.85 940.80 408.15 942.60 413.53 C 944.24 418.65 947.36 422.90 949.38 427.84 C 951.17 431.98 953.23 435.96 955.37 439.92 C 960.06 437.42 962.88 432.44 966.62 428.61 C 967.92 426.93 970.11 425.69 969.46 423.28 C 968.28 416.80 966.20 410.41 963.37 404.46 C 959.29 395.96 955.61 387.30 952.35 378.46 C 949.43 372.80 947.22 366.91 944.97 360.96 C 942.19 351.86 941.94 343.40 940.03 333.81 C 938.58 322.58 938.22 311.24 936.81 299.99 C 936.09 287.44 937.86 274.40 935.98 261.92 C 935.49 256.83 935.14 251.78 933.99 246.79 C 932.80 237.90 928.59 230.81 925.61 222.53 C 924.11 218.65 921.98 215.28 920.69 211.33 C 918.58 204.78 917.39 198.04 915.22 191.51 C 915.72 185.13 913.58 179.32 913.36 173.01 C 913.06 164.88 910.00 157.39 910.09 149.19 C 910.37 141.87 905.53 137.74 902.03 131.93 C 899.81 128.51 899.69 124.78 899.16 120.86 C 898.56 115.30 897.57 109.96 895.23 104.84 C 893.46 100.47 891.27 96.80 890.83 91.99 C 890.02 83.87 890.84 74.82 896.39 68.39 C 898.61 65.67 903.46 65.44 905.51 68.48 C 907.66 71.47 908.80 75.46 909.98 78.93 C 911.52 83.71 913.31 88.40 914.84 93.19 C 915.89 98.42 916.87 103.65 917.17 108.99 C 917.44 113.38 917.62 117.47 919.55 121.52 C 921.03 124.85 923.69 127.77 924.78 131.22 C 925.68 135.90 924.57 140.87 925.55 145.62 C 927.83 155.34 931.73 164.14 935.78 173.20 C 937.62 177.39 939.34 181.58 941.71 185.52 C 943.98 191.13 946.82 196.68 948.40 202.53 C 950.04 213.23 950.53 225.81 955.33 235.68 C 958.69 243.35 959.01 251.84 959.91 260.04 C 960.44 265.38 961.50 270.65 961.97 276.00 C 962.53 283.62 964.50 291.19 966.50 298.55 C 968.52 305.02 969.80 311.66 971.93 318.09 C 973.37 322.63 974.96 327.13 976.31 331.70 C 977.38 335.31 977.90 339.18 979.26 342.68 C 981.36 342.89 980.96 341.05 981.59 339.61 C 983.77 329.76 985.03 319.82 988.09 310.16 C 990.70 303.30 991.68 296.42 993.14 289.23 C 995.44 276.87 995.28 264.33 997.96 252.06 C 999.12 244.92 1000.59 237.99 1003.10 231.19 C 1006.80 222.76 1005.95 213.39 1008.13 204.24 C 1009.81 195.40 1011.43 186.56 1013.82 177.87 C 1015.57 171.69 1016.41 165.32 1018.15 159.14 C 1020.26 151.77 1021.48 144.14 1022.63 136.56 C 1023.60 131.09 1018.85 126.84 1019.30 121.24 C 1019.66 116.33 1020.97 111.41 1022.77 106.84 C 1025.14 100.96 1026.07 94.48 1026.23 88.18 C 1026.04 83.37 1025.51 78.85 1027.13 74.19 C 1028.46 70.64 1029.21 66.95 1030.37 63.37 C 1031.83 57.99 1040.03 56.23 1043.77 60.23 Z" fill="#1e2936"/>
</svg>
