<?xml version="1.0" encoding="UTF-8" standalone="no"?>
<!DOCTYPE svg PUBLIC "-//W3C//DTD SVG 1.1//EN" "http://www.w3.org/Graphics/SVG/1.1/DTD/svg11.dtd">
<svg viewBox="0 0 1365 768" height="768.0pt" width="1365.0pt" xmlns="http://www.w3.org/2000/svg" version="1.1">
<path d="M 917.42 62.69 C 920.89 65.27 924.29 68.54 926.63 72.19 C 929.30 76.82 927.50 83.86 927.58 89.00 C 927.63 95.79 927.11 103.72 929.67 110.11 C 931.48 115.52 935.24 120.95 934.07 126.89 C 932.39 134.69 927.02 140.17 927.49 148.80 C 930.09 168.89 936.68 186.09 941.31 205.63 C 942.36 210.23 943.64 214.78 944.62 219.39 C 945.78 225.03 945.31 230.31 945.23 236.00 C 945.04 245.00 945.71 254.02 947.21 262.90 C 949.15 274.20 953.64 284.69 957.63 295.36 C 958.94 299.02 960.36 302.62 961.84 306.21 C 963.68 311.36 965.40 316.47 967.88 321.36 C 968.85 318.59 969.73 315.81 970.19 312.90 C 971.59 303.70 972.66 294.39 974.57 285.28 C 976.68 277.63 979.14 270.13 980.53 262.29 C 981.93 257.25 983.19 252.27 983.35 247.00 C 983.60 239.97 984.88 233.11 986.06 226.20 C 989.28 215.49 993.01 204.94 995.97 194.15 C 999.71 185.27 1002.67 176.13 1005.97 167.08 C 1009.51 156.88 1013.35 146.91 1016.44 136.54 C 1018.29 130.41 1018.93 124.09 1020.94 118.00 C 1022.51 113.14 1023.95 108.39 1024.37 103.26 C 1024.98 98.34 1024.29 93.49 1024.49 88.58 C 1024.76 83.91 1026.75 80.18 1028.89 76.15 C 1031.79 71.27 1034.11 64.03 1039.65 61.66 C 1041.86 60.56 1043.99 62.06 1044.67 64.23 C 1046.74 70.09 1048.57 76.42 1049.45 82.57 C 1050.51 91.67 1047.49 99.77 1045.22 108.37 C 1043.02 116.17 1046.35 123.08 1042.87 130.77 C 1038.82 135.48 1034.85 139.70 1032.82 145.73 C 1030.22 153.67 1027.64 161.70 1025.89 169.88 C 1023.67 181.01 1020.94 191.79 1020.84 203.23 C 1019.36 219.30 1014.54 234.51 1008.38 249.35 C 1004.89 257.69 1005.82 265.47 1004.38 274.20 C 1003.09 282.23 1003.23 290.20 1002.59 298.31 C 1002.15 306.05 1002.73 313.75 1001.68 321.47 C 999.69 336.29 1004.34 349.48 1001.54 364.45 C 1000.38 370.15 997.57 374.76 994.74 379.72 C 989.64 388.64 987.39 398.55 982.58 407.65 C 980.32 412.36 977.01 419.20 978.61 424.44 C 981.27 429.00 986.23 432.41 990.10 435.95 C 995.15 427.89 997.94 418.99 1000.79 409.94 C 1003.87 400.33 1004.33 390.52 1008.10 381.09 C 1012.22 370.95 1016.58 360.91 1020.75 350.79 C 1024.77 340.92 1026.97 330.66 1030.40 320.56 C 1032.62 313.89 1032.54 306.75 1035.70 300.75 C 1037.40 297.46 1039.36 294.30 1041.29 291.14 C 1045.80 287.19 1050.46 283.36 1055.14 279.60 C 1055.65 281.43 1056.70 282.89 1055.94 284.78 C 1054.89 287.89 1053.28 290.82 1051.92 293.81 C 1055.22 291.94 1058.53 289.38 1062.19 288.32 C 1065.73 287.23 1067.42 293.00 1065.21 295.13 C 1062.44 298.03 1059.21 300.39 1056.69 303.56 C 1060.06 302.20 1063.41 301.16 1067.04 300.74 C 1067.05 302.48 1068.33 305.26 1066.44 306.37 C 1062.92 309.32 1058.96 311.37 1055.83 314.86 C 1051.88 319.02 1050.29 324.26 1046.45 328.48 C 1043.60 331.68 1040.68 334.24 1039.55 338.57 C 1036.66 349.24 1035.42 360.24 1031.76 370.77 C 1029.00 379.51 1023.80 386.57 1021.56 395.44 C 1019.20 404.93 1017.14 414.51 1015.12 424.08 C 1013.91 429.87 1012.22 435.48 1011.29 441.27 C 1010.27 447.55 1009.93 453.81 1009.26 460.10 C 1008.89 462.77 1008.63 465.71 1006.90 467.90 C 1001.29 474.82 993.63 477.85 987.27 483.25 C 985.15 484.93 984.47 487.20 983.63 489.65 C 986.04 488.70 988.52 487.47 991.07 486.98 C 995.32 486.54 999.79 488.49 1004.01 488.32 C 1007.39 487.76 1010.64 486.43 1013.99 485.68 C 1012.96 488.13 1011.59 490.56 1010.93 493.14 C 1010.79 494.72 1011.64 496.45 1012.12 497.94 C 1014.12 502.95 1015.80 508.08 1017.89 513.06 C 1019.56 517.21 1021.31 521.24 1020.63 525.84 C 1020.00 529.98 1018.63 533.94 1018.25 538.14 C 1017.75 541.39 1017.95 545.07 1015.70 547.70 C 1012.72 551.47 1008.12 554.36 1004.37 557.38 C 1001.41 559.67 998.29 562.57 994.83 564.02 C 992.26 565.20 988.84 564.22 986.10 564.03 C 982.89 563.59 979.74 564.46 976.57 564.21 C 974.46 563.39 972.69 561.36 971.14 559.77 C 969.85 558.50 968.53 556.67 966.81 556.02 C 963.81 555.79 960.70 556.33 957.71 556.63 C 955.20 547.64 949.89 540.32 946.14 531.93 C 944.36 528.31 945.86 525.38 946.80 521.81 C 944.10 520.39 941.44 518.93 938.85 517.33 C 942.09 516.73 945.35 516.24 948.61 515.80 C 948.66 510.45 948.18 505.16 947.77 499.84 C 948.58 498.52 949.47 497.25 950.36 495.98 C 952.64 499.59 955.07 503.03 958.15 506.02 C 958.59 500.78 958.49 495.38 957.61 490.19 C 957.27 488.19 956.64 486.36 955.01 485.04 C 950.44 481.20 944.28 478.76 939.13 475.78 C 935.79 474.02 933.71 471.10 932.31 467.67 C 928.08 457.41 929.53 446.11 925.54 435.58 C 925.48 429.69 925.11 423.88 923.91 418.10 C 921.70 408.22 920.57 398.22 917.66 388.48 C 915.89 381.33 912.06 375.12 910.00 368.07 C 908.72 363.83 906.98 359.81 905.28 355.74 C 904.06 351.26 902.31 347.36 899.95 343.37 C 898.76 339.03 897.16 334.99 894.93 331.06 C 891.71 323.14 887.59 314.62 886.67 306.13 C 886.02 299.66 886.39 293.13 888.35 286.90 C 893.72 286.58 897.95 283.52 903.20 282.72 C 903.08 287.83 901.26 292.48 900.48 297.46 C 900.09 299.54 900.74 301.33 901.49 303.23 C 903.70 299.24 904.88 294.88 906.75 290.76 C 907.62 288.85 909.05 287.59 910.89 286.63 C 911.44 288.02 912.24 289.36 911.98 290.91 C 911.23 294.92 908.72 298.89 908.17 303.04 C 907.82 305.97 908.47 309.19 908.92 312.10 C 910.38 319.67 909.73 327.60 912.48 334.55 C 914.51 339.87 917.22 345.01 919.86 350.06 C 923.82 360.58 931.90 370.24 935.08 381.01 C 936.91 389.04 936.85 397.23 939.57 405.13 C 940.66 401.43 941.30 397.78 941.48 393.92 C 941.77 387.17 942.73 380.44 942.46 373.77 C 942.23 367.77 941.41 361.75 940.18 355.87 C 936.95 340.61 932.40 325.31 930.25 309.86 C 928.78 296.48 926.67 283.19 925.14 269.82 C 924.61 264.67 923.46 259.71 922.08 254.74 C 921.64 250.50 920.94 246.34 920.06 242.17 C 919.71 237.31 919.33 232.50 918.18 227.74 C 915.89 217.82 915.97 208.28 914.82 198.00 C 913.78 189.11 913.81 180.16 912.59 171.29 C 910.67 153.81 910.56 136.49 909.79 118.96 C 909.52 110.80 906.84 103.16 906.67 95.02 C 906.46 88.16 908.02 81.64 907.21 74.76 C 907.00 71.02 906.04 66.74 908.52 63.52 C 910.52 60.45 914.73 60.81 917.42 62.69 Z" fill="#1e2936"/>
</svg>
