<?xml version="1.0" encoding="UTF-8" standalone="no"?>
<!DOCTYPE svg PUBLIC "-//W3C//DTD SVG 1.1//EN" "http://www.w3.org/Graphics/SVG/1.1/DTD/svg11.dtd">
<svg viewBox="0 0 1365 768" height="768.0pt" width="1365.0pt" xmlns="http://www.w3.org/2000/svg" version="1.1">
<path d="M 911.98 58.79 C 915.29 58.85 918.24 58.79 920.80 61.21 C 924.94 64.84 929.92 69.78 930.42 75.56 C 931.14 82.55 929.16 89.78 930.17 96.92 C 931.22 105.06 938.28 112.67 938.65 120.81 C 937.62 128.52 931.24 135.79 930.89 144.01 C 930.81 148.51 932.37 153.26 933.47 157.60 C 935.24 164.04 936.53 170.58 938.11 177.06 C 940.78 187.16 942.13 197.39 945.97 207.17 C 947.14 212.37 948.48 217.82 948.79 223.13 C 948.69 227.16 948.70 231.19 948.73 235.23 C 948.81 244.64 947.52 254.47 950.24 263.50 C 952.84 272.44 955.73 281.29 958.73 290.11 C 961.44 297.90 962.89 305.56 967.08 312.80 C 970.81 303.06 972.83 292.63 975.34 282.53 C 977.09 274.08 979.69 265.78 981.08 257.26 C 982.68 248.81 982.90 240.24 984.71 231.83 C 986.35 222.66 989.94 214.19 992.07 205.15 C 995.61 195.12 999.56 185.22 1002.92 175.12 C 1006.66 167.42 1008.22 159.15 1011.20 151.18 C 1015.33 139.90 1018.40 128.36 1021.88 116.88 C 1024.35 108.49 1025.80 100.02 1024.48 91.28 C 1026.51 83.73 1029.69 76.96 1032.88 69.85 C 1034.06 67.41 1035.57 64.32 1037.98 62.88 C 1039.85 61.77 1042.84 61.83 1043.88 64.05 C 1045.29 66.91 1045.98 70.18 1046.88 73.23 C 1048.46 79.10 1050.47 84.52 1049.56 90.72 C 1048.46 97.59 1045.70 103.98 1045.14 111.03 C 1044.42 117.01 1045.23 123.75 1043.40 129.50 C 1041.19 134.18 1036.25 137.13 1034.00 141.96 C 1030.83 148.67 1029.27 156.27 1027.53 163.45 C 1025.97 170.78 1023.79 177.97 1022.33 185.32 C 1020.55 193.94 1021.25 202.65 1019.25 211.27 C 1018.02 216.51 1016.96 221.73 1016.01 227.03 C 1012.89 235.73 1008.83 243.93 1006.79 253.01 C 1004.23 259.98 1004.22 266.73 1003.61 274.02 C 1003.20 280.43 1002.55 286.82 1002.03 293.23 C 1001.43 300.38 1002.01 307.52 1001.43 314.68 C 1000.85 322.05 1000.44 329.64 1000.80 337.03 C 1001.16 344.27 1002.96 350.74 1002.25 358.01 C 1001.41 366.16 998.11 373.19 994.05 380.17 C 989.93 387.13 987.51 394.75 983.78 401.89 C 981.32 406.78 978.45 411.78 976.72 416.97 C 976.01 419.46 975.19 421.78 976.85 424.10 C 980.35 429.36 985.46 433.81 990.01 438.20 C 992.90 430.30 995.75 422.37 998.34 414.37 C 1001.24 405.34 1003.06 396.22 1005.05 386.98 C 1007.17 376.86 1011.96 368.18 1015.22 358.25 C 1019.62 347.10 1022.79 335.60 1026.07 324.09 C 1027.79 317.87 1028.30 311.48 1030.12 305.30 C 1032.16 302.24 1034.17 299.20 1035.92 295.96 C 1038.45 291.13 1042.41 288.31 1046.26 284.26 C 1047.93 282.35 1049.93 281.97 1052.30 281.44 C 1052.03 284.66 1051.49 287.72 1050.47 290.78 C 1053.70 288.53 1056.27 287.29 1060.31 287.59 C 1060.14 290.19 1060.70 293.78 1058.89 295.89 C 1056.41 299.04 1053.41 301.76 1050.90 304.90 C 1054.71 303.70 1058.47 302.32 1062.24 300.97 C 1062.45 302.23 1062.68 303.50 1062.74 304.77 C 1060.64 307.79 1057.12 309.91 1054.48 312.49 C 1049.94 316.52 1046.83 321.44 1043.42 326.37 C 1040.59 330.48 1036.85 333.50 1035.63 338.43 C 1034.44 343.10 1033.80 347.90 1032.70 352.60 C 1030.84 360.58 1030.88 368.02 1027.95 375.73 C 1025.62 382.33 1021.72 387.83 1019.71 394.47 C 1018.16 399.48 1017.29 404.85 1016.15 409.98 C 1014.90 415.70 1013.26 421.29 1012.38 427.09 C 1011.20 434.94 1009.03 442.34 1008.69 450.32 C 1008.32 455.32 1008.52 461.45 1006.06 465.94 C 1003.72 470.31 998.96 473.23 995.15 476.22 C 990.13 480.02 985.95 484.51 981.94 489.34 C 983.20 489.53 984.50 489.79 985.77 489.80 C 988.74 488.76 990.48 486.54 993.84 487.14 C 998.99 487.82 1003.62 487.88 1008.75 486.97 C 1009.05 489.26 1009.24 491.77 1010.09 493.92 C 1011.97 498.38 1014.37 502.56 1015.86 507.20 C 1017.53 512.40 1019.99 517.37 1021.36 522.66 C 1022.92 528.01 1018.08 532.42 1018.15 538.00 C 1017.84 541.04 1018.93 545.18 1016.67 547.57 C 1012.52 552.64 1007.23 556.31 1002.00 560.06 C 999.12 562.08 996.58 564.82 993.48 566.45 C 991.27 566.91 988.74 566.12 986.49 566.04 C 983.80 565.75 980.92 566.32 978.30 565.69 C 974.83 563.42 973.10 558.65 969.74 556.22 C 966.42 554.56 961.92 554.89 958.27 554.61 C 954.06 546.76 950.56 538.51 946.12 530.80 C 945.46 528.07 946.80 525.01 947.55 522.38 C 945.67 521.77 943.79 521.16 941.92 520.54 C 945.36 519.35 948.81 518.18 952.25 517.00 C 950.67 513.88 948.79 510.70 947.77 507.34 C 947.01 505.01 948.10 502.10 948.61 499.78 C 951.55 502.48 954.57 505.07 957.75 507.48 C 958.47 506.87 959.19 506.26 959.91 505.66 C 959.43 503.05 958.82 500.35 958.76 497.69 C 958.74 494.92 959.70 492.16 959.56 489.41 C 958.40 487.64 956.58 486.18 955.06 484.70 C 952.22 479.93 948.23 476.44 943.98 472.98 C 940.54 470.15 937.97 466.67 936.63 462.39 C 933.38 451.90 931.61 440.72 930.51 429.82 C 930.04 423.15 930.31 416.53 929.18 409.91 C 927.85 401.95 927.54 393.67 924.92 386.24 C 922.51 378.85 918.67 372.18 916.05 364.87 C 913.73 358.65 912.22 352.43 909.62 346.34 C 908.02 342.61 906.34 338.91 904.71 335.19 C 901.48 327.81 897.74 321.21 895.69 313.33 C 894.66 309.27 893.43 305.37 891.21 301.78 C 892.17 296.00 894.48 290.51 895.75 284.78 C 900.10 284.30 904.14 283.45 908.01 281.33 C 910.47 287.57 906.25 293.37 909.00 299.84 C 912.29 294.80 912.94 289.21 917.36 284.84 C 918.90 288.91 917.30 292.01 916.23 295.88 C 914.65 301.23 915.49 306.67 916.04 312.11 C 916.84 319.10 916.42 325.71 918.66 332.49 C 921.02 339.37 924.32 345.65 928.13 351.83 C 929.95 356.27 931.93 360.50 934.39 364.63 C 937.53 369.97 939.20 375.83 942.01 381.32 C 944.15 375.60 942.06 370.95 941.81 364.97 C 941.38 358.00 939.43 351.45 938.19 344.63 C 937.15 338.26 935.73 332.15 933.98 325.94 L 933.85 325.08 C 933.59 318.00 932.30 311.05 931.99 303.98 C 931.63 296.16 930.03 288.52 929.40 280.71 C 928.62 271.33 927.12 262.13 925.01 252.96 C 923.62 247.03 922.52 241.06 922.10 234.98 C 921.57 227.66 920.41 220.43 919.65 213.14 C 918.73 204.78 919.10 196.38 918.25 188.00 C 916.82 173.77 917.13 159.48 915.59 145.25 C 914.43 135.47 915.51 125.80 913.82 116.14 C 912.32 107.14 910.10 98.24 909.90 89.02 C 909.76 83.47 910.58 78.00 910.48 72.43 C 910.46 67.65 910.05 63.32 911.98 58.79 Z" fill="#1e2936"/>
</svg>
