<?xml version="1.0" encoding="UTF-8" standalone="no"?>
<!DOCTYPE svg PUBLIC "-//W3C//DTD SVG 1.1//EN" "http://www.w3.org/Graphics/SVG/1.1/DTD/svg11.dtd">
<svg viewBox="0 0 1365 768" height="768.0pt" width="1365.0pt" xmlns="http://www.w3.org/2000/svg" version="1.1">
<defs>
<mask id="mask">
<rect width="100%" height="100%" fill="#fff"/>
<path d="M 1003.04 357.71 C 1002.45 364.99 1000.33 371.98 999.48 379.26 C 998.26 389.85 996.21 400.55 992.92 410.71 C 990.30 418.72 989.50 426.60 984.85 433.88 C 982.50 431.03 981.36 428.72 980.61 425.09 C 979.34 418.95 977.02 413.03 976.04 406.84 C 975.21 402.17 978.01 398.07 980.15 394.18 C 985.12 385.26 990.63 376.68 996.12 368.08 C 998.32 364.54 1000.39 360.95 1003.04 357.71 Z" fill="#000"/>
</mask>
</defs>
<path d="M 932.38 47.61 C 935.14 49.74 937.03 53.04 939.42 55.59 C 942.17 58.82 945.88 61.60 947.04 65.84 C 949.17 73.33 948.35 80.81 952.18 87.90 C 956.27 94.91 962.45 99.53 963.95 108.23 C 964.72 112.57 962.23 115.57 959.86 118.84 C 957.02 122.61 954.46 126.11 954.26 131.03 C 953.90 139.76 955.29 148.75 957.53 157.17 C 959.18 163.30 959.78 169.57 961.01 175.78 C 962.83 184.25 964.87 192.93 965.38 201.59 C 965.22 211.20 963.43 220.65 963.84 230.31 C 961.89 240.25 962.42 249.80 965.37 259.48 C 967.34 265.39 968.29 271.47 970.65 277.23 C 972.07 273.55 973.17 269.85 973.98 265.99 C 975.36 261.01 976.96 256.12 977.95 251.03 C 979.55 243.59 979.57 236.73 982.60 229.63 C 985.38 223.13 988.82 217.04 990.93 210.24 C 994.22 203.47 996.42 196.31 999.30 189.37 C 1002.02 182.62 1004.18 175.67 1006.92 168.94 C 1011.30 158.00 1014.76 146.77 1018.74 135.70 C 1021.50 128.70 1023.25 121.45 1025.05 114.16 C 1027.20 107.52 1027.81 100.90 1028.12 93.97 C 1028.45 86.84 1032.39 82.37 1035.15 76.15 C 1036.74 72.85 1038.06 68.93 1040.42 66.11 C 1043.20 65.11 1045.55 67.08 1046.34 69.65 C 1047.19 72.93 1047.10 76.50 1047.52 79.87 C 1047.98 84.33 1049.28 88.59 1049.15 92.98 C 1048.99 98.59 1046.78 103.68 1046.10 109.07 C 1045.08 116.21 1050.14 122.63 1048.83 129.81 C 1048.24 133.17 1045.58 135.06 1043.09 137.05 C 1039.56 139.61 1036.33 142.35 1034.08 146.16 C 1031.42 150.22 1030.72 155.92 1029.54 160.58 C 1027.40 169.30 1025.44 177.97 1023.89 186.83 C 1022.45 195.47 1021.23 204.44 1017.58 212.47 C 1015.83 216.25 1014.40 220.12 1013.05 224.05 C 1008.72 233.39 1003.14 240.21 1000.98 250.13 C 998.08 259.53 1001.26 267.07 1000.74 276.75 C 999.81 286.31 1000.35 295.88 999.75 305.47 C 999.58 312.64 998.87 319.87 999.18 327.04 C 999.42 332.35 1001.96 336.80 1002.40 342.04 C 1002.72 345.51 1002.85 348.99 1003.24 352.45 C 1004.57 349.27 1005.47 346.07 1006.10 342.68 C 1007.06 337.66 1008.63 333.08 1008.78 327.91 C 1009.01 320.21 1010.48 312.36 1012.86 305.05 C 1017.33 297.78 1023.10 291.26 1028.96 285.09 C 1030.62 287.36 1032.56 288.90 1032.34 291.98 C 1032.18 298.00 1028.81 304.16 1026.95 309.87 C 1030.58 306.55 1034.24 303.49 1038.75 301.41 C 1039.64 302.07 1040.52 302.73 1041.41 303.39 C 1039.75 306.43 1037.83 308.94 1035.43 311.43 C 1030.86 316.24 1028.89 321.76 1025.21 327.21 C 1023.01 330.67 1020.08 334.12 1019.16 338.15 C 1016.27 351.95 1018.69 364.42 1018.06 378.05 C 1017.75 385.86 1015.10 392.49 1012.89 399.88 C 1010.32 408.09 1009.22 416.62 1006.77 424.88 C 1004.51 432.61 1003.21 440.54 1003.57 448.62 C 1003.75 455.07 1004.81 462.14 1002.17 468.23 C 998.05 477.77 988.21 480.69 984.80 490.82 C 990.97 491.86 996.55 493.32 1002.40 495.52 C 1000.34 490.20 994.94 489.88 992.32 485.17 C 996.04 484.86 999.45 484.50 1002.97 486.01 C 1008.41 488.19 1011.94 493.28 1015.07 497.98 C 1016.55 502.23 1017.66 506.57 1019.39 510.74 C 1021.01 514.86 1023.26 519.52 1023.23 524.01 C 1023.06 528.23 1020.57 532.39 1019.71 536.58 C 1018.79 540.22 1018.84 544.74 1016.93 548.00 C 1014.38 552.06 1010.12 555.36 1006.85 558.86 C 1004.87 560.93 1003.30 563.26 1001.59 565.53 C 998.95 569.27 994.64 571.08 990.92 573.91 C 987.73 576.34 984.51 578.26 980.87 579.96 C 982.49 577.56 984.00 575.17 985.41 572.65 C 982.22 572.72 979.04 572.82 975.86 572.79 C 975.03 571.21 974.36 569.21 973.05 567.97 C 970.77 566.05 967.76 564.68 965.55 562.44 C 960.75 557.28 958.45 551.19 956.24 544.65 C 954.16 538.86 948.54 536.27 945.92 531.30 C 945.53 529.00 946.50 526.35 947.29 524.21 C 948.46 520.73 953.54 520.65 954.50 516.63 C 956.11 511.31 956.78 505.75 958.54 500.44 C 959.82 500.95 961.11 501.45 962.40 501.95 C 963.69 499.35 965.10 497.08 964.93 494.05 C 964.86 489.17 961.14 484.39 958.73 480.29 C 957.07 477.35 955.00 475.47 952.17 473.68 C 946.16 469.60 941.36 464.14 937.52 458.01 C 936.49 454.32 935.18 450.36 936.56 446.58 C 937.82 442.45 941.02 438.63 940.16 434.16 C 939.46 428.83 937.82 424.26 938.99 418.80 C 940.48 412.23 941.72 405.80 942.34 399.08 C 943.09 391.69 946.27 385.53 948.52 378.61 C 950.87 371.80 947.90 363.75 945.39 357.36 C 942.18 348.00 939.38 338.48 936.11 329.13 C 933.30 321.26 927.80 316.68 923.43 309.66 C 919.98 304.64 917.69 299.02 917.42 292.88 C 917.33 289.61 917.22 286.19 919.99 283.91 C 921.08 282.87 923.32 281.88 924.21 283.61 C 927.57 289.40 928.10 295.52 933.49 300.16 C 934.45 297.28 935.56 294.76 935.07 291.65 C 934.44 287.42 933.76 283.46 934.86 279.23 C 936.15 280.65 937.90 281.97 938.29 283.93 C 939.23 287.87 939.40 292.05 939.78 296.09 C 940.39 296.36 941.00 296.64 941.61 296.91 C 941.95 290.57 941.48 284.32 940.86 278.02 C 940.32 268.48 939.83 259.04 938.08 249.62 C 937.24 245.19 936.51 240.86 937.25 236.34 C 937.85 234.23 938.53 232.21 938.86 230.03 C 940.26 217.28 939.83 204.78 939.98 192.01 C 940.04 183.22 938.35 174.76 938.93 165.95 C 939.61 156.18 938.60 146.78 938.00 137.04 C 937.63 130.70 937.28 124.36 937.04 118.02 C 936.71 107.27 934.86 96.54 931.68 86.27 C 928.81 76.72 927.56 66.95 926.80 57.03 C 926.66 54.26 926.44 51.12 927.31 48.45 C 928.41 46.82 930.77 46.95 932.38 47.61 Z" fill="#1e2936" mask="url(#mask)"/>
</svg>
