<?xml version="1.0" encoding="UTF-8" standalone="no"?>
<!DOCTYPE svg PUBLIC "-//W3C//DTD SVG 1.1//EN" "http://www.w3.org/Graphics/SVG/1.1/DTD/svg11.dtd">
<svg viewBox="0 0 1365 768" height="768.0pt" width="1365.0pt" xmlns="http://www.w3.org/2000/svg" version="1.1">
<defs>
<mask id="mask">
<rect width="100%" height="100%" fill="#fff"/>
<path d="M 997.07 367.90 C 996.26 376.07 996.92 384.40 995.60 392.48 C 994.14 399.28 993.38 405.60 990.02 411.78 C 986.54 404.60 985.96 397.13 985.04 389.34 C 984.84 387.04 984.65 384.92 985.69 382.77 C 988.43 377.22 992.64 372.20 997.07 367.90 Z M 971.45 405.88 C 972.67 409.98 973.25 413.96 973.29 418.23 C 971.70 416.48 970.04 414.92 969.57 412.49 C 968.96 410.02 970.38 407.99 971.45 405.88 Z" fill="#000"/>
</mask>
</defs>
<path d="M 938.04 43.92 C 941.15 46.42 943.38 49.97 946.26 52.74 C 949.22 55.82 953.50 58.77 955.18 62.76 C 956.84 66.68 957.57 71.06 958.75 75.16 C 960.84 84.65 968.35 88.94 973.09 96.96 C 974.87 99.95 976.84 104.02 975.56 107.53 C 973.52 112.76 967.23 115.97 965.85 121.87 C 964.16 129.18 964.26 136.92 965.77 144.26 C 968.02 156.04 969.00 167.98 971.14 179.78 C 972.23 188.70 974.65 196.80 973.05 205.39 C 972.05 210.87 971.60 216.35 971.38 221.91 C 971.03 229.43 969.12 235.77 969.72 242.97 C 970.25 249.20 971.54 255.36 973.60 261.27 C 976.33 254.96 978.01 248.83 979.01 242.02 C 980.61 231.01 987.25 223.15 991.00 212.06 C 994.08 202.48 998.43 193.45 1001.93 184.04 C 1004.62 178.02 1006.98 171.87 1009.51 165.78 C 1010.02 166.40 1010.53 167.01 1011.04 167.63 C 1012.29 166.31 1013.57 165.02 1014.86 163.73 C 1014.66 166.88 1013.90 169.83 1013.03 172.84 C 1011.98 176.31 1013.01 180.38 1013.00 184.02 C 1013.09 188.25 1011.69 191.79 1011.29 195.99 C 1010.96 198.90 1011.16 201.91 1010.61 204.78 C 1009.49 207.78 1007.40 210.28 1006.50 213.41 C 1004.32 220.90 1000.93 228.08 996.23 234.33 C 994.79 235.98 995.64 238.21 995.77 240.16 C 996.38 243.78 996.19 247.37 996.16 251.02 C 996.10 256.10 997.24 260.93 996.97 266.02 C 996.75 270.93 995.73 275.34 996.74 280.26 C 998.03 286.27 999.20 292.28 999.78 298.41 C 999.64 301.74 999.63 305.07 999.61 308.39 C 999.61 315.23 998.59 321.56 1000.38 328.31 C 1003.27 320.25 1002.39 311.69 1005.41 303.42 C 1006.53 300.54 1008.81 297.97 1010.83 295.67 C 1012.76 293.85 1014.52 291.87 1016.20 289.81 C 1017.45 289.99 1018.70 290.14 1019.96 290.25 C 1021.24 298.47 1017.37 304.97 1016.99 313.05 C 1021.01 309.25 1024.34 305.20 1029.52 302.86 C 1029.96 303.68 1030.40 304.49 1030.84 305.30 C 1027.03 310.55 1023.26 315.71 1020.65 321.69 C 1017.88 328.03 1013.29 333.21 1012.85 339.96 C 1012.15 348.60 1012.10 357.26 1013.22 365.86 C 1015.07 379.94 1014.40 395.57 1008.83 408.80 C 1005.46 417.89 1004.11 428.05 1002.73 437.62 C 1002.06 442.14 1001.25 446.40 1001.41 451.00 C 1001.48 455.14 1002.44 459.58 1001.87 463.66 C 1001.23 467.45 999.52 471.10 997.26 474.19 C 994.65 477.77 990.68 480.78 988.70 484.67 C 987.58 486.81 987.65 489.48 987.53 491.84 C 986.85 491.15 986.15 490.46 985.45 489.78 C 983.29 490.91 981.12 492.10 978.84 492.95 C 976.81 493.77 974.41 493.10 972.30 492.83 C 972.16 494.87 972.09 496.92 971.98 498.97 C 970.41 498.86 968.85 498.75 967.28 498.64 C 967.09 499.67 966.90 500.69 966.71 501.72 C 966.05 501.06 965.39 500.41 964.74 499.75 C 965.44 495.80 966.20 491.39 965.41 487.42 C 964.63 484.85 961.73 482.88 959.94 480.97 C 958.64 478.37 957.52 475.66 955.59 473.44 C 951.49 468.74 945.53 466.37 941.79 461.21 C 939.70 458.30 937.93 454.63 937.83 451.00 C 938.08 445.70 941.53 441.63 940.92 436.04 C 940.30 429.67 939.06 423.68 940.32 417.25 C 941.53 410.97 942.66 404.75 943.42 398.40 C 944.54 389.36 948.95 382.11 951.17 373.46 C 953.10 365.67 954.30 357.87 953.05 349.86 C 952.01 343.13 952.08 336.09 950.36 329.50 C 949.36 325.46 946.69 322.93 943.89 320.09 C 940.78 316.16 937.71 312.28 934.08 308.81 C 931.66 304.42 928.49 299.63 927.53 294.68 C 926.80 291.09 928.11 288.24 929.27 284.95 C 930.85 285.19 932.52 285.37 934.05 285.83 C 935.92 288.08 937.10 290.94 938.75 293.36 C 940.57 296.17 943.02 298.05 945.59 300.11 C 945.80 293.41 945.25 286.81 946.10 280.13 C 946.93 272.42 944.99 265.62 944.51 257.98 C 943.63 246.23 941.81 233.61 945.19 222.12 C 945.97 219.25 946.86 216.42 947.53 213.51 C 949.50 207.00 949.96 201.09 949.32 194.33 C 948.14 183.18 948.71 172.14 948.59 160.98 C 948.54 154.28 947.40 147.70 947.54 141.00 C 947.68 134.08 947.69 127.19 946.95 120.30 C 946.87 110.94 946.64 100.63 943.48 91.71 C 941.52 85.73 940.49 79.54 938.39 73.60 C 934.94 64.33 934.32 53.78 932.85 43.85 C 934.48 43.71 936.74 42.59 938.04 43.92 Z M 1047.60 70.44 C 1048.32 74.79 1046.84 79.37 1047.40 83.80 C 1047.99 88.68 1049.47 92.98 1048.82 98.02 C 1048.12 104.86 1045.19 110.18 1047.91 117.10 C 1049.33 121.12 1051.12 124.61 1051.09 129.02 C 1051.01 131.53 1051.12 134.29 1048.95 135.98 C 1044.60 139.68 1038.88 141.48 1035.36 146.36 C 1032.76 149.90 1032.55 153.71 1031.71 157.86 C 1029.14 163.97 1027.90 170.36 1026.87 176.87 C 1024.46 189.96 1022.76 204.82 1016.78 216.75 C 1013.01 224.71 1007.96 232.01 1003.74 239.78 C 1001.55 243.71 999.68 247.56 999.51 252.16 C 999.06 266.43 1001.47 280.46 1000.77 294.74 C 1000.43 295.96 1000.11 297.19 999.78 298.41 C 999.20 292.28 998.03 286.27 996.74 280.26 C 995.73 275.34 996.75 270.93 996.97 266.02 C 997.24 260.93 996.10 256.10 996.16 251.02 C 996.19 247.37 996.38 243.78 995.77 240.16 C 995.64 238.21 994.79 235.98 996.23 234.33 C 1000.93 228.08 1004.32 220.90 1006.50 213.41 C 1007.40 210.28 1009.49 207.78 1010.61 204.78 C 1011.16 201.91 1010.96 198.90 1011.29 195.99 C 1011.69 191.79 1013.09 188.25 1013.00 184.02 C 1013.01 180.38 1011.98 176.31 1013.03 172.84 C 1013.90 169.83 1014.66 166.88 1014.86 163.73 C 1013.57 165.02 1012.29 166.31 1011.04 167.63 C 1010.53 167.01 1010.02 166.40 1009.51 165.78 C 1010.71 162.89 1011.93 160.00 1013.07 157.08 C 1016.06 150.41 1017.95 143.39 1020.54 136.57 C 1023.54 128.46 1025.69 120.02 1027.51 111.57 C 1029.40 103.25 1028.39 95.38 1031.76 87.36 C 1033.78 84.43 1035.92 81.69 1037.39 78.42 C 1038.80 75.60 1039.83 72.19 1041.85 69.76 C 1043.33 68.79 1046.90 68.28 1047.60 70.44 Z M 997.76 485.74 C 1003.02 485.63 1007.74 486.51 1011.35 490.63 C 1018.31 498.86 1021.84 510.47 1024.48 520.75 C 1025.74 525.51 1023.08 529.00 1021.57 533.30 C 1019.65 538.05 1019.43 543.50 1016.68 547.64 C 1014.45 551.05 1011.83 554.15 1009.85 557.73 C 1007.54 561.90 1005.24 566.03 1002.36 569.83 C 999.94 569.54 995.86 567.48 994.20 570.14 C 991.96 572.81 990.84 576.68 989.65 579.91 C 989.16 581.30 988.65 582.69 988.15 584.07 C 988.08 581.38 987.99 578.70 988.10 576.00 L 988.54 574.12 C 984.01 574.16 980.01 575.72 975.73 576.91 C 973.16 577.70 971.27 577.00 969.09 575.64 C 972.22 574.10 975.38 572.65 978.50 571.11 C 973.82 568.97 968.53 567.58 964.23 564.76 C 961.64 563.12 960.77 560.64 959.60 557.97 C 965.45 560.11 970.97 562.70 977.20 563.70 C 972.25 560.09 968.26 556.29 964.40 551.54 C 962.84 551.87 961.29 552.19 959.73 552.52 C 959.59 550.46 959.30 548.41 959.15 546.34 C 957.47 545.29 955.63 544.28 954.17 542.94 C 952.61 541.14 951.90 538.60 950.31 536.79 C 948.45 534.73 945.91 533.05 944.11 530.85 C 942.71 529.10 941.80 526.79 940.88 524.76 C 943.98 526.54 947.08 528.33 950.22 530.06 C 950.29 528.13 950.26 526.09 950.68 524.20 C 951.45 521.18 952.98 518.83 953.17 515.67 C 953.35 511.73 953.48 507.86 954.46 504.01 C 956.85 503.57 958.89 502.69 961.00 501.51 C 961.06 504.03 961.21 506.54 961.43 509.05 C 962.88 506.08 964.03 502.99 964.74 499.75 C 965.39 500.41 966.05 501.06 966.71 501.72 C 966.90 500.69 967.09 499.67 967.28 498.64 C 968.85 498.75 970.41 498.86 971.98 498.97 C 972.09 496.92 972.16 494.87 972.30 492.83 C 974.41 493.10 976.81 493.77 978.84 492.95 C 981.12 492.10 983.29 490.91 985.45 489.78 C 986.15 490.46 986.85 491.15 987.53 491.84 C 991.86 491.87 996.86 491.42 1000.90 493.12 C 1003.90 494.33 1006.80 495.73 1009.90 496.68 C 1006.74 491.79 1001.90 489.97 997.76 485.74 Z" fill="#1e2936" mask="url(#mask)"/>
</svg>
