<?xml version="1.0" encoding="UTF-8" standalone="no"?>
<!DOCTYPE svg PUBLIC "-//W3C//DTD SVG 1.1//EN" "http://www.w3.org/Graphics/SVG/1.1/DTD/svg11.dtd">
<svg viewBox="0 0 1365 768" height="768.0pt" width="1365.0pt" xmlns="http://www.w3.org/2000/svg" version="1.1">
<defs>
<mask id="mask">
<rect width="100%" height="100%" fill="#fff"/>
<path d="M 1003.92 381.98 C 1005.39 386.05 1005.76 389.71 1005.20 394.01 C 1003.92 404.24 1002.41 414.44 1000.88 424.64 C 1000.57 426.72 999.94 428.67 999.16 430.62 C 995.02 426.09 991.59 420.89 988.19 415.80 C 986.86 413.43 984.75 410.56 985.81 407.74 C 987.66 402.20 990.96 397.02 994.14 392.15 C 997.02 388.65 999.88 384.17 1003.92 381.98 Z" fill="#000"/>
</mask>
</defs>
<path d="M 967.38 32.36 C 968.76 31.91 970.15 31.68 971.58 31.45 C 976.59 36.60 982.52 38.43 985.73 44.31 C 988.17 48.24 988.47 52.38 989.38 56.78 C 989.71 60.27 993.92 59.99 994.70 63.33 C 995.86 66.68 994.32 70.19 994.56 73.61 C 995.95 81.31 1002.50 87.76 1003.79 95.22 C 1004.39 100.50 999.66 105.46 997.96 110.10 C 997.87 114.13 1000.12 117.58 998.99 121.86 C 998.22 126.47 993.25 129.03 991.76 132.64 C 990.84 138.75 991.82 144.22 992.67 150.23 C 993.55 161.26 996.81 171.98 997.97 183.00 C 998.21 188.00 998.14 193.04 998.08 198.04 C 997.47 208.85 993.72 220.13 994.09 231.00 C 994.29 235.80 992.95 240.48 993.95 245.06 C 995.04 250.21 995.24 255.49 996.51 260.59 C 997.67 264.96 999.40 269.14 1000.57 273.51 C 1002.06 273.61 1003.46 274.13 1004.96 274.21 C 1005.69 277.07 1005.96 279.98 1006.21 282.92 C 1006.39 283.95 1006.45 286.26 1007.96 286.12 C 1010.25 283.45 1010.33 278.83 1010.95 275.50 C 1011.84 275.92 1012.56 276.47 1013.12 277.15 C 1013.98 285.19 1012.48 293.49 1013.58 301.57 C 1014.27 306.90 1014.67 312.22 1014.57 317.60 C 1014.40 323.98 1017.11 329.73 1017.73 336.21 C 1018.34 342.63 1020.26 348.79 1020.80 355.21 C 1021.84 366.91 1025.21 377.98 1023.87 389.92 C 1023.49 397.38 1021.56 404.56 1021.07 412.00 C 1020.44 417.01 1020.31 421.99 1020.18 427.02 C 1019.02 440.64 1018.45 453.77 1015.12 467.11 C 1014.09 470.12 1010.98 471.87 1008.54 473.65 C 1003.60 477.20 998.98 480.70 997.07 486.77 C 999.65 488.14 1002.36 489.02 1005.16 489.82 C 1009.04 490.98 1011.74 493.50 1015.14 495.67 C 1014.28 492.62 1012.05 491.11 1010.02 488.90 C 1008.99 487.92 1009.46 487.04 1009.94 485.92 C 1011.74 486.86 1013.45 487.86 1015.13 489.00 C 1016.72 490.26 1018.25 491.77 1019.96 492.86 C 1021.72 493.71 1024.33 492.65 1025.07 494.94 C 1029.57 503.29 1033.62 513.42 1033.26 523.04 C 1033.12 528.23 1030.21 531.75 1028.66 536.51 C 1027.20 540.88 1027.09 545.67 1024.67 549.58 C 1022.09 553.76 1018.18 557.17 1015.05 560.98 C 1011.65 565.15 1007.08 567.24 1002.52 570.58 C 997.63 574.31 991.01 575.18 985.05 576.01 C 985.43 574.44 986.15 573.00 986.49 571.43 C 981.58 571.10 976.27 571.87 971.50 570.61 C 969.36 570.06 968.87 568.80 967.97 567.00 C 972.36 565.80 976.58 566.18 981.06 565.79 C 980.04 563.33 977.11 563.21 974.92 562.20 C 971.27 561.04 968.86 558.20 965.33 556.83 C 962.30 555.61 959.44 554.20 956.99 552.00 C 956.31 551.01 955.66 550.00 955.02 548.97 C 956.29 548.20 957.18 547.46 958.73 548.12 C 961.84 549.25 964.65 550.75 968.01 551.06 C 966.36 548.81 964.06 547.70 961.79 546.21 C 958.98 544.40 957.48 541.11 954.86 539.23 C 951.70 537.28 947.48 536.45 944.16 534.98 C 943.62 534.61 943.17 534.06 942.82 533.34 C 945.29 533.01 947.82 532.63 950.20 531.90 C 949.93 529.74 950.01 527.78 949.03 525.79 C 947.81 523.39 946.45 521.23 946.11 518.50 L 947.97 518.43 C 950.45 522.00 953.99 523.91 957.75 525.84 C 957.79 519.95 955.84 514.63 954.79 508.93 C 954.10 505.16 955.25 501.84 957.05 498.60 C 959.04 500.03 959.79 501.24 960.79 503.45 C 961.39 503.52 961.99 503.58 962.58 503.66 C 963.10 501.74 963.72 499.85 964.23 497.94 C 965.46 499.34 966.23 501.09 967.48 502.50 C 969.10 503.07 969.37 501.29 970.10 500.25 C 971.65 496.73 971.89 492.54 972.12 488.74 C 972.27 486.33 970.59 484.48 969.35 482.58 C 967.65 480.29 966.29 477.72 964.45 475.53 C 962.25 473.42 959.22 472.14 957.03 469.99 C 955.26 468.05 954.33 465.35 952.61 463.38 C 949.79 460.75 945.05 459.26 943.16 455.70 C 941.58 451.78 943.09 446.71 944.80 443.02 C 946.31 439.48 948.56 436.94 948.84 433.03 C 949.76 426.81 949.36 420.53 950.02 414.31 C 950.62 408.51 954.66 404.38 955.26 398.55 C 956.24 389.83 958.60 381.43 959.99 372.80 C 961.21 366.41 958.98 361.12 958.53 354.86 C 958.29 351.85 957.92 348.85 957.57 345.85 C 956.80 338.85 957.88 332.01 957.10 325.07 C 956.19 316.17 954.58 308.14 955.53 299.11 C 956.16 295.42 957.44 291.93 957.66 288.15 C 958.27 282.81 956.82 278.32 956.15 273.09 C 955.49 268.11 954.63 263.04 954.41 258.03 C 954.26 251.82 952.67 245.61 951.51 239.52 C 949.23 231.28 948.88 222.17 952.31 214.20 C 957.92 197.97 957.52 180.85 962.33 164.14 C 965.58 155.76 965.77 146.99 968.29 138.41 C 970.41 126.72 972.14 114.96 974.24 103.26 C 975.57 94.83 974.81 85.95 973.18 77.60 C 970.58 64.62 971.59 51.82 967.12 38.87 C 966.45 36.65 965.42 34.26 967.38 32.36 Z" fill="#1e2936" mask="url(#mask)"/>
</svg>
