<?xml version="1.0" encoding="UTF-8" standalone="no"?>
<!DOCTYPE svg PUBLIC "-//W3C//DTD SVG 1.1//EN" "http://www.w3.org/Graphics/SVG/1.1/DTD/svg11.dtd">
<svg viewBox="0 0 1365 768" height="768.0pt" width="1365.0pt" xmlns="http://www.w3.org/2000/svg" version="1.1">
<defs>
<mask id="mask">
<rect width="100%" height="100%" fill="#fff"/>
<path d="M 1017.89 375.85 C 1018.73 380.79 1019.63 386.02 1019.39 391.04 C 1019.16 395.29 1017.19 399.65 1015.88 403.70 C 1014.13 409.06 1012.33 414.55 1011.23 420.06 C 1010.30 424.63 1009.08 429.62 1006.58 433.61 C 1005.01 433.82 1004.49 432.51 1003.77 431.42 C 1001.83 427.96 1000.18 424.43 997.71 421.30 C 995.68 418.49 992.71 415.36 991.96 411.92 C 991.21 407.85 992.92 403.37 994.89 399.84 C 998.59 393.08 1005.95 387.84 1011.12 382.15 C 1013.19 379.81 1015.28 377.60 1017.89 375.85 Z M 958.83 311.15 C 961.81 317.34 962.85 323.60 965.06 330.06 C 967.76 337.71 969.84 345.62 971.46 353.56 C 972.28 357.28 970.72 360.11 968.44 362.88 C 965.71 356.11 962.59 349.57 960.34 342.61 C 957.45 336.47 956.15 329.95 954.67 323.37 C 953.49 319.11 956.38 314.44 958.83 311.15 Z" fill="#000"/>
</mask>
</defs>
<path d="M 984.53 29.55 C 989.36 31.41 993.93 34.85 996.79 39.20 C 999.00 42.35 999.03 46.57 999.59 50.29 C 1001.36 63.24 1003.99 75.39 1011.84 86.16 C 1014.14 92.20 1013.95 99.01 1010.73 104.69 C 1006.98 111.65 1003.44 118.24 1002.34 126.21 C 1000.59 135.77 1002.13 144.47 1003.08 154.02 C 1004.41 164.69 1006.74 175.30 1007.75 186.02 C 1008.28 191.44 1007.56 196.64 1006.86 201.99 C 1006.22 208.14 1003.98 213.84 1003.87 220.07 C 1003.50 224.91 1002.64 229.78 1002.63 234.63 C 1003.90 245.60 1005.99 256.53 1008.81 267.22 C 1010.02 272.25 1015.45 272.82 1016.02 278.04 C 1016.70 281.90 1017.62 285.39 1020.15 288.49 C 1021.01 288.66 1021.86 288.81 1022.71 288.96 C 1023.24 285.18 1021.67 279.59 1025.12 277.13 C 1026.33 280.39 1026.55 283.75 1027.16 287.13 C 1030.14 284.86 1029.05 280.24 1032.07 278.43 C 1033.73 279.63 1033.29 282.24 1033.24 284.03 C 1032.47 291.23 1031.74 298.51 1031.58 305.75 C 1032.27 312.50 1033.71 319.16 1034.11 325.96 C 1034.74 337.35 1035.32 348.78 1036.83 360.08 C 1037.44 367.41 1037.44 374.66 1037.32 381.99 C 1037.26 386.64 1039.19 391.46 1038.00 395.83 C 1036.65 401.38 1033.89 406.14 1033.05 411.87 C 1031.99 418.80 1030.28 425.63 1028.52 432.41 C 1025.43 443.46 1023.65 454.74 1021.05 465.88 C 1020.22 468.50 1019.82 471.86 1016.88 472.93 C 1011.75 475.30 1006.19 477.96 1002.56 482.49 C 1001.35 483.97 1001.37 485.59 1001.13 487.38 C 1009.16 489.12 1014.39 494.26 1021.02 498.75 C 1019.92 496.89 1018.91 495.10 1017.45 493.49 C 1015.58 491.39 1013.40 490.00 1012.53 487.17 C 1014.68 487.55 1017.03 487.84 1018.88 489.07 C 1021.20 490.60 1022.77 493.04 1024.38 495.25 C 1025.49 496.92 1026.86 498.34 1028.34 499.69 C 1033.37 503.66 1033.84 512.04 1034.40 517.90 C 1035.07 523.27 1034.05 528.31 1032.30 533.36 C 1030.62 538.08 1030.31 543.55 1027.51 547.55 C 1024.74 551.77 1022.02 555.84 1017.97 558.98 C 1013.49 562.48 1008.95 566.24 1003.86 568.82 C 998.27 571.26 993.32 573.88 986.99 572.93 C 981.05 572.41 977.96 568.71 972.58 566.28 C 970.95 565.60 970.58 564.59 969.88 563.08 C 973.08 563.08 976.33 563.72 979.51 563.49 C 980.15 563.05 980.79 562.59 981.43 562.13 C 978.10 560.30 974.74 558.53 971.53 556.50 C 965.27 552.61 958.52 552.23 953.83 545.89 C 957.79 545.20 960.87 548.58 965.08 547.99 C 964.51 544.85 960.20 544.12 958.11 541.89 C 955.19 538.89 952.50 535.86 949.01 533.46 C 950.97 531.77 953.67 532.91 956.04 532.87 C 954.76 527.41 949.75 524.29 949.14 518.18 C 949.73 517.60 950.33 517.02 950.94 516.46 C 952.76 519.85 955.42 521.37 958.82 522.85 C 958.93 516.55 955.60 511.27 955.51 505.03 C 955.35 501.96 955.47 499.17 957.08 496.45 C 959.49 499.10 961.08 502.28 963.61 504.84 C 964.43 501.79 965.04 498.86 966.97 496.27 C 967.93 498.12 968.91 499.95 969.69 501.88 C 973.59 499.98 974.64 494.16 974.52 490.27 C 973.29 485.74 969.94 481.61 966.60 478.40 C 963.79 475.65 960.06 474.31 957.13 471.81 C 955.72 469.34 955.49 466.21 954.27 463.64 C 952.06 460.53 947.24 458.47 945.83 454.91 C 944.16 447.32 948.28 442.28 950.72 435.58 C 952.00 431.82 951.23 427.37 951.58 423.43 C 951.69 418.11 953.03 413.15 954.11 407.98 C 958.00 403.49 959.19 397.32 958.68 391.53 C 957.97 384.36 953.47 378.20 951.07 371.16 C 949.36 366.05 947.39 360.45 947.40 355.05 C 947.23 342.92 944.62 331.13 940.62 319.73 C 940.54 314.23 940.29 308.82 941.25 303.36 C 942.10 298.34 941.09 293.23 941.93 288.25 C 943.57 287.29 946.15 287.02 947.28 285.44 C 948.79 283.42 950.31 281.19 951.12 278.79 C 951.14 275.69 949.97 272.51 949.39 269.46 C 947.15 257.33 942.64 245.55 938.89 233.82 C 938.35 228.60 940.61 222.92 941.37 217.73 C 942.80 211.46 941.91 205.32 942.60 199.01 C 943.30 191.39 943.93 183.78 945.07 176.21 C 945.65 172.46 945.68 168.70 945.78 164.91 C 947.00 161.39 947.78 157.97 948.12 154.26 C 949.70 141.61 952.49 129.23 954.67 116.69 C 957.01 106.95 957.48 96.95 960.11 87.25 C 963.05 82.27 964.91 76.80 967.74 71.75 C 969.73 68.21 970.73 64.19 972.77 60.69 C 974.08 59.33 976.45 60.67 977.97 61.05 C 979.03 66.89 978.44 72.77 979.33 78.62 C 979.86 82.42 980.14 86.25 980.08 90.09 C 978.75 93.77 976.92 97.57 977.52 101.59 C 978.46 107.34 981.50 112.80 982.47 118.53 C 982.83 121.58 982.16 125.60 979.41 127.41 C 975.17 130.83 969.89 133.85 968.56 139.56 C 965.59 151.43 964.29 164.04 965.81 176.23 C 966.69 183.25 967.93 190.24 968.97 197.24 C 969.28 204.11 969.52 211.23 968.35 218.04 C 967.32 223.88 965.66 229.62 964.69 235.47 C 964.33 237.38 964.63 239.01 965.37 240.78 C 967.83 246.67 971.02 252.36 974.02 257.99 C 975.49 261.42 976.51 264.78 979.14 267.56 C 979.68 263.97 978.94 260.61 978.96 257.01 C 978.95 252.02 979.05 247.08 978.57 242.11 C 978.21 237.95 977.32 234.21 977.81 230.01 C 978.38 225.31 979.45 220.73 979.66 215.98 C 980.03 205.04 981.21 194.09 981.49 183.14 C 980.88 174.99 982.12 167.09 982.86 158.99 C 983.41 153.73 983.60 148.46 984.31 143.21 C 985.05 137.56 984.79 131.90 985.33 126.23 C 986.02 118.90 985.78 111.38 985.82 104.00 C 985.69 98.16 986.13 92.80 985.14 87.06 C 985.08 82.39 984.41 77.84 983.71 73.23 C 982.70 60.90 982.03 48.07 979.06 36.03 C 978.75 34.54 978.40 32.93 978.46 31.40 C 979.75 28.99 982.13 28.72 984.53 29.55 Z" fill="#1e2936" mask="url(#mask)"/>
</svg>
