<?xml version="1.0" encoding="UTF-8" standalone="no"?>
<!DOCTYPE svg PUBLIC "-//W3C//DTD SVG 1.1//EN" "http://www.w3.org/Graphics/SVG/1.1/DTD/svg11.dtd">
<svg viewBox="0 0 1365 768" height="768.0pt" width="1365.0pt" xmlns="http://www.w3.org/2000/svg" version="1.1">
<defs>
<mask id="mask">
<rect width="100%" height="100%" fill="#fff"/>
<path d="M 1022.14 303.62 C 1026.78 303.95 1029.29 307.93 1030.01 312.12 C 1029.96 315.71 1027.86 319.42 1026.75 322.81 C 1024.52 328.94 1025.02 334.98 1023.20 341.21 C 1021.74 346.26 1019.01 351.12 1016.93 355.97 C 1013.34 364.27 1010.04 372.73 1007.41 381.39 C 1006.49 384.37 1005.43 387.27 1004.22 390.14 C 1003.72 387.14 1003.55 384.16 1004.17 381.15 C 1005.85 372.50 1008.49 364.02 1010.40 355.41 C 1013.09 342.98 1017.33 331.14 1019.30 318.53 C 1020.17 313.66 1020.16 308.12 1022.14 303.62 Z" fill="#000"/>
</mask>
</defs>
<path d="M 918.77 67.17 C 920.48 69.41 920.99 72.71 921.82 75.37 C 922.86 79.45 924.73 83.79 924.88 87.99 C 925.00 93.72 922.85 99.07 923.05 104.92 C 923.30 112.60 926.58 119.64 928.20 126.89 C 929.79 134.07 928.86 140.87 929.91 148.04 C 930.34 151.13 931.14 154.10 931.90 157.12 C 935.02 169.65 937.81 182.66 942.31 194.77 C 946.80 205.96 951.48 216.68 954.87 228.33 C 956.58 234.21 957.44 240.21 958.99 246.13 C 962.04 257.86 965.74 268.93 967.31 281.02 C 969.02 293.60 972.48 305.42 975.44 317.73 C 976.86 323.51 977.94 329.36 979.49 335.12 C 982.07 331.09 983.78 326.76 985.15 322.19 C 988.92 314.21 991.20 305.82 993.37 297.29 C 995.38 289.18 998.04 281.24 999.24 273.09 C 1000.01 267.73 1000.87 262.41 1002.17 257.14 C 1005.19 245.48 1003.46 233.84 1006.01 222.02 C 1008.29 211.60 1012.04 201.58 1014.11 191.10 C 1015.66 185.43 1017.31 179.84 1018.10 174.00 C 1019.19 166.92 1018.14 160.04 1018.75 152.88 C 1019.24 146.57 1019.29 140.33 1017.80 134.14 C 1016.98 129.91 1015.22 125.13 1017.00 120.96 C 1018.87 116.33 1021.71 112.16 1023.55 107.51 C 1026.19 101.35 1027.31 94.92 1028.22 88.33 C 1029.99 79.01 1035.96 72.87 1042.76 66.80 C 1045.18 64.63 1047.90 64.97 1050.92 64.61 C 1052.88 71.22 1055.77 78.15 1054.10 85.14 C 1050.69 100.08 1042.39 112.75 1040.06 128.17 C 1034.57 145.29 1035.62 163.55 1033.70 181.96 C 1032.39 192.37 1033.59 202.79 1032.31 213.18 C 1031.48 221.61 1028.75 229.62 1028.06 238.08 C 1026.48 244.80 1024.86 251.35 1024.39 258.27 C 1024.09 263.03 1023.78 267.78 1023.26 272.52 C 1022.34 280.73 1022.80 288.97 1021.61 297.16 C 1024.73 298.97 1027.90 300.55 1031.24 301.91 C 1030.65 297.96 1029.23 293.67 1029.66 289.68 C 1030.49 287.83 1032.34 286.35 1033.71 284.89 C 1035.09 286.22 1036.48 287.54 1037.85 288.87 C 1038.72 287.12 1039.49 285.23 1040.64 283.64 C 1041.94 283.61 1043.19 283.78 1044.48 283.90 C 1045.09 290.76 1045.67 297.62 1046.32 304.47 C 1046.76 309.38 1047.04 314.03 1045.69 318.84 C 1044.32 324.01 1041.71 328.38 1039.05 332.96 C 1036.70 336.84 1034.56 340.81 1033.12 345.13 C 1030.99 351.18 1030.51 357.09 1029.19 363.31 C 1027.72 370.45 1025.49 377.38 1023.28 384.37 C 1020.83 392.39 1016.85 399.24 1015.61 407.67 C 1013.70 419.59 1014.00 431.78 1012.64 443.78 C 1010.37 452.82 1011.12 460.89 1007.28 469.18 C 1005.97 472.05 1004.29 475.82 1001.36 477.35 C 996.83 479.66 992.04 479.45 987.86 482.77 C 984.81 485.65 982.76 489.94 980.84 493.62 C 982.57 492.78 984.32 491.97 986.04 491.11 C 985.31 493.93 984.23 496.91 984.22 499.83 C 985.77 504.15 989.07 507.74 990.91 511.99 C 992.70 516.76 994.49 521.65 995.44 526.67 C 996.42 532.01 995.39 537.03 994.56 542.29 C 997.20 539.83 999.81 537.34 1002.50 534.93 C 1000.79 544.69 994.05 551.09 985.91 556.00 C 979.77 560.39 972.49 561.39 966.11 565.23 C 963.82 566.46 961.42 568.07 958.87 568.66 C 955.38 568.42 951.96 566.28 948.60 565.30 C 945.28 564.17 941.21 566.09 937.92 565.17 C 936.09 563.63 935.33 560.63 934.25 558.53 C 932.87 555.09 930.39 552.73 927.89 550.10 C 923.62 545.67 920.23 539.90 919.12 533.80 C 918.28 528.37 919.10 522.56 920.30 517.23 C 922.61 509.53 927.35 502.64 933.63 497.62 C 937.95 493.94 944.69 494.04 950.10 493.14 C 948.17 491.66 946.25 490.18 944.33 488.70 C 946.65 487.87 948.97 487.03 951.29 486.20 C 947.51 479.81 940.08 478.78 936.54 472.44 C 933.38 466.96 932.43 460.24 931.79 454.03 C 930.56 442.76 931.50 431.45 931.17 420.00 C 930.88 412.20 932.29 403.92 930.64 396.42 C 928.78 388.22 926.56 380.10 923.84 372.14 C 920.10 360.68 918.75 349.04 916.50 337.30 C 914.09 324.95 906.26 315.65 899.58 305.42 C 896.14 300.20 895.11 294.18 895.85 288.02 C 897.30 284.59 899.44 281.41 901.35 278.22 C 906.56 283.84 905.69 290.57 909.18 296.91 C 910.65 299.59 913.25 301.34 915.61 303.16 C 915.63 297.82 915.58 292.48 915.67 287.14 C 916.51 286.57 917.34 285.99 918.16 285.40 C 918.79 286.30 919.40 287.21 920.01 288.13 C 920.87 292.86 922.27 297.36 923.97 301.84 C 926.77 309.02 925.02 316.60 926.12 324.65 C 927.18 337.18 932.09 347.75 936.81 359.16 C 940.44 370.15 946.45 377.87 946.40 388.99 C 946.21 396.75 945.59 404.38 946.78 412.12 C 948.49 424.03 948.36 436.90 952.57 447.97 C 956.27 443.86 960.06 439.86 964.10 436.09 C 966.71 433.44 969.47 431.16 969.23 427.05 C 968.94 418.87 964.45 410.30 961.50 402.73 C 958.33 394.52 954.58 387.19 952.76 378.52 C 950.58 369.64 949.43 360.56 946.95 351.76 C 942.56 329.81 941.81 306.58 942.63 284.26 C 942.47 271.37 938.82 258.30 933.50 246.61 C 928.87 235.93 924.38 225.54 921.65 214.27 C 919.17 198.82 918.23 183.23 915.98 167.76 C 914.99 160.27 914.85 153.07 913.13 145.68 C 911.69 139.54 910.84 133.66 907.97 127.96 C 905.66 122.30 903.72 116.17 903.94 109.99 C 903.99 106.07 904.58 102.59 903.06 98.84 C 900.86 93.00 897.81 87.74 899.03 81.21 C 900.25 75.92 903.89 71.05 906.72 66.48 L 908.06 65.69 C 911.25 65.49 916.17 64.92 918.77 67.17 Z" fill="#1e2936" mask="url(#mask)"/>
</svg>
