<?xml version="1.0" encoding="UTF-8" standalone="no"?>
<!DOCTYPE svg PUBLIC "-//W3C//DTD SVG 1.1//EN" "http://www.w3.org/Graphics/SVG/1.1/DTD/svg11.dtd">
<svg viewBox="0 0 1365 768" height="768.0pt" width="1365.0pt" xmlns="http://www.w3.org/2000/svg" version="1.1">
<defs>
<mask id="mask">
<rect width="100%" height="100%" fill="#fff"/>
<path d="M 1021.12 304.97 C 1022.90 307.27 1024.77 310.14 1025.07 313.09 C 1025.14 315.80 1024.05 318.66 1023.31 321.26 C 1022.10 325.06 1021.46 328.96 1020.55 332.83 C 1019.45 337.52 1017.28 341.97 1015.54 346.57 C 1014.04 350.53 1012.36 354.39 1010.39 358.13 C 1011.72 347.16 1015.32 336.92 1017.10 326.03 C 1018.38 318.81 1018.45 311.80 1021.12 304.97 Z" fill="#000"/>
</mask>
</defs>
<path d="M 918.52 65.43 C 921.65 66.63 922.37 69.96 923.24 72.83 C 924.82 79.16 926.09 85.79 926.92 92.25 C 927.27 100.41 927.13 108.40 928.56 116.48 C 929.25 121.18 930.65 125.66 932.01 130.19 C 933.27 138.41 934.44 146.60 936.38 154.69 C 938.68 166.55 941.20 178.29 945.40 189.66 C 948.99 201.21 952.87 212.56 957.04 223.92 C 960.70 234.15 962.10 244.61 966.41 254.59 C 970.07 263.01 972.03 271.92 973.28 280.98 C 975.47 296.88 978.24 312.63 982.05 328.22 C 988.91 314.67 992.41 300.44 995.53 285.69 C 997.85 274.21 1001.24 264.01 1000.99 252.12 C 1000.09 239.76 1001.75 227.16 1002.69 214.82 C 1002.97 209.17 1005.65 204.85 1007.73 199.77 C 1010.35 193.69 1010.89 187.65 1011.98 181.19 C 1015.00 167.40 1016.13 153.03 1014.79 138.96 C 1014.37 133.12 1010.99 127.23 1011.54 121.50 C 1012.46 114.79 1017.75 108.55 1020.16 102.14 C 1023.06 96.08 1022.94 89.77 1024.55 83.42 C 1026.14 77.22 1031.11 72.81 1035.60 68.59 C 1038.29 66.27 1040.88 63.88 1044.73 65.07 C 1047.50 66.09 1047.49 69.04 1047.50 71.52 C 1047.08 79.63 1047.26 87.12 1044.82 94.81 C 1043.11 100.25 1041.30 105.62 1040.10 111.21 C 1038.60 116.90 1036.84 122.53 1035.33 128.22 C 1031.92 141.25 1032.63 154.02 1031.50 168.16 C 1031.35 181.16 1030.02 194.04 1029.15 207.00 C 1028.53 215.80 1026.62 224.41 1026.29 233.26 C 1024.94 242.43 1024.58 251.45 1023.56 260.71 C 1022.37 270.81 1021.64 281.00 1021.38 291.16 C 1021.15 294.17 1022.66 295.99 1024.39 298.20 C 1025.57 294.69 1026.57 291.11 1027.78 287.61 C 1029.18 287.44 1030.58 287.27 1031.98 287.09 C 1033.14 289.00 1034.28 290.91 1035.41 292.84 C 1037.12 289.44 1037.78 286.38 1041.98 285.38 C 1042.43 291.31 1041.42 297.02 1040.79 302.88 C 1040.15 308.98 1041.82 314.67 1039.33 320.33 C 1036.81 326.15 1033.14 331.17 1031.25 337.33 C 1029.16 344.18 1027.92 351.30 1026.21 358.25 C 1024.31 367.59 1021.23 376.54 1018.72 385.72 C 1016.83 392.74 1014.22 398.74 1013.70 406.00 C 1013.12 413.99 1012.67 421.99 1012.17 429.98 C 1011.75 436.92 1010.25 443.57 1011.79 450.43 C 1012.50 454.09 1014.00 458.38 1013.28 462.09 C 1012.69 465.46 1010.32 467.71 1008.13 470.13 C 1006.04 472.29 1004.07 474.74 1001.67 476.56 C 998.29 478.89 993.52 479.73 990.26 482.29 C 987.57 484.48 986.27 487.60 985.74 490.96 C 985.13 495.09 984.70 499.25 983.95 503.37 C 985.08 502.88 986.21 502.39 987.34 501.90 C 992.42 510.51 991.93 519.26 992.45 528.90 C 992.75 535.12 991.68 541.01 991.26 547.19 C 992.66 546.01 994.04 544.81 995.40 543.58 C 996.92 542.96 998.46 542.41 1000.01 541.86 C 997.13 548.88 992.05 554.52 985.98 558.96 C 980.28 563.02 973.69 563.58 966.92 566.02 C 962.92 567.25 958.89 569.24 954.82 569.99 C 951.01 571.19 947.98 566.96 944.56 565.75 C 941.67 565.31 938.50 566.10 935.66 565.43 C 933.06 561.79 932.36 557.12 929.52 553.48 C 926.84 549.99 923.87 547.06 922.03 542.98 C 918.34 535.59 918.68 527.11 918.97 519.07 C 922.01 510.62 926.52 502.35 933.92 496.96 C 938.47 494.11 944.40 493.25 949.48 491.59 C 949.73 489.21 950.32 486.62 949.97 484.24 C 946.46 480.01 941.14 477.92 938.31 472.74 C 933.55 464.56 934.27 452.76 933.42 443.57 C 931.83 429.38 931.80 415.18 930.91 400.95 C 930.38 393.15 927.63 385.16 925.17 377.77 C 923.04 367.69 920.72 357.66 919.22 347.46 C 917.82 340.28 917.23 332.01 912.98 325.94 C 909.00 320.19 905.51 314.26 901.08 308.87 C 898.37 305.56 896.23 301.96 894.82 297.91 C 894.26 293.21 894.17 288.22 895.32 283.60 C 896.01 280.67 898.08 279.07 900.06 276.99 C 903.17 281.08 905.27 285.69 907.92 290.05 C 910.31 294.10 912.76 297.81 917.00 300.15 C 917.38 296.32 916.75 292.63 916.37 288.83 C 916.05 286.62 917.16 285.10 918.03 283.17 C 921.57 288.44 922.11 294.34 924.55 300.51 C 927.98 309.54 926.17 317.71 927.88 327.17 C 928.93 333.48 932.08 339.75 934.30 345.80 C 937.32 353.41 939.00 361.39 942.01 368.99 C 944.33 374.92 946.52 380.59 947.10 386.99 C 948.01 401.50 947.98 416.83 951.21 431.03 C 952.48 436.81 953.20 442.50 955.57 447.99 C 962.04 443.15 967.99 438.42 972.43 431.52 C 974.58 428.31 973.96 424.21 973.09 420.68 C 971.64 415.55 969.16 410.68 967.12 405.76 C 964.00 398.23 959.50 391.90 957.01 384.11 C 954.12 374.95 952.16 365.47 951.15 355.92 C 950.42 348.98 949.37 341.98 949.12 335.04 C 948.86 329.07 949.08 323.28 947.47 317.45 C 947.97 301.89 947.45 286.35 945.96 270.85 C 943.78 259.35 939.57 247.96 934.45 237.44 C 931.61 231.53 930.67 225.61 928.57 219.23 C 925.09 208.45 923.64 197.57 922.31 186.35 C 921.72 180.11 921.34 173.89 920.20 167.71 C 919.56 157.29 919.26 147.57 915.08 137.76 C 912.89 132.76 908.20 128.18 907.09 122.88 C 906.34 117.53 908.10 112.02 907.37 106.57 C 906.61 99.01 902.03 91.60 902.23 84.12 C 902.50 77.49 907.46 72.58 910.07 66.81 C 912.95 65.64 915.36 64.02 918.52 65.43 Z" fill="#1e2936" mask="url(#mask)"/>
</svg>
