<?xml version="1.0" encoding="UTF-8" standalone="no"?>
<!DOCTYPE svg PUBLIC "-//W3C//DTD SVG 1.1//EN" "http://www.w3.org/Graphics/SVG/1.1/DTD/svg11.dtd">
<svg viewBox="0 0 1365 768" height="768.0pt" width="1365.0pt" xmlns="http://www.w3.org/2000/svg" version="1.1">
<path d="M 925.59 69.37 C 927.08 73.88 927.56 78.72 928.74 83.33 C 930.58 90.56 930.21 97.97 931.71 105.27 C 932.20 112.03 933.52 118.60 934.81 125.23 C 937.22 137.75 939.68 150.38 943.62 162.51 C 947.76 175.05 949.85 188.01 954.89 200.10 C 961.50 218.33 967.04 236.95 973.93 255.07 C 975.52 259.89 977.30 264.41 978.14 269.45 C 980.51 285.66 982.02 302.35 986.35 318.17 C 991.34 306.27 993.17 292.22 996.91 279.91 C 999.51 272.85 1000.22 265.58 1001.28 258.19 C 1001.92 253.70 1001.83 249.20 1001.39 244.70 C 1000.37 234.08 1000.46 223.49 1002.92 213.07 C 1005.39 202.32 1007.93 191.64 1009.68 180.75 C 1012.63 166.02 1014.10 151.64 1011.13 136.76 C 1010.16 131.75 1006.49 126.29 1007.09 121.22 C 1008.72 113.04 1016.05 106.53 1018.00 98.15 C 1019.24 92.35 1020.08 86.49 1021.59 80.75 C 1025.01 75.90 1029.25 71.61 1033.74 67.75 C 1035.53 66.36 1037.92 64.50 1040.29 65.62 C 1042.59 66.94 1043.14 69.57 1042.96 72.04 C 1041.76 82.10 1041.00 92.18 1039.05 102.15 C 1035.96 110.32 1034.37 118.81 1032.07 127.29 C 1029.15 141.52 1030.25 157.86 1028.76 171.99 C 1028.19 179.50 1027.97 187.03 1027.34 194.53 C 1026.58 203.44 1026.84 212.38 1026.27 221.30 C 1025.34 229.43 1024.39 237.76 1024.77 245.94 C 1024.99 250.91 1024.58 255.80 1023.79 260.70 C 1022.57 268.47 1022.81 276.23 1022.01 284.02 C 1021.62 288.10 1021.50 292.13 1021.64 296.22 C 1023.71 293.09 1025.84 290.00 1028.11 287.01 C 1031.94 289.48 1031.76 292.75 1032.36 296.80 C 1033.81 294.31 1035.18 291.29 1037.38 289.39 C 1038.54 289.16 1039.71 288.98 1040.90 288.85 C 1040.59 295.67 1037.57 301.64 1036.66 308.32 C 1035.99 312.58 1035.66 316.80 1033.89 320.79 C 1031.77 325.49 1028.43 329.38 1026.50 334.24 C 1023.49 341.70 1022.50 350.38 1020.47 358.26 C 1019.18 363.23 1018.40 368.29 1017.49 373.33 C 1016.20 380.45 1013.32 386.87 1012.36 394.06 C 1011.61 399.67 1011.11 405.36 1011.11 411.02 C 1011.11 416.87 1012.66 422.22 1013.19 428.00 C 1013.94 435.26 1013.15 441.92 1015.11 449.08 C 1016.12 453.08 1018.03 457.68 1017.66 461.82 C 1017.17 466.09 1014.16 469.39 1010.78 471.77 C 1005.78 475.22 1000.53 478.33 995.31 481.44 C 992.90 482.94 989.85 485.01 988.77 487.74 C 987.88 491.03 987.99 494.52 987.15 497.84 C 986.17 501.89 986.04 505.89 986.29 510.03 C 987.76 508.50 989.22 506.95 990.69 505.41 C 992.27 509.67 993.00 513.81 992.28 518.34 C 991.16 525.37 990.95 532.40 990.92 539.50 C 989.60 544.87 987.57 550.01 986.37 555.42 C 988.98 553.52 990.98 551.37 992.89 548.77 C 993.79 548.67 994.69 548.56 995.58 548.46 C 994.00 552.05 992.51 555.88 989.63 558.66 C 987.03 561.11 983.76 562.93 980.49 564.34 C 975.02 566.68 969.36 566.82 963.38 568.21 C 959.32 569.06 955.07 570.55 950.93 570.68 C 947.54 570.51 944.20 568.86 940.88 568.13 C 938.95 567.51 936.42 567.36 934.75 566.18 C 932.94 563.94 931.98 560.93 930.68 558.37 C 928.08 552.74 923.87 548.38 921.46 542.60 C 918.85 536.87 919.17 530.12 919.31 523.94 C 919.42 518.74 920.44 513.70 923.37 509.32 C 927.54 503.22 932.72 497.81 939.03 493.89 C 942.14 491.99 945.27 489.40 948.76 488.27 C 950.34 488.79 951.74 489.92 953.26 490.60 C 954.95 490.65 956.67 490.19 958.33 489.92 C 956.69 486.78 955.28 483.85 952.43 481.61 C 948.96 478.71 944.16 476.94 942.30 472.56 C 939.14 465.55 939.31 456.50 938.44 448.92 C 936.87 435.64 935.77 422.32 934.86 408.98 C 934.58 404.02 933.05 399.45 931.36 394.83 C 928.11 385.71 926.90 376.56 924.97 367.14 C 922.66 355.95 921.94 344.44 919.88 333.20 C 918.95 327.83 915.53 324.77 912.27 320.76 C 908.82 316.48 906.05 311.74 902.36 307.64 C 898.47 303.26 895.60 298.25 893.07 293.00 C 894.71 289.59 895.17 286.23 895.18 282.48 C 896.69 282.85 898.19 283.22 899.70 283.59 C 899.73 282.25 899.76 280.90 899.80 279.56 C 903.22 281.10 905.79 282.98 908.00 286.05 C 911.17 290.86 914.66 295.27 919.08 299.00 C 918.92 293.11 916.70 286.62 921.01 281.74 C 922.84 285.45 923.96 289.34 924.93 293.34 C 926.63 300.31 930.30 305.54 930.39 312.95 C 930.43 319.44 930.42 325.74 932.14 332.07 C 933.47 338.46 935.83 344.89 937.85 351.11 C 940.43 358.85 942.69 366.60 945.93 374.10 C 946.69 377.13 947.29 380.20 947.83 383.28 C 949.60 393.28 948.94 403.39 950.87 413.40 C 953.15 425.30 956.66 436.97 959.32 448.79 C 963.17 444.48 967.27 440.44 971.48 436.48 C 974.14 433.75 977.72 430.54 978.80 426.80 C 979.02 422.23 976.51 417.33 974.91 413.12 C 972.21 406.14 968.30 399.89 964.57 393.45 C 960.85 387.14 959.09 380.41 956.22 373.69 C 954.03 360.86 953.46 347.96 952.42 335.02 C 952.10 327.36 952.47 319.67 952.34 312.00 C 952.14 302.72 952.78 293.63 951.32 284.41 C 951.96 274.00 950.09 263.69 946.01 254.10 C 942.85 246.77 939.87 239.40 937.46 231.78 C 932.81 216.39 930.95 201.12 928.38 185.36 C 927.40 178.64 927.59 171.84 926.58 165.11 C 925.62 158.38 924.58 151.39 922.26 144.98 C 921.05 142.55 919.61 140.25 918.03 138.04 C 915.62 134.18 912.49 130.18 911.25 125.77 C 909.87 119.18 913.14 112.27 911.60 105.36 C 910.09 98.41 907.44 92.33 907.35 84.99 C 907.15 78.12 910.75 71.26 915.82 66.78 C 918.88 64.05 924.42 65.27 925.59 69.37 Z" fill="#1e2936"/>
</svg>
