<?xml version="1.0" encoding="UTF-8" standalone="no"?>
<!DOCTYPE svg PUBLIC "-//W3C//DTD SVG 1.1//EN" "http://www.w3.org/Graphics/SVG/1.1/DTD/svg11.dtd">
<svg viewBox="0 0 1365 768" height="768.0pt" width="1365.0pt" xmlns="http://www.w3.org/2000/svg" version="1.1">
<path d="M 920.56 66.40 C 922.71 65.03 925.66 66.07 926.55 68.45 C 927.90 71.74 928.24 75.54 929.02 79.01 C 929.84 83.18 931.40 87.05 932.60 91.10 C 934.66 99.77 936.04 108.64 937.57 117.43 C 939.14 131.77 943.97 146.16 948.09 160.08 C 950.48 171.64 954.14 182.70 958.19 193.76 C 962.08 205.61 966.05 217.42 969.83 229.30 C 972.91 237.80 977.17 245.73 979.57 254.51 C 982.34 263.34 983.32 272.17 984.82 281.26 C 986.06 288.68 986.50 296.00 988.80 303.22 C 992.18 294.50 993.23 285.58 995.56 276.57 C 998.00 266.38 1000.08 256.70 998.05 246.21 C 997.88 240.21 997.37 234.76 995.95 228.92 C 998.33 210.43 1001.69 192.10 1005.79 173.90 C 1008.09 163.37 1009.14 151.68 1006.82 141.08 C 1005.74 136.13 1002.91 132.39 1001.09 127.81 C 999.61 124.18 1000.66 119.64 1001.93 116.11 C 1005.06 111.44 1009.74 107.08 1011.84 101.89 C 1014.25 95.93 1013.83 89.20 1015.31 83.28 C 1016.25 79.29 1019.47 76.08 1022.21 73.19 C 1024.79 70.61 1027.94 67.37 1031.57 66.45 C 1033.31 66.20 1034.76 65.46 1035.80 67.36 C 1036.67 71.36 1035.49 75.96 1035.11 80.00 C 1033.77 91.94 1033.48 103.48 1030.28 115.20 C 1028.85 120.13 1028.38 125.12 1028.08 130.22 C 1027.09 139.80 1025.57 149.32 1024.56 158.89 C 1024.18 169.09 1024.56 179.26 1023.68 189.46 C 1023.74 199.68 1022.90 209.83 1022.75 220.04 C 1022.53 226.18 1021.14 231.80 1021.95 238.00 C 1022.92 245.08 1023.75 252.09 1023.25 259.25 C 1021.07 270.98 1020.18 283.13 1019.96 295.06 C 1021.75 293.27 1023.48 291.43 1025.28 289.66 C 1026.25 290.06 1027.21 290.46 1028.18 290.87 C 1028.11 294.62 1028.36 298.23 1029.60 301.82 C 1031.55 298.83 1032.89 295.01 1035.47 292.53 C 1036.67 292.39 1037.92 292.56 1039.12 292.64 C 1037.44 298.82 1035.57 304.93 1034.23 311.21 C 1033.11 316.39 1031.65 321.41 1029.01 326.05 C 1027.08 328.52 1025.16 330.91 1023.73 333.72 C 1020.26 340.41 1018.95 347.90 1017.02 355.12 C 1015.01 362.47 1012.98 369.84 1011.25 377.27 C 1009.67 383.37 1012.35 389.69 1013.00 396.00 C 1014.04 404.92 1014.61 413.64 1017.98 422.10 C 1018.88 427.48 1019.19 432.90 1018.31 438.30 C 1017.99 441.10 1017.12 444.23 1018.23 446.92 C 1019.58 450.66 1021.55 453.68 1021.62 457.80 C 1021.67 462.11 1020.75 467.36 1017.37 470.37 C 1014.19 473.30 1009.14 474.37 1005.23 476.16 C 1000.24 478.25 996.18 481.69 993.00 486.03 C 990.08 489.99 986.40 494.79 985.72 499.76 C 985.41 504.15 987.60 508.87 988.82 513.04 C 989.83 510.66 990.84 508.29 991.90 505.93 C 993.18 511.22 993.75 516.41 993.03 521.83 C 992.28 527.46 993.46 532.19 991.62 537.50 C 990.10 542.19 989.04 546.97 988.09 551.81 C 990.33 551.26 992.56 550.71 994.86 550.41 C 993.93 552.16 993.04 553.89 991.98 555.55 C 988.01 559.76 983.60 563.95 977.97 565.74 C 970.95 568.09 964.15 567.01 957.10 569.03 C 953.89 569.82 950.74 571.21 947.40 570.31 C 943.21 569.25 939.12 567.86 934.88 566.96 C 933.81 564.13 932.82 561.17 931.35 558.52 C 929.86 555.90 927.65 553.91 925.65 551.68 C 922.43 544.34 919.78 537.15 919.56 529.03 C 919.40 522.97 919.42 516.06 922.58 510.67 C 925.44 505.59 929.65 502.60 933.55 498.51 C 936.36 495.69 936.59 491.60 938.06 488.04 C 938.69 486.21 940.59 484.85 941.96 483.55 C 941.66 486.64 941.23 489.71 940.74 492.77 C 947.01 492.14 953.06 490.58 959.16 489.10 C 956.41 481.21 949.11 479.52 944.84 473.18 C 941.78 467.33 941.72 459.51 941.22 453.03 C 940.44 442.62 939.61 432.18 938.10 421.85 C 937.17 415.32 936.82 409.04 934.14 402.91 C 933.76 401.93 933.37 400.96 932.97 400.00 C 931.46 395.42 930.11 390.79 928.68 386.19 C 926.05 377.43 926.34 369.11 924.67 360.14 C 923.54 354.09 922.25 348.14 921.90 341.97 C 921.49 337.21 921.81 332.78 919.45 328.45 C 917.60 324.84 914.69 322.80 911.72 320.22 C 907.79 315.67 904.38 311.07 899.23 307.76 C 895.64 305.47 892.78 303.31 891.01 299.28 C 892.50 298.60 893.97 297.91 895.46 297.24 C 894.13 292.96 894.33 288.92 895.16 284.55 C 897.70 285.40 900.19 286.37 902.62 287.49 C 901.86 285.25 901.18 282.99 900.82 280.64 C 902.42 280.66 903.78 280.87 905.06 281.91 C 908.86 284.70 911.40 289.20 914.89 292.13 C 915.77 292.92 917.03 292.80 917.99 292.21 C 919.04 289.09 919.31 285.63 919.72 282.37 C 921.11 282.12 922.50 281.86 923.89 281.60 C 924.39 285.71 925.15 289.85 926.31 293.82 C 927.58 298.20 930.57 301.80 931.41 306.15 C 932.86 314.90 933.05 323.88 934.86 332.57 C 937.45 344.60 940.73 356.61 944.82 368.23 C 946.64 373.79 948.32 379.44 949.90 385.08 C 950.92 399.87 954.24 414.14 957.78 428.49 C 959.50 435.07 960.96 441.67 963.32 448.07 C 968.47 443.63 973.16 438.77 978.12 434.12 C 980.24 432.03 982.71 429.76 984.05 427.07 C 985.01 425.06 984.33 422.39 983.79 420.34 C 982.14 414.74 979.67 409.36 976.63 404.39 C 972.38 397.33 967.28 391.27 963.91 384.03 C 962.20 380.37 960.73 376.57 959.50 372.72 C 958.92 364.47 958.25 356.28 958.59 348.00 C 958.99 339.26 957.53 330.69 957.53 321.97 C 957.53 315.32 956.23 309.02 957.07 302.35 C 957.88 295.84 957.42 289.39 957.27 282.87 C 957.37 272.19 956.12 260.36 951.19 250.73 C 947.86 243.57 945.18 236.15 941.88 228.97 C 938.51 215.75 936.49 201.95 934.54 188.45 C 933.55 180.90 933.41 173.36 931.93 165.86 C 930.89 160.61 929.82 155.35 928.46 150.18 C 927.02 144.57 922.13 140.72 918.08 136.94 C 916.17 134.02 914.12 130.51 913.80 126.98 C 913.32 120.10 917.25 112.84 916.89 106.05 C 916.41 100.49 912.84 95.55 912.09 89.90 C 911.10 83.47 913.17 77.68 916.06 72.06 C 917.16 70.02 918.57 67.67 920.56 66.40 Z" fill="#1e2936"/>
</svg>
