<?xml version="1.0" encoding="UTF-8" standalone="no"?>
<!DOCTYPE svg PUBLIC "-//W3C//DTD SVG 1.1//EN" "http://www.w3.org/Graphics/SVG/1.1/DTD/svg11.dtd">
<svg viewBox="0 0 1365 768" height="768.0pt" width="1365.0pt" xmlns="http://www.w3.org/2000/svg" version="1.1">
<defs>
<mask id="mask">
<rect width="100%" height="100%" fill="#fff"/>
<path d="M 970.24 393.31 L 971.69 393.47 C 974.38 396.35 974.45 399.68 974.45 403.38 C 974.28 407.56 976.78 411.43 974.00 415.11 C 972.39 413.41 972.29 410.44 971.87 408.22 C 971.31 403.29 970.28 398.28 970.24 393.31 Z" fill="#000"/>
</mask>
</defs>
<path d="M 951.28 61.68 C 953.83 66.19 952.22 70.54 953.87 75.33 C 955.51 82.68 958.49 89.59 960.15 96.91 C 961.19 101.03 960.73 105.25 961.88 109.32 C 962.00 112.05 962.04 114.73 962.74 117.39 C 963.76 121.31 963.74 125.36 964.77 129.27 C 966.14 134.57 967.80 139.99 968.60 145.40 C 969.34 152.19 971.57 158.62 972.73 165.35 C 974.51 171.69 976.36 177.93 977.50 184.44 C 978.32 187.89 978.65 191.66 980.05 194.90 L 980.72 194.58 C 982.65 188.18 982.99 181.50 985.08 175.12 C 986.31 166.21 986.66 156.95 986.15 147.96 C 985.82 143.96 985.18 139.58 982.71 136.29 C 980.58 133.06 978.35 129.90 976.19 126.70 C 974.74 123.68 976.10 119.18 976.84 116.07 C 979.25 112.13 982.42 108.86 985.10 105.14 C 990.55 99.38 988.21 90.26 989.07 83.15 C 990.01 77.13 996.14 72.23 999.90 67.67 C 1002.40 66.27 1005.68 64.33 1007.91 67.29 C 1008.71 69.65 1007.98 72.19 1007.68 74.61 C 1006.72 79.85 1007.16 85.12 1006.47 90.40 C 1005.63 97.60 1006.80 104.61 1005.77 111.78 C 1004.82 118.18 1003.90 124.60 1003.25 131.03 C 1003.48 137.48 1003.24 143.90 1004.29 150.29 C 1002.86 157.15 1002.65 164.02 1002.86 171.00 C 1003.23 187.44 1002.57 203.58 1003.26 219.91 C 1004.18 224.33 1003.42 229.07 1004.89 233.30 C 1005.83 240.46 1009.00 246.67 1009.35 253.96 C 1009.45 258.28 1009.59 262.41 1008.86 266.66 C 1007.65 273.24 1009.14 279.78 1007.83 286.36 C 1008.37 293.06 1008.89 300.12 1008.00 306.82 C 1006.85 312.50 1007.54 318.03 1007.43 324.02 C 1007.51 327.75 1006.32 331.28 1006.35 334.96 C 1006.45 343.97 1006.43 353.00 1006.30 362.01 C 1005.55 370.61 1011.00 378.42 1012.79 387.14 C 1014.05 394.47 1013.29 402.02 1014.81 409.37 C 1016.47 416.29 1017.96 423.38 1018.51 430.48 C 1018.87 434.74 1017.41 438.71 1017.31 442.88 C 1017.82 446.81 1020.20 450.34 1020.85 454.30 C 1021.78 458.98 1021.66 464.47 1017.96 467.98 C 1012.58 472.47 1005.36 475.20 999.65 478.71 C 995.93 480.90 995.27 484.52 992.79 487.75 C 991.00 489.94 988.26 490.59 987.87 493.63 C 987.04 497.95 985.12 503.04 988.48 506.77 C 988.79 505.64 989.26 504.62 989.88 503.70 C 990.55 504.28 991.01 504.94 991.27 505.68 C 991.84 510.45 992.66 515.15 992.79 519.97 C 992.73 523.51 996.99 526.25 996.40 529.64 C 996.24 534.03 993.85 538.43 992.54 542.64 C 991.02 545.94 987.48 548.43 985.10 551.07 C 982.95 552.91 983.94 556.25 983.61 558.86 C 980.62 559.82 979.77 562.86 976.73 563.55 C 968.87 566.16 961.01 564.76 953.19 566.96 C 949.15 568.03 945.20 569.01 940.98 568.73 C 938.23 568.58 935.63 568.72 934.28 565.85 C 932.80 563.09 932.21 561.92 929.08 560.94 C 928.00 559.23 926.78 557.83 926.55 555.74 C 925.90 551.23 924.12 547.08 923.67 542.51 C 921.87 536.93 921.02 531.22 919.68 525.53 C 919.44 522.58 919.41 519.44 919.65 516.49 C 920.30 513.59 921.58 510.65 923.07 508.08 C 927.04 502.87 932.22 500.83 937.42 497.40 C 941.85 493.61 946.75 490.60 951.76 487.65 C 954.45 487.24 957.16 487.50 959.83 486.80 C 960.70 481.35 954.57 475.97 953.44 470.77 C 952.80 463.48 953.24 456.28 954.15 449.04 C 953.91 442.63 955.22 436.40 955.00 430.00 C 954.86 426.86 955.91 423.24 954.18 420.56 C 953.88 414.91 953.99 409.18 953.42 403.56 C 951.82 396.56 951.03 389.45 949.48 382.45 C 948.36 376.90 948.46 371.21 947.01 365.76 C 946.08 361.51 946.40 357.31 946.39 353.00 C 946.39 345.99 946.40 338.99 946.40 331.98 C 946.18 327.59 946.17 323.42 943.08 319.96 C 941.78 317.88 940.40 316.04 938.72 314.25 C 936.16 311.43 934.37 307.97 931.94 305.07 C 929.41 303.16 926.38 300.90 923.04 301.31 C 921.04 301.07 918.31 302.17 918.66 299.02 C 919.90 296.35 922.89 298.72 924.83 299.16 C 926.89 300.19 928.66 299.54 930.68 298.83 C 929.65 295.07 922.30 294.68 919.60 292.41 C 917.87 290.58 919.90 288.34 921.97 288.73 C 926.27 289.63 929.39 292.99 933.06 294.57 C 934.29 294.67 934.70 293.43 934.64 292.39 C 931.09 290.50 924.74 286.64 925.08 281.99 C 929.30 280.58 931.36 283.35 933.86 286.13 C 935.74 288.03 937.62 291.37 940.72 290.82 C 940.71 289.79 940.37 288.94 939.70 288.29 C 937.06 285.23 934.01 282.52 931.29 279.54 C 930.00 278.18 930.57 275.40 932.90 275.86 C 936.24 277.52 939.02 279.78 941.86 282.16 C 942.56 282.59 943.59 283.86 944.47 283.46 C 945.42 282.12 945.97 280.40 947.10 279.21 C 948.18 278.93 949.24 280.49 950.11 281.00 C 950.43 283.36 950.46 285.52 951.41 287.74 C 954.51 294.54 956.84 301.71 959.10 308.82 C 960.27 314.66 960.09 320.51 960.74 326.38 C 961.65 331.59 962.05 336.86 963.06 342.05 C 963.31 343.33 963.73 344.05 964.67 344.95 C 964.31 327.45 969.32 310.33 968.88 292.96 C 968.97 290.57 969.29 288.26 969.51 285.88 C 969.93 281.92 969.24 278.04 969.97 274.09 C 971.42 265.87 970.71 257.21 968.80 249.13 C 965.77 241.69 963.16 234.18 959.97 226.83 C 959.97 218.99 957.04 211.82 957.59 204.00 C 957.64 197.66 957.57 191.33 957.62 185.00 C 957.45 178.99 957.88 173.23 956.38 167.32 C 955.57 161.17 954.10 155.22 952.65 149.19 C 951.67 145.65 950.92 142.32 948.57 139.39 C 945.11 134.15 938.60 133.37 936.84 126.88 C 936.28 122.11 938.82 116.81 939.96 112.18 C 941.08 111.00 942.27 110.23 942.46 108.47 C 942.84 104.54 941.88 100.38 940.22 96.82 C 938.28 92.52 937.12 87.71 936.89 83.01 C 936.96 78.47 939.51 74.33 941.23 70.22 C 942.48 67.51 943.22 64.31 944.91 61.86 C 946.77 59.97 949.32 59.84 951.28 61.68 Z" fill="#1e2936" mask="url(#mask)"/>
</svg>
