<?xml version="1.0" encoding="UTF-8" standalone="no"?>
<!DOCTYPE svg PUBLIC "-//W3C//DTD SVG 1.1//EN" "http://www.w3.org/Graphics/SVG/1.1/DTD/svg11.dtd">
<svg viewBox="0 0 1365 768" height="768.0pt" width="1365.0pt" xmlns="http://www.w3.org/2000/svg" version="1.1">
<path d="M 973.59 59.39 C 974.71 62.87 975.09 66.64 975.66 70.25 C 978.14 68.25 980.68 65.95 983.55 64.53 C 985.25 63.66 987.26 64.12 988.36 65.70 C 989.06 68.32 988.46 71.40 988.24 74.07 C 987.63 79.03 987.66 84.01 987.95 89.00 C 988.72 102.05 987.98 114.93 988.23 128.00 C 988.35 134.00 988.33 140.00 988.28 146.01 C 988.13 156.32 990.94 166.53 992.03 176.92 C 993.84 188.55 994.07 200.37 996.07 211.95 C 998.17 221.46 998.90 230.71 1002.04 239.87 C 1006.15 250.22 1004.92 260.24 1006.09 271.04 C 1008.06 291.36 1006.36 312.75 1004.53 333.07 C 1004.18 342.30 1002.68 351.16 1004.07 359.98 C 1005.08 367.59 1008.25 374.51 1008.93 382.22 C 1009.96 394.00 1010.82 405.88 1012.57 417.65 C 1013.25 422.35 1013.51 427.08 1012.97 431.81 C 1011.89 435.97 1009.90 440.65 1010.06 444.97 C 1010.58 449.67 1014.24 454.30 1014.50 459.13 C 1014.55 463.08 1012.56 466.97 1009.06 468.93 C 1003.64 472.21 998.24 473.99 994.61 479.62 C 991.88 484.11 989.44 489.18 987.87 494.19 C 986.46 498.61 988.66 502.81 989.64 507.07 C 990.72 510.86 990.90 514.96 992.28 518.64 C 993.65 521.08 996.51 522.84 998.70 524.53 C 998.41 527.89 998.21 531.11 997.07 534.31 C 995.28 539.46 991.72 544.23 988.93 548.93 C 987.40 551.35 986.03 554.06 984.07 556.16 C 982.00 557.80 978.88 558.13 976.83 559.94 C 974.54 561.79 973.03 563.98 970.06 564.79 C 964.00 566.44 957.67 567.18 951.52 568.45 C 948.35 568.94 944.70 569.94 941.53 569.29 C 938.38 567.78 935.56 565.54 932.63 563.64 C 931.04 562.39 929.42 561.52 928.86 559.44 C 927.38 554.41 927.23 549.05 925.23 544.00 C 924.18 541.21 922.42 538.76 921.32 536.01 C 920.47 532.75 921.37 529.46 919.85 526.19 C 918.97 523.63 916.66 520.27 917.84 517.57 C 919.29 513.76 921.54 510.17 923.92 506.87 C 926.61 503.22 930.67 501.66 934.50 499.48 C 939.88 496.63 944.47 492.68 949.79 489.74 C 953.09 487.89 956.31 485.93 959.48 483.88 C 957.03 477.76 953.40 472.79 953.79 465.99 C 953.82 458.33 958.36 452.60 958.82 444.98 C 959.69 433.29 960.32 421.49 959.87 409.77 C 959.37 399.07 959.65 388.31 958.72 377.65 C 958.13 370.10 955.27 363.93 956.79 356.63 C 957.93 351.37 958.98 346.24 958.83 340.82 C 958.90 335.87 959.12 330.91 959.09 325.96 C 959.07 320.56 957.58 315.40 957.42 310.03 C 957.28 306.03 957.28 302.03 957.13 298.04 C 953.07 297.55 949.10 296.66 945.09 295.84 C 945.18 294.73 945.26 293.63 945.34 292.52 C 946.45 292.06 947.56 291.61 948.68 291.15 C 950.71 291.31 952.73 291.40 954.77 291.44 C 951.01 287.86 945.81 286.58 944.82 281.18 C 948.93 281.45 952.86 282.07 956.82 283.18 C 955.21 280.32 954.04 277.34 953.08 274.21 C 955.51 273.29 957.61 272.20 959.74 270.72 C 962.78 268.52 966.87 268.90 970.39 267.44 C 972.43 264.97 972.87 261.01 973.28 257.93 C 973.73 253.12 974.33 248.19 974.02 243.36 C 973.64 238.22 971.74 233.93 970.09 229.15 C 969.09 220.75 967.77 212.50 968.21 204.00 C 968.50 195.70 968.40 187.27 969.31 179.04 C 970.16 170.06 971.44 161.76 969.48 152.76 C 968.33 147.84 967.84 142.18 965.41 137.72 C 962.73 133.85 958.55 130.86 954.72 128.19 C 955.08 125.37 955.35 122.45 956.05 119.70 C 957.03 115.96 958.96 112.81 960.26 109.23 C 963.97 100.14 959.49 93.03 958.69 84.03 C 958.09 79.20 959.41 74.87 960.89 70.35 C 963.04 66.97 964.76 63.28 967.12 60.04 C 968.70 57.85 971.57 57.75 973.59 59.39 Z" fill="#1e2936"/>
</svg>
