<?xml version="1.0" encoding="UTF-8" standalone="no"?>
<!DOCTYPE svg PUBLIC "-//W3C//DTD SVG 1.1//EN" "http://www.w3.org/Graphics/SVG/1.1/DTD/svg11.dtd">
<svg viewBox="0 0 1365 768" height="768.0pt" width="1365.0pt" xmlns="http://www.w3.org/2000/svg" version="1.1">
<path d="M 910.96 60.97 C 913.59 63.33 915.39 66.66 917.65 69.38 C 919.62 71.97 922.42 74.73 922.94 78.04 C 923.96 84.37 921.91 90.92 922.61 97.42 C 923.34 103.82 924.47 110.58 927.74 116.20 C 929.29 119.22 931.34 121.97 931.26 125.51 C 931.15 131.56 928.17 137.12 927.37 142.80 C 926.78 146.96 927.86 150.86 928.73 154.89 C 930.20 161.30 930.93 167.63 933.13 173.88 C 935.64 181.01 938.50 187.96 940.43 195.29 C 943.44 207.00 947.11 217.72 947.52 229.97 C 947.77 240.60 947.60 252.04 949.54 262.55 C 950.76 269.09 951.91 275.44 954.34 281.67 C 959.46 294.75 963.99 308.12 967.56 321.71 C 968.67 325.92 970.00 330.00 971.62 334.04 C 974.19 325.04 974.25 315.70 976.28 306.53 C 979.26 292.08 980.95 277.23 984.96 263.04 C 987.15 255.84 988.48 248.74 989.19 241.25 C 990.14 236.42 991.05 231.59 991.64 226.70 C 992.55 219.39 994.29 212.29 996.11 205.17 C 998.62 198.45 1000.94 191.74 1002.69 184.77 C 1007.26 168.14 1013.81 151.81 1018.03 135.09 C 1019.51 129.25 1019.97 123.29 1021.50 117.47 C 1022.84 112.35 1024.42 107.41 1025.09 102.13 C 1026.14 94.66 1025.05 87.55 1026.37 80.11 C 1027.89 76.18 1029.71 72.37 1031.36 68.50 C 1032.44 66.21 1033.72 63.21 1035.98 61.87 C 1038.84 60.26 1042.33 61.05 1044.14 63.82 C 1047.62 68.99 1050.95 75.63 1050.29 82.02 C 1049.58 90.69 1046.80 99.41 1045.00 107.90 C 1043.88 113.15 1044.29 118.40 1043.55 123.65 C 1042.85 128.69 1039.16 132.48 1036.77 136.77 C 1033.40 142.47 1032.77 149.95 1031.15 156.37 C 1028.63 166.46 1026.56 176.60 1025.98 187.00 C 1023.66 196.89 1024.13 207.00 1021.81 216.89 C 1020.60 221.95 1019.82 227.07 1018.92 232.18 C 1016.42 240.56 1012.65 247.55 1011.60 255.96 C 1010.31 267.03 1009.50 278.14 1009.28 289.29 C 1009.17 297.55 1008.10 305.73 1007.84 313.99 C 1007.70 318.35 1007.36 322.69 1006.94 327.03 C 1005.92 337.89 1007.04 349.16 1006.56 360.02 C 1006.08 369.40 1000.55 377.58 996.86 385.93 C 993.05 394.34 991.71 403.34 987.53 411.60 C 986.13 414.84 983.49 419.72 984.88 423.23 C 987.31 427.73 991.69 431.34 995.20 435.00 C 998.33 430.32 1000.39 425.38 1001.90 419.97 C 1004.40 411.13 1007.99 402.91 1009.85 393.92 C 1012.13 383.04 1015.45 372.32 1020.23 362.26 C 1025.04 352.73 1027.75 342.55 1030.05 332.18 C 1031.38 326.84 1032.43 321.46 1033.00 315.98 C 1033.65 310.80 1033.56 305.67 1035.92 300.90 C 1037.47 297.76 1038.95 294.58 1040.52 291.45 C 1041.91 288.41 1045.29 287.12 1047.57 284.62 C 1049.44 282.51 1050.91 280.01 1052.52 277.70 C 1053.81 278.82 1055.06 279.96 1056.43 280.99 C 1058.66 282.73 1060.80 284.22 1061.76 287.04 C 1063.00 290.27 1064.89 293.09 1066.45 296.14 C 1066.04 299.63 1062.75 302.97 1060.87 305.86 C 1057.86 309.82 1056.47 314.32 1054.79 318.92 C 1052.76 322.47 1050.66 325.96 1048.21 329.24 C 1046.16 332.08 1044.01 334.54 1043.13 338.02 C 1041.92 342.84 1041.75 347.94 1040.85 352.84 C 1039.77 359.39 1037.47 365.16 1035.42 371.42 C 1033.65 376.68 1032.10 381.90 1029.90 386.95 C 1027.94 391.45 1025.71 395.62 1024.45 400.41 C 1021.76 412.75 1018.03 424.80 1015.44 437.17 C 1013.70 446.20 1014.57 455.93 1011.25 465.26 C 1009.99 468.48 1007.32 470.66 1004.65 472.68 C 999.66 476.30 994.51 479.82 989.79 483.80 C 987.72 485.53 986.25 487.71 984.86 489.99 C 988.80 490.10 990.45 489.54 993.56 487.20 C 996.52 488.71 999.67 491.21 1002.97 491.70 C 1006.75 490.72 1010.27 488.88 1014.06 487.86 C 1013.30 489.52 1012.51 491.18 1011.66 492.80 C 1010.82 494.79 1008.92 496.86 1009.94 499.09 C 1012.35 505.73 1017.58 511.53 1019.76 518.26 C 1021.67 523.93 1019.43 530.64 1018.61 536.42 C 1017.87 540.10 1017.63 545.05 1014.85 547.84 C 1011.57 551.22 1007.33 553.67 1003.76 556.76 C 999.79 559.93 995.89 564.13 991.27 566.27 C 988.53 567.78 985.27 565.27 982.68 564.32 C 978.90 562.29 975.45 564.16 971.50 563.52 C 968.71 561.99 966.83 558.53 964.81 556.13 C 961.93 552.38 958.15 550.46 954.85 547.17 C 952.63 544.96 950.66 542.49 948.86 539.93 C 948.32 536.58 951.13 533.11 949.53 529.60 C 948.44 526.25 945.68 525.33 942.91 523.68 C 945.92 522.06 948.61 520.25 951.25 518.08 C 949.90 516.55 948.50 514.41 946.60 513.57 C 943.57 512.38 940.30 511.76 937.19 510.78 C 940.79 509.37 944.44 508.58 948.27 508.11 C 949.21 503.35 950.30 498.65 951.81 494.04 C 952.38 493.69 952.97 493.36 953.55 493.03 C 954.46 494.35 955.35 495.67 956.26 496.99 C 957.44 494.40 959.34 491.43 959.40 488.53 C 958.90 486.99 957.50 485.71 956.29 484.70 C 950.72 480.29 943.92 478.40 938.76 473.24 C 935.24 469.81 933.09 465.74 932.21 460.90 C 931.24 455.50 930.35 450.13 929.02 444.80 C 928.32 440.37 927.38 435.99 926.39 431.62 C 923.95 420.83 922.93 409.96 919.93 399.29 C 918.58 392.08 915.85 385.48 913.18 378.69 C 910.51 372.60 908.81 366.17 906.11 360.09 C 902.76 352.79 900.70 345.03 897.46 337.68 C 895.95 333.00 894.29 328.38 892.33 323.87 C 890.55 319.63 888.63 315.69 888.39 311.02 C 888.14 305.34 888.55 299.62 888.98 293.97 C 889.99 289.84 891.26 288.16 894.63 285.69 C 896.81 285.14 899.35 284.26 901.60 284.63 C 904.39 285.25 907.06 286.62 909.70 287.69 C 909.61 292.24 908.80 296.49 907.50 300.84 C 905.16 307.39 908.48 311.78 909.98 317.90 C 910.47 324.06 910.17 329.84 912.33 335.77 C 916.52 347.68 923.70 358.40 929.03 370.01 C 934.17 379.65 935.67 389.67 938.18 400.13 C 940.50 410.45 942.62 420.36 946.75 430.17 C 947.86 426.18 948.83 422.31 948.44 418.12 C 947.81 411.18 945.74 403.40 946.05 395.99 C 946.23 391.82 947.28 388.16 947.01 383.99 C 946.61 376.74 943.59 369.74 942.23 362.49 C 940.00 351.40 937.57 340.37 934.53 329.47 C 934.46 325.22 933.45 321.25 932.78 317.07 C 931.66 310.40 930.93 303.73 930.62 296.97 C 930.31 289.50 928.90 282.30 927.98 274.91 C 926.79 265.95 925.97 256.60 923.95 247.84 C 921.54 237.49 918.85 227.10 917.30 216.58 C 916.12 207.42 914.51 198.26 913.88 189.04 C 913.45 176.43 911.37 164.01 910.40 151.42 C 909.93 145.06 909.63 138.72 908.46 132.43 C 906.82 123.56 906.14 114.59 904.12 105.78 C 901.55 94.41 902.19 83.55 902.69 72.00 C 902.90 69.09 902.97 65.83 904.07 63.10 C 905.14 60.48 908.62 59.14 910.96 60.97 Z" fill="#1e2936"/>
</svg>
