<?xml version="1.0" encoding="UTF-8" standalone="no"?>
<!DOCTYPE svg PUBLIC "-//W3C//DTD SVG 1.1//EN" "http://www.w3.org/Graphics/SVG/1.1/DTD/svg11.dtd">
<svg viewBox="0 0 1365 768" height="768.0pt" width="1365.0pt" xmlns="http://www.w3.org/2000/svg" version="1.1">
<defs>
<mask id="mask">
<rect width="100%" height="100%" fill="#fff"/>
<path d="M 953.22 381.09 L 954.60 381.46 C 956.39 384.11 957.36 387.35 958.72 390.24 C 961.90 397.58 966.32 404.65 968.72 412.27 C 969.19 414.20 970.20 417.12 968.88 418.89 C 966.28 422.75 962.95 426.15 960.02 429.77 C 957.32 421.82 954.40 413.88 952.16 405.80 C 950.48 399.92 952.10 394.89 952.20 389.00 C 952.36 386.45 952.06 383.41 953.22 381.09 Z M 1012.92 319.71 C 1014.64 323.75 1015.89 327.76 1015.15 332.19 C 1013.48 341.65 1011.02 350.87 1007.91 359.96 C 1006.54 363.58 1006.09 368.36 1003.38 371.17 C 1003.00 362.36 1005.48 354.72 1006.27 346.06 C 1006.63 341.81 1007.39 337.72 1008.75 333.68 C 1010.33 328.97 1010.90 324.25 1012.92 319.71 Z M 944.58 316.99 C 945.79 321.44 946.66 326.02 947.40 330.57 C 948.23 336.05 948.50 341.34 945.28 346.15 C 942.80 340.61 941.44 334.54 940.53 328.56 C 939.91 324.34 941.05 319.66 944.58 316.99 Z" fill="#000"/>
</mask>
</defs>
<path d="M 1017.96 56.14 C 1020.63 58.96 1020.00 62.19 1020.23 65.77 C 1018.32 74.74 1023.25 82.39 1023.34 91.97 C 1023.23 99.57 1023.73 106.82 1022.57 114.30 C 1021.59 121.44 1022.83 127.86 1023.05 134.98 C 1023.38 141.55 1023.10 148.15 1023.58 154.71 C 1024.53 163.42 1024.07 172.28 1024.06 181.04 C 1023.19 192.03 1022.42 203.06 1021.17 214.02 C 1020.52 219.72 1021.28 225.25 1021.08 231.00 C 1020.91 235.41 1021.35 239.74 1021.99 244.10 C 1023.01 251.25 1020.74 257.32 1020.57 264.86 C 1020.51 269.21 1020.01 273.59 1020.24 277.93 C 1020.28 280.15 1021.77 281.38 1022.95 283.10 C 1023.94 285.01 1025.16 286.59 1024.79 288.86 C 1024.17 294.01 1022.96 298.76 1023.96 303.99 C 1025.64 313.49 1028.39 323.00 1026.65 332.73 C 1025.40 339.82 1024.12 346.81 1024.01 354.03 C 1023.20 362.18 1023.63 370.32 1022.45 378.42 C 1021.72 383.68 1021.40 389.08 1020.19 394.25 C 1018.74 400.27 1015.23 404.84 1014.31 411.04 C 1013.11 418.74 1012.46 426.56 1011.65 434.31 C 1011.08 443.67 1011.21 454.66 1007.55 463.42 C 1003.11 471.80 993.74 477.52 988.31 485.26 C 985.25 489.37 985.85 495.32 987.17 499.96 C 987.50 502.40 991.54 502.62 993.36 503.59 C 997.23 504.90 999.10 507.50 999.98 511.40 C 997.83 510.15 995.84 508.60 993.64 507.44 C 991.23 506.79 989.02 508.34 986.94 509.33 C 988.70 515.32 995.41 517.54 998.62 522.54 C 999.62 528.24 997.48 535.13 995.82 540.62 C 994.30 546.59 990.52 551.63 988.15 557.37 C 985.82 556.62 982.98 555.13 980.50 555.49 C 977.03 558.28 975.69 562.35 971.45 564.50 C 966.84 566.77 961.22 569.90 955.99 569.70 C 951.06 568.36 946.64 565.99 941.42 565.56 C 938.95 564.26 937.25 562.63 935.50 560.50 C 933.52 558.10 930.45 556.82 928.57 554.41 C 927.20 551.77 927.46 548.22 927.07 545.30 C 926.15 544.46 925.18 543.62 924.38 542.66 C 925.09 539.78 926.28 537.03 927.12 534.18 C 925.08 533.01 922.99 532.00 920.85 531.04 C 919.07 529.25 918.26 527.68 917.77 525.20 C 919.14 525.21 920.52 525.24 921.90 525.27 C 920.59 518.44 919.62 511.75 923.50 505.51 C 926.01 501.83 928.40 497.28 932.11 494.73 C 931.97 497.13 931.75 499.53 931.46 501.91 C 936.91 498.09 942.71 495.06 947.76 490.73 C 950.90 488.17 954.13 486.73 958.25 486.78 C 955.82 490.17 952.28 492.18 950.29 495.96 C 950.51 496.50 950.73 497.03 950.96 497.56 C 954.64 495.40 958.31 493.83 962.52 493.01 C 962.84 488.94 961.33 485.17 959.05 481.86 C 957.13 479.33 953.69 477.73 951.06 475.99 C 945.12 472.24 941.49 465.34 942.35 458.28 C 943.28 451.04 941.44 444.19 941.65 436.97 C 941.66 431.28 940.64 425.68 940.71 419.99 C 940.74 413.17 939.97 406.34 939.18 399.57 C 939.06 397.91 938.07 396.94 937.05 395.75 C 936.00 390.11 934.14 384.78 933.83 378.99 C 933.53 373.29 932.29 367.72 931.90 362.03 C 931.53 349.77 929.11 337.38 926.21 325.48 C 924.55 318.78 923.16 312.36 924.55 305.44 C 925.78 300.21 924.44 295.05 925.49 289.81 C 926.15 285.55 927.40 281.75 930.06 278.30 C 932.66 281.91 932.69 285.85 933.44 290.06 C 935.95 288.47 934.92 284.06 937.13 281.97 C 939.71 281.26 939.11 284.38 939.39 285.96 C 939.30 293.23 936.95 299.24 940.01 306.36 C 943.74 300.32 944.19 293.84 944.63 286.94 C 944.94 281.26 945.85 275.73 947.06 270.18 C 948.10 264.88 948.26 259.49 949.14 254.16 C 949.97 247.80 950.70 240.48 948.76 234.28 C 947.08 228.73 945.38 223.38 942.74 218.21 C 939.41 211.75 936.81 204.34 936.76 197.02 C 936.67 191.47 936.96 185.92 937.48 180.39 C 937.95 175.21 936.96 170.24 936.93 164.98 C 936.95 158.38 935.13 152.60 933.75 146.18 C 932.18 138.97 925.91 134.79 924.98 126.96 C 924.79 121.95 927.38 116.92 927.77 111.87 C 928.50 106.33 925.26 101.40 924.45 95.58 C 923.67 90.11 920.95 83.28 924.26 78.28 C 926.86 74.60 929.64 70.97 932.40 67.41 C 934.19 65.02 938.79 65.26 939.29 68.66 C 940.79 75.33 941.68 82.09 941.38 88.94 C 941.79 97.09 941.99 105.64 944.97 113.20 C 946.84 120.08 947.97 126.75 948.38 133.88 C 949.28 144.22 951.49 154.50 954.47 164.43 C 956.38 171.30 957.63 178.28 960.03 185.02 C 964.25 199.14 963.50 212.78 965.40 227.21 C 966.28 233.63 969.31 238.87 970.73 245.12 C 972.32 251.66 971.27 258.22 971.70 265.03 C 972.87 279.72 974.16 294.33 976.40 308.91 C 977.01 312.64 977.28 316.40 977.69 320.16 C 978.97 318.96 979.52 317.83 979.86 316.11 C 982.37 305.02 984.42 293.89 987.95 283.05 C 989.54 279.55 991.10 276.06 992.22 272.38 C 994.75 264.26 998.06 255.65 999.30 247.25 C 1000.19 241.57 998.28 236.09 997.48 230.46 C 996.30 222.24 995.49 213.36 997.02 205.14 C 997.78 200.79 999.20 196.68 1000.09 192.36 C 1002.49 179.41 1005.51 167.29 1005.75 153.96 C 1005.91 148.78 1007.81 143.11 1005.65 138.21 C 1004.62 135.42 1002.64 133.52 1000.28 131.82 C 997.66 129.42 994.70 126.94 995.00 123.01 C 995.24 117.36 998.85 111.83 1000.18 106.25 C 1002.37 99.45 1002.70 92.30 1001.79 85.25 C 1001.41 82.03 1000.77 78.40 1001.35 75.20 C 1001.85 72.43 1004.16 70.00 1005.81 67.80 C 1007.94 65.18 1009.45 62.16 1011.48 59.48 C 1012.94 57.47 1015.71 56.85 1017.96 56.14 Z" fill="#1e2936" mask="url(#mask)"/>
</svg>
