<?xml version="1.0" encoding="UTF-8" standalone="no"?>
<!DOCTYPE svg PUBLIC "-//W3C//DTD SVG 1.1//EN" "http://www.w3.org/Graphics/SVG/1.1/DTD/svg11.dtd">
<svg viewBox="0 0 1365 768" height="768.0pt" width="1365.0pt" xmlns="http://www.w3.org/2000/svg" version="1.1">
<defs>
<mask id="mask">
<rect width="100%" height="100%" fill="#fff"/>
<path d="M 1017.03 305.66 C 1017.51 306.42 1017.89 307.21 1018.18 308.04 C 1020.66 316.46 1021.38 325.54 1020.13 334.23 C 1018.04 343.72 1015.79 353.02 1012.03 362.01 C 1009.76 367.27 1009.07 372.81 1005.98 377.43 C 1004.67 373.06 1005.61 368.69 1005.74 363.96 C 1005.94 357.80 1007.48 351.97 1008.70 345.97 C 1010.32 336.71 1011.50 327.08 1013.72 317.92 C 1014.74 313.64 1015.10 309.65 1017.03 305.66 Z M 940.26 304.17 C 941.87 305.04 941.44 307.37 941.72 308.94 C 942.19 321.93 946.13 333.19 944.12 346.34 C 943.13 352.74 943.94 359.08 945.47 365.32 C 946.63 369.92 949.02 373.52 951.22 377.64 C 953.79 382.32 955.11 387.46 957.84 392.07 C 962.12 399.22 965.06 407.30 967.65 415.21 C 968.04 416.92 969.17 419.40 967.88 420.93 C 964.89 425.01 961.45 428.82 958.21 432.71 C 955.46 426.58 953.72 420.14 951.23 413.90 C 947.94 405.70 947.42 396.72 947.40 387.98 C 947.00 371.39 940.61 355.09 935.45 339.45 C 934.55 336.54 933.48 333.14 934.02 330.09 C 934.66 326.30 936.14 322.71 936.71 318.88 C 937.54 313.72 937.75 308.90 940.26 304.17 Z" fill="#000"/>
</mask>
</defs>
<path d="M 1023.84 57.16 C 1026.83 61.14 1026.31 65.33 1026.30 69.99 C 1026.13 77.92 1029.35 85.26 1029.85 92.99 C 1030.13 97.60 1028.94 101.66 1028.23 106.15 C 1026.41 117.57 1025.17 129.74 1026.63 141.26 C 1027.05 146.16 1027.66 151.03 1027.53 155.94 C 1026.82 170.78 1026.69 185.78 1025.46 200.61 C 1023.84 210.36 1023.26 220.20 1022.19 230.02 C 1021.29 238.89 1022.39 247.72 1021.55 256.58 C 1021.06 262.64 1020.26 268.22 1021.75 274.24 C 1024.28 278.15 1029.27 281.02 1030.72 285.37 C 1031.32 288.77 1030.31 292.47 1030.42 295.94 C 1030.54 300.80 1031.29 305.62 1031.46 310.48 C 1031.65 315.10 1033.17 319.43 1033.63 323.98 C 1034.00 328.39 1032.93 332.23 1032.22 336.50 C 1031.28 341.67 1032.83 346.72 1031.65 351.91 C 1030.35 358.29 1030.91 364.72 1029.93 371.12 C 1029.15 376.41 1029.01 381.73 1027.88 386.90 C 1027.49 387.98 1027.07 389.04 1026.62 390.10 C 1019.64 404.44 1017.70 419.12 1015.30 434.67 C 1014.81 439.65 1014.45 444.61 1013.45 449.52 C 1012.52 454.01 1012.46 458.87 1010.96 463.20 C 1009.21 467.66 1006.60 471.79 1002.61 474.56 C 996.92 478.49 991.58 482.84 987.13 488.19 C 984.25 492.05 985.12 498.06 985.48 502.58 C 989.72 503.52 994.26 503.31 998.38 504.61 C 1000.34 505.44 1000.53 507.03 1001.15 508.83 C 998.86 508.40 996.54 507.76 994.22 507.60 C 992.13 507.46 989.90 508.57 987.99 509.31 C 991.43 514.72 997.16 518.87 1002.05 522.93 C 1000.21 524.93 997.56 527.11 996.82 529.78 C 995.54 534.10 995.65 538.53 993.86 542.77 C 992.41 546.20 990.97 549.78 988.88 552.87 C 986.50 555.48 982.74 556.77 980.05 559.10 C 976.91 561.53 974.81 565.35 971.50 567.47 C 968.54 568.45 965.08 568.23 961.99 568.29 C 953.52 568.15 945.31 566.76 938.73 561.03 C 935.18 558.05 930.33 555.70 928.78 551.12 C 926.77 545.92 928.28 540.10 927.29 535.18 C 925.18 531.91 920.58 530.71 920.45 526.16 C 921.48 525.79 922.51 525.43 923.54 525.08 C 923.46 520.02 923.05 515.14 924.10 510.12 C 925.49 507.19 927.08 504.37 928.38 501.39 C 929.85 498.29 930.71 495.26 932.96 492.56 C 933.67 495.31 934.12 498.10 934.45 500.92 C 938.70 498.38 942.87 495.70 946.93 492.87 C 949.14 491.93 951.44 491.28 953.76 490.66 C 953.26 493.03 952.70 495.39 952.17 497.75 C 955.99 496.43 959.44 494.81 962.77 492.49 C 962.53 487.74 960.35 483.39 957.04 480.03 C 953.74 476.18 949.38 474.42 945.31 471.68 C 941.93 468.16 940.06 462.87 939.83 458.05 C 939.55 450.67 940.00 443.29 939.41 435.90 C 939.00 427.20 936.92 418.75 936.50 410.06 C 936.50 407.82 935.49 406.45 934.19 404.75 C 933.02 402.06 932.13 399.31 931.44 396.45 C 928.28 383.43 925.80 370.23 924.02 356.95 C 922.58 345.32 919.46 333.87 917.49 322.29 C 916.68 317.31 915.02 312.91 915.64 307.97 C 916.39 302.11 917.17 296.20 918.30 290.39 C 919.05 287.33 919.48 283.97 921.69 281.57 C 922.39 282.07 923.16 282.49 924.00 282.83 C 924.12 283.64 924.26 284.44 924.41 285.24 C 925.62 285.26 926.83 285.29 928.04 285.29 C 929.84 288.57 928.65 291.73 928.31 295.24 C 927.33 301.05 928.06 306.77 930.22 312.23 C 932.44 309.78 932.94 306.86 933.75 303.78 C 934.55 302.57 935.28 301.31 936.12 300.13 C 937.08 300.25 938.04 300.35 939.00 300.43 C 939.68 300.51 940.37 300.61 941.06 300.71 C 942.77 297.35 941.84 292.69 942.00 289.00 C 942.20 278.00 943.33 267.00 943.95 256.02 C 944.00 249.31 945.51 242.32 944.15 235.91 C 943.38 231.93 941.53 228.75 939.84 225.14 C 938.07 221.46 936.78 217.59 935.07 213.87 C 933.88 211.26 932.74 208.70 932.26 205.86 C 931.05 198.59 929.96 191.39 930.15 184.00 C 930.29 170.74 930.23 158.27 926.62 145.37 C 924.95 139.99 919.99 136.67 918.65 131.44 C 916.78 123.78 920.12 114.78 918.71 107.20 C 917.63 102.32 914.87 97.98 913.86 93.02 C 912.52 86.56 913.69 79.13 917.75 73.80 C 919.53 71.40 921.47 68.61 924.02 66.99 C 926.05 65.68 930.19 66.69 930.71 69.24 C 931.95 73.02 932.45 77.06 933.17 80.96 C 934.51 87.81 933.60 94.50 935.99 101.19 C 937.05 107.12 937.90 113.07 939.10 118.98 C 941.03 128.87 941.89 138.97 944.19 148.78 C 946.37 159.13 949.95 169.10 952.70 179.32 C 957.20 192.01 958.56 204.80 959.84 218.13 C 960.13 221.91 960.90 225.55 961.95 229.19 C 963.12 235.26 965.51 240.99 966.79 247.02 C 968.11 255.98 968.57 264.95 968.84 273.99 C 970.25 287.31 972.49 300.58 974.49 313.83 C 975.03 317.50 975.71 321.14 976.59 324.75 C 977.07 324.50 977.56 324.25 978.04 324.00 C 980.28 315.43 982.52 306.29 986.05 298.10 C 988.02 293.63 987.75 289.08 989.03 284.14 C 991.89 277.69 992.59 271.26 994.25 264.36 C 995.77 256.60 999.07 249.47 999.65 241.85 C 1000.01 237.21 998.84 233.13 998.45 228.58 C 997.98 217.14 1000.04 206.42 1001.12 195.20 C 1003.19 188.15 1004.09 180.92 1005.61 173.74 C 1006.91 166.01 1009.40 158.80 1009.78 150.91 C 1009.98 146.32 1010.69 141.06 1009.33 136.63 C 1007.47 133.29 1002.85 131.25 1001.34 127.67 C 999.78 123.21 1001.15 118.10 1002.76 113.83 C 1005.33 107.16 1007.45 100.18 1007.58 92.97 C 1007.66 87.12 1007.24 80.88 1007.92 75.06 C 1008.34 71.27 1010.45 67.61 1012.19 64.26 C 1013.60 61.79 1014.98 59.00 1017.01 56.99 C 1018.78 55.66 1022.38 55.06 1023.84 57.16 Z" fill="#1e2936" mask="url(#mask)"/>
</svg>
