<?xml version="1.0" encoding="UTF-8" standalone="no"?>
<!DOCTYPE svg PUBLIC "-//W3C//DTD SVG 1.1//EN" "http://www.w3.org/Graphics/SVG/1.1/DTD/svg11.dtd">
<svg viewBox="0 0 1365 768" height="768.0pt" width="1365.0pt" xmlns="http://www.w3.org/2000/svg" version="1.1">
<path d="M 920.26 56.75 C 923.13 58.30 925.56 60.84 927.93 63.04 C 930.32 65.44 932.87 67.77 933.48 71.26 C 934.80 78.52 933.52 86.34 934.55 93.62 C 935.06 96.82 936.58 99.33 937.92 102.21 C 939.63 107.22 942.83 111.90 943.87 117.06 C 944.19 121.95 940.46 127.21 938.70 131.68 C 936.04 137.62 935.48 143.72 936.78 150.09 C 939.05 161.08 941.17 172.09 944.04 182.95 C 948.73 200.42 953.11 219.89 951.15 238.03 C 950.23 247.36 950.67 256.69 953.37 265.71 C 955.91 273.98 958.88 282.07 961.96 290.15 C 963.21 295.90 964.92 301.38 967.94 306.47 C 970.56 299.25 972.22 291.63 973.99 284.17 C 977.10 273.86 979.62 263.31 981.65 252.74 C 983.36 243.99 982.89 236.00 985.55 227.59 C 987.60 221.04 989.96 214.59 992.06 208.06 C 996.30 195.43 1001.40 183.13 1005.54 170.46 C 1007.36 165.36 1009.42 160.36 1010.99 155.17 C 1016.08 138.88 1022.18 122.31 1025.04 105.46 C 1026.07 100.37 1026.08 95.27 1026.43 90.11 C 1026.86 84.21 1030.27 79.01 1032.64 73.69 C 1034.13 70.67 1035.39 67.11 1037.63 64.57 C 1039.26 62.88 1043.15 62.00 1044.76 64.16 C 1046.17 66.77 1046.56 70.04 1047.27 72.91 C 1048.16 77.26 1049.82 81.58 1050.27 85.98 C 1050.64 89.77 1049.29 93.46 1048.22 97.04 C 1046.45 102.72 1045.16 108.38 1045.53 114.37 C 1045.87 119.97 1046.32 125.35 1044.98 130.88 C 1041.47 135.00 1036.63 137.99 1034.27 143.12 C 1032.46 147.27 1031.57 151.82 1030.09 156.10 C 1027.39 163.96 1025.72 171.99 1024.14 180.13 C 1022.33 189.48 1022.25 198.83 1020.13 208.09 C 1018.80 213.93 1017.31 219.74 1015.50 225.44 C 1012.29 235.71 1006.57 244.32 1004.07 255.07 C 1003.11 259.40 1003.25 263.59 1003.18 268.00 C 1003.17 276.03 1001.85 283.95 1001.98 292.00 C 1002.07 297.36 1001.76 302.67 1001.29 308.00 C 1000.71 314.78 1001.43 321.48 1001.20 328.24 C 1000.26 334.66 1001.05 340.86 1001.99 347.21 C 1003.50 357.42 999.93 367.00 994.71 375.59 C 990.10 382.96 987.70 391.03 983.81 398.75 C 981.14 404.35 977.61 409.78 975.55 415.62 C 975.05 417.21 974.32 419.38 975.06 420.99 C 978.21 427.13 983.66 432.28 988.25 437.38 C 992.92 429.65 995.20 421.40 997.96 412.90 C 1002.04 400.95 1003.99 388.12 1006.96 375.88 C 1011.21 362.35 1016.80 348.98 1020.17 335.21 C 1021.53 329.63 1023.29 323.95 1024.04 318.28 C 1024.94 313.00 1025.50 308.08 1028.37 303.40 C 1032.88 295.08 1038.92 287.78 1046.14 281.68 C 1048.55 284.64 1051.72 286.25 1054.66 288.52 C 1055.96 293.45 1051.28 299.55 1049.18 303.86 C 1052.61 302.89 1055.85 302.30 1059.41 302.93 C 1055.79 308.23 1050.14 311.03 1046.99 316.75 L 1046.34 317.78 C 1043.39 322.24 1041.19 326.66 1037.67 330.66 C 1035.53 333.13 1033.51 335.46 1032.71 338.72 C 1029.28 352.82 1029.46 368.84 1024.39 382.39 C 1022.85 387.00 1020.72 391.31 1018.74 395.74 C 1015.19 403.57 1014.17 412.61 1012.24 421.08 C 1010.92 427.62 1008.82 433.36 1008.29 439.98 C 1007.66 447.28 1007.19 454.68 1005.97 461.91 C 1005.18 466.56 1002.71 470.26 999.74 473.80 C 993.11 478.55 986.09 483.24 983.58 491.46 C 985.43 491.60 987.28 491.73 989.13 491.84 C 989.45 490.44 989.74 489.00 990.20 487.64 C 995.28 486.67 1000.78 487.64 1005.96 487.47 C 1007.11 490.70 1008.83 493.39 1010.96 496.06 C 1014.65 500.74 1015.39 506.05 1017.57 511.53 C 1019.02 515.58 1021.28 519.91 1021.66 524.21 C 1021.75 528.65 1018.08 532.98 1018.48 537.78 C 1018.37 541.27 1019.96 545.49 1017.22 548.26 C 1013.41 552.68 1008.33 556.06 1004.08 560.06 C 1000.93 562.78 997.90 566.50 993.74 567.49 C 989.70 568.56 985.59 569.33 981.56 570.44 C 980.09 567.87 978.50 565.62 975.87 564.11 C 972.32 561.99 969.29 559.48 966.25 556.69 C 964.27 554.74 961.93 554.65 959.34 554.22 C 957.79 551.75 956.25 549.27 954.81 546.74 C 951.82 540.56 949.06 534.42 944.67 529.06 C 945.13 526.02 945.04 523.34 944.50 520.32 C 947.60 519.36 950.72 518.42 953.84 517.50 C 951.76 513.50 949.73 509.47 948.00 505.30 C 948.63 505.02 949.27 504.73 949.90 504.45 C 953.30 505.77 956.62 506.67 960.22 507.28 C 959.68 502.95 958.52 499.21 959.16 494.84 C 959.28 492.99 959.92 490.71 958.98 489.03 C 953.63 478.92 943.36 471.65 938.43 461.61 C 936.66 457.98 935.04 453.56 935.51 449.46 C 936.04 444.93 937.69 440.57 938.26 436.02 C 939.15 430.08 937.32 424.27 936.95 418.00 C 936.63 412.78 935.96 407.69 934.54 402.65 C 933.53 398.15 931.84 393.95 930.49 389.56 C 926.85 377.11 923.28 364.51 918.43 352.47 C 915.19 344.36 912.90 336.29 907.80 329.05 C 905.38 321.47 901.65 314.46 898.92 307.04 C 896.66 301.12 897.69 294.78 899.92 289.03 C 901.10 285.90 903.52 284.35 906.04 282.38 C 906.94 284.91 907.79 287.45 908.65 290.00 C 910.22 287.33 911.61 284.51 913.40 281.99 L 915.00 282.12 C 915.89 288.13 914.92 294.28 915.50 300.35 C 919.67 296.73 919.10 292.37 920.60 287.53 C 920.96 285.61 923.08 285.49 924.56 284.70 C 924.91 285.54 925.27 286.38 925.62 287.22 C 923.93 291.10 921.97 295.35 921.40 299.55 C 920.86 303.42 922.59 307.62 923.38 311.42 C 925.21 319.05 924.20 326.10 926.58 333.37 C 929.04 340.82 932.84 347.56 936.56 354.41 C 938.07 357.22 939.84 359.84 941.80 362.35 C 940.67 346.77 937.59 331.60 934.84 316.27 C 933.19 306.07 932.03 295.78 930.74 285.53 C 929.66 272.42 928.60 259.16 926.01 246.26 C 924.62 238.59 924.65 231.08 923.82 223.36 C 923.36 218.31 922.57 213.30 922.09 208.26 C 922.42 203.82 922.64 199.43 922.03 194.99 C 920.69 184.68 921.68 174.40 920.76 164.04 C 920.32 152.70 919.52 141.33 919.88 129.99 C 920.05 122.27 918.15 115.29 917.42 107.54 C 916.44 98.12 913.90 89.16 914.13 80.00 C 914.19 75.41 914.87 71.16 914.25 66.57 C 914.02 64.29 913.48 61.89 913.69 59.61 C 914.51 57.13 917.87 55.47 920.26 56.75 Z" fill="#1e2936"/>
</svg>
