<?xml version="1.0" encoding="UTF-8" standalone="no"?>
<!DOCTYPE svg PUBLIC "-//W3C//DTD SVG 1.1//EN" "http://www.w3.org/Graphics/SVG/1.1/DTD/svg11.dtd">
<svg viewBox="0 0 1365 768" height="768.0pt" width="1365.0pt" xmlns="http://www.w3.org/2000/svg" version="1.1">
<path d="M 927.90 52.06 C 930.59 53.92 932.79 56.58 935.10 58.89 C 937.68 61.65 940.75 64.39 941.53 68.26 C 942.67 73.66 942.27 79.40 943.27 84.87 C 943.78 87.78 944.74 90.50 945.72 93.27 C 947.20 97.83 949.60 101.87 952.13 105.90 C 953.98 109.04 955.97 112.83 954.50 116.51 C 952.65 121.15 949.31 124.94 947.78 129.81 C 945.19 137.29 946.66 144.59 947.87 152.17 C 948.11 153.52 948.41 154.85 948.74 156.18 C 950.13 163.35 951.65 170.48 953.22 177.62 C 954.99 186.99 957.72 195.98 958.76 205.49 C 960.70 219.70 956.58 234.72 957.36 249.06 C 957.54 251.82 958.22 254.44 958.92 257.10 C 961.93 269.22 965.79 281.13 969.57 293.02 C 972.86 284.11 974.81 274.69 977.35 265.53 C 979.16 259.13 980.32 252.82 981.03 246.21 C 982.25 236.06 985.19 226.56 989.12 217.16 C 994.42 205.62 997.89 193.23 1002.39 181.36 C 1003.92 177.51 1005.51 173.69 1006.83 169.76 C 1013.27 150.82 1020.46 131.77 1025.17 112.31 C 1026.49 106.99 1027.06 101.91 1026.73 96.43 C 1027.21 93.43 1027.81 90.43 1028.66 87.50 C 1029.95 83.05 1032.38 79.61 1034.29 75.33 C 1035.66 72.42 1036.71 69.16 1038.47 66.47 C 1039.45 64.35 1042.74 64.55 1044.57 65.22 C 1047.61 67.55 1047.44 71.54 1047.78 74.98 C 1048.05 81.19 1050.17 86.81 1049.69 92.84 C 1049.28 98.86 1046.98 104.41 1046.23 110.28 C 1045.43 116.57 1048.79 123.36 1047.34 129.41 C 1046.24 134.11 1041.76 136.46 1038.49 139.52 C 1036.10 141.57 1035.02 144.21 1033.81 147.02 C 1028.78 160.12 1026.22 174.80 1023.64 188.54 C 1022.69 194.43 1022.60 200.27 1021.14 206.09 C 1019.13 214.91 1015.44 222.75 1012.06 231.08 C 1008.73 239.17 1003.77 245.49 1002.45 254.38 C 1001.60 260.93 1001.22 267.64 1001.92 274.23 C 1002.30 278.75 1002.50 283.25 1001.98 287.78 C 1000.87 298.03 1001.32 308.19 1000.42 318.49 C 1000.02 323.01 999.60 327.39 1000.11 331.93 C 1000.57 336.83 1001.99 341.48 1002.75 346.31 C 1003.64 351.75 1002.56 357.65 1001.04 362.89 C 999.12 369.42 995.07 373.75 992.13 379.90 C 988.89 386.83 984.87 393.27 980.79 399.73 C 977.65 404.64 973.75 409.07 973.35 415.17 C 973.04 418.98 975.22 421.77 977.36 424.65 C 980.84 429.04 984.25 433.48 987.80 437.82 C 992.48 427.18 994.75 416.08 997.76 404.93 C 1001.90 391.64 1003.61 377.56 1006.89 364.04 C 1009.14 356.11 1011.08 348.10 1012.98 340.08 C 1014.40 334.96 1016.35 329.84 1017.43 324.65 C 1018.66 318.79 1018.48 313.34 1020.74 307.68 C 1023.29 301.43 1027.07 295.60 1031.50 290.52 C 1033.24 288.56 1035.07 286.37 1037.30 284.98 C 1039.70 284.15 1043.43 285.21 1044.29 287.84 C 1045.31 290.49 1044.73 293.27 1043.93 295.89 C 1042.68 299.69 1040.99 303.38 1039.41 307.06 C 1041.84 305.55 1044.43 303.78 1047.17 302.95 C 1048.82 302.50 1049.86 302.90 1050.98 304.15 C 1050.11 306.55 1047.66 308.16 1045.85 309.90 C 1041.06 313.95 1038.67 320.85 1035.10 326.11 C 1031.94 331.45 1027.03 336.02 1026.34 342.35 C 1025.59 348.28 1025.23 354.24 1024.35 360.15 C 1023.10 368.91 1023.46 376.93 1021.05 385.01 C 1019.90 389.07 1018.23 392.87 1016.73 396.79 C 1014.27 403.14 1013.66 410.42 1012.15 417.17 C 1010.41 426.22 1007.81 435.08 1006.02 444.11 C 1004.76 450.41 1006.14 456.51 1004.67 462.70 C 1003.27 468.47 1000.22 473.78 995.41 477.36 C 991.70 480.15 988.13 482.87 985.53 486.80 C 984.84 488.24 984.61 489.77 984.13 491.27 C 989.11 492.20 993.97 492.70 999.04 492.83 C 996.21 490.97 993.39 489.08 990.69 487.03 C 996.75 486.26 1002.54 486.70 1007.68 490.29 C 1013.17 493.95 1014.80 499.56 1016.67 505.51 C 1018.25 511.13 1020.93 516.52 1022.03 522.23 C 1023.16 527.74 1019.24 532.22 1018.87 537.71 C 1018.43 541.33 1019.11 545.75 1016.69 548.70 C 1013.71 552.58 1009.52 555.60 1006.17 559.18 C 1003.68 561.70 1001.68 564.66 999.14 567.10 C 997.47 568.72 994.69 569.21 992.51 569.79 C 986.48 571.14 980.53 572.79 974.53 574.28 C 975.09 572.78 976.10 571.11 976.13 569.49 C 974.50 567.60 971.88 566.50 969.86 565.07 C 966.39 562.90 964.87 559.69 962.08 556.82 C 960.20 554.78 958.13 553.49 957.29 550.68 C 955.29 544.55 952.93 538.56 950.16 532.74 C 948.67 529.61 946.21 527.66 943.66 525.44 C 947.89 521.78 953.45 518.84 956.84 514.41 C 956.78 512.11 955.89 509.78 955.33 507.56 C 957.14 507.01 958.95 506.45 960.75 505.88 C 960.24 503.79 959.29 501.47 959.45 499.30 C 960.16 497.41 961.30 495.67 962.02 493.77 C 962.50 492.01 961.46 489.88 960.58 488.39 C 958.54 485.20 956.06 482.27 953.67 479.34 C 950.03 474.88 945.36 471.73 941.87 467.15 C 938.78 463.07 936.10 458.59 934.21 453.83 C 933.47 446.86 937.51 442.84 939.53 436.80 C 940.38 429.97 939.27 422.90 939.63 416.00 C 939.56 409.26 940.86 402.80 942.11 396.22 C 943.20 390.51 940.86 385.85 939.44 380.45 C 936.35 368.75 931.97 357.47 929.07 345.71 C 927.90 340.80 926.26 336.78 923.01 332.86 C 921.11 328.84 919.99 324.58 918.45 320.42 C 916.42 315.02 911.66 311.86 909.47 306.39 C 906.94 299.20 906.58 290.99 911.81 284.88 C 912.96 284.13 914.13 283.44 915.30 282.73 C 917.76 288.63 916.95 295.06 920.24 300.39 C 921.49 292.92 919.53 286.63 924.04 280.11 C 927.57 286.27 925.41 293.08 928.70 299.38 C 930.17 295.20 930.70 290.87 931.65 286.57 C 931.97 284.92 932.87 283.69 933.98 282.48 C 936.66 285.26 935.27 288.37 935.01 291.74 C 933.31 302.32 936.33 313.15 937.28 323.99 C 937.76 330.11 939.95 335.66 942.76 341.06 C 942.74 327.91 940.26 315.15 939.58 302.07 C 939.28 296.76 938.16 291.57 937.66 286.29 C 938.04 281.39 939.03 276.93 937.96 272.02 C 936.24 264.33 935.42 256.53 934.06 248.78 C 932.67 240.48 932.52 232.18 933.91 223.87 C 934.99 217.68 933.05 212.20 933.26 206.02 C 933.37 201.82 933.49 197.68 932.74 193.53 C 931.35 185.56 931.95 177.75 931.29 169.73 C 930.70 162.16 930.69 154.59 930.76 146.99 C 930.87 138.71 929.64 130.53 929.63 122.26 C 929.63 114.04 928.16 105.94 927.37 97.69 C 926.76 90.47 923.23 84.21 922.80 77.00 C 922.48 72.69 922.41 68.38 921.85 64.09 C 921.49 60.59 920.78 56.81 921.24 53.30 C 922.45 51.14 925.96 50.69 927.90 52.06 Z" fill="#1e2936"/>
</svg>
